<?xml version="1.0" encoding="UTF-8" standalone="no"?><svg xmlns="http://www.w3.org/2000/svg" xmlns:xlink="http://www.w3.org/1999/xlink" contentScriptType="application/ecmascript" contentStyleType="text/css" height="662px" preserveAspectRatio="none" style="width:885px;height:662px;background:#FFFFFF;" version="1.1" viewBox="0 0 885 662" width="885px" zoomAndPan="magnify"><defs><filter height="300%" id="f9bbjyp7f4fnl" width="300%" x="-1" y="-1"><feGaussianBlur result="blurOut" stdDeviation="2.0"/><feColorMatrix in="blurOut" result="blurOut2" type="matrix" values="0 0 0 0 0 0 0 0 0 0 0 0 0 0 0 0 0 0 .4 0"/><feOffset dx="4.0" dy="4.0" in="blurOut2" result="blurOut3"/><feBlend in="SourceGraphic" in2="blurOut3" mode="normal"/></filter></defs><g><rect fill="#FFFFFF" filter="url(#f9bbjyp7f4fnl)" height="459.2734" style="stroke:#A80036;stroke-width:1.0;" width="10" x="28.5" y="99.6094"/><rect fill="#FFFFFF" filter="url(#f9bbjyp7f4fnl)" height="107.4063" style="stroke:#A80036;stroke-width:1.0;" width="10" x="417.5" y="121.9609"/><rect fill="#FFFFFF" filter="url(#f9bbjyp7f4fnl)" height="91.0547" style="stroke:#A80036;stroke-width:1.0;" width="10" x="417.5" y="259.7188"/><rect fill="#FFFFFF" filter="url(#f9bbjyp7f4fnl)" height="177.7578" style="stroke:#A80036;stroke-width:1.0;" width="10" x="417.5" y="381.125"/><rect fill="#FFFFFF" filter="url(#f9bbjyp7f4fnl)" height="30.3516" style="stroke:#A80036;stroke-width:1.0;" width="10" x="669.5" y="152.3125"/><rect fill="#FFFFFF" filter="url(#f9bbjyp7f4fnl)" height="30.3516" style="stroke:#A80036;stroke-width:1.0;" width="10" x="669.5" y="290.0703"/><rect fill="#FFFFFF" filter="url(#f9bbjyp7f4fnl)" height="156.4063" style="stroke:#A80036;stroke-width:1.0;" width="10" x="669.5" y="411.4766"/><line style="stroke:#A80036;stroke-width:1.0;stroke-dasharray:5.0,5.0;" x1="33" x2="33" y1="89.6094" y2="576.8828"/><line style="stroke:#A80036;stroke-width:1.0;stroke-dasharray:5.0,5.0;" x1="422.5" x2="422.5" y1="89.6094" y2="576.8828"/><line style="stroke:#A80036;stroke-width:1.0;stroke-dasharray:5.0,5.0;" x1="674.5" x2="674.5" y1="89.6094" y2="576.8828"/><text fill="#000000" font-family="sans-serif" font-size="14" lengthAdjust="spacing" textLength="51" x="5" y="86.5332">Jogador</text><ellipse cx="33.5" cy="15" fill="#FEFECE" filter="url(#f9bbjyp7f4fnl)" rx="8" ry="8" style="stroke:#A80036;stroke-width:2.0;"/><path d="M33.5,23 L33.5,50 M20.5,31 L46.5,31 M33.5,50 L20.5,65 M33.5,50 L46.5,65 " fill="none" filter="url(#f9bbjyp7f4fnl)" style="stroke:#A80036;stroke-width:2.0;"/><text fill="#000000" font-family="sans-serif" font-size="14" lengthAdjust="spacing" textLength="51" x="5" y="590.416">Jogador</text><ellipse cx="33.5" cy="603.4922" fill="#FEFECE" filter="url(#f9bbjyp7f4fnl)" rx="8" ry="8" style="stroke:#A80036;stroke-width:2.0;"/><path d="M33.5,611.4922 L33.5,638.4922 M20.5,619.4922 L46.5,619.4922 M33.5,638.4922 L20.5,653.4922 M33.5,638.4922 L46.5,653.4922 " fill="none" filter="url(#f9bbjyp7f4fnl)" style="stroke:#A80036;stroke-width:2.0;"/><rect fill="#FEFECE" filter="url(#f9bbjyp7f4fnl)" height="31.6094" style="stroke:#A80036;stroke-width:1.5;" width="212" x="314.5" y="53"/><text fill="#000000" font-family="sans-serif" font-size="14" lengthAdjust="spacing" textLength="198" x="321.5" y="74.5332">&lt;&lt;C4:Container&gt;&gt; Visualizacao</text><rect fill="#FEFECE" filter="url(#f9bbjyp7f4fnl)" height="31.6094" style="stroke:#A80036;stroke-width:1.5;" width="212" x="314.5" y="575.8828"/><text fill="#000000" font-family="sans-serif" font-size="14" lengthAdjust="spacing" textLength="198" x="321.5" y="597.416">&lt;&lt;C4:Container&gt;&gt; Visualizacao</text><rect fill="#FEFECE" filter="url(#f9bbjyp7f4fnl)" height="31.6094" style="stroke:#A80036;stroke-width:1.5;" width="210" x="567.5" y="53"/><text fill="#000000" font-family="sans-serif" font-size="14" lengthAdjust="spacing" textLength="196" x="574.5" y="74.5332">&lt;&lt;C4:Container&gt;&gt; Rede Social</text><rect fill="#FEFECE" filter="url(#f9bbjyp7f4fnl)" height="31.6094" style="stroke:#A80036;stroke-width:1.5;" width="210" x="567.5" y="575.8828"/><text fill="#000000" font-family="sans-serif" font-size="14" lengthAdjust="spacing" textLength="196" x="574.5" y="597.416">&lt;&lt;C4:Container&gt;&gt; Rede Social</text><rect fill="#FFFFFF" filter="url(#f9bbjyp7f4fnl)" height="459.2734" style="stroke:#A80036;stroke-width:1.0;" width="10" x="28.5" y="99.6094"/><rect fill="#FFFFFF" filter="url(#f9bbjyp7f4fnl)" height="107.4063" style="stroke:#A80036;stroke-width:1.0;" width="10" x="417.5" y="121.9609"/><rect fill="#FFFFFF" filter="url(#f9bbjyp7f4fnl)" height="91.0547" style="stroke:#A80036;stroke-width:1.0;" width="10" x="417.5" y="259.7188"/><rect fill="#FFFFFF" filter="url(#f9bbjyp7f4fnl)" height="177.7578" style="stroke:#A80036;stroke-width:1.0;" width="10" x="417.5" y="381.125"/><rect fill="#FFFFFF" filter="url(#f9bbjyp7f4fnl)" height="30.3516" style="stroke:#A80036;stroke-width:1.0;" width="10" x="669.5" y="152.3125"/><rect fill="#FFFFFF" filter="url(#f9bbjyp7f4fnl)" height="30.3516" style="stroke:#A80036;stroke-width:1.0;" width="10" x="669.5" y="290.0703"/><rect fill="#FFFFFF" filter="url(#f9bbjyp7f4fnl)" height="156.4063" style="stroke:#A80036;stroke-width:1.0;" width="10" x="669.5" y="411.4766"/><polygon fill="#A80036" points="405.5,117.9609,415.5,121.9609,405.5,125.9609,409.5,121.9609" style="stroke:#A80036;stroke-width:1.0;"/><line style="stroke:#A80036;stroke-width:1.0;" x1="38.5" x2="411.5" y1="121.9609" y2="121.9609"/><text fill="#000000" font-family="sans-serif" font-size="13" lengthAdjust="spacing" textLength="230" x="45.5" y="117.1045">Solicita a lista de utilizadores sugeridos</text><polygon fill="#A80036" points="657.5,148.3125,667.5,152.3125,657.5,156.3125,661.5,152.3125" style="stroke:#A80036;stroke-width:1.0;"/><line style="stroke:#A80036;stroke-width:1.0;" x1="427.5" x2="663.5" y1="152.3125" y2="152.3125"/><text fill="#000000" font-family="sans-serif" font-size="13" lengthAdjust="spacing" textLength="223" x="434.5" y="147.4561">Get utilizadores sugeridos / {utilizador}</text><polygon fill="#A80036" points="438.5,178.6641,428.5,182.6641,438.5,186.6641,434.5,182.6641" style="stroke:#A80036;stroke-width:1.0;"/><line style="stroke:#A80036;stroke-width:1.0;stroke-dasharray:2.0,2.0;" x1="432.5" x2="673.5" y1="182.6641" y2="182.6641"/><text fill="#000000" font-family="sans-serif" font-size="13" lengthAdjust="spacing" textLength="170" x="444.5" y="177.8076">utilizadoresSugeridos (JSON)</text><polygon fill="#A80036" points="49.5,225.3672,39.5,229.3672,49.5,233.3672,45.5,229.3672" style="stroke:#A80036;stroke-width:1.0;"/><line style="stroke:#A80036;stroke-width:1.0;stroke-dasharray:2.0,2.0;" x1="43.5" x2="421.5" y1="229.3672" y2="229.3672"/><text fill="#000000" font-family="sans-serif" font-size="13" lengthAdjust="spacing" textLength="241" x="55.5" y="208.1592">apresenta a lista de utlizadores sugeridos</text><text fill="#000000" font-family="sans-serif" font-size="13" lengthAdjust="spacing" textLength="316" x="59.5" y="224.5107">e solicita que selecione os que pretende como objetivo</text><polygon fill="#A80036" points="405.5,255.7188,415.5,259.7188,405.5,263.7188,409.5,259.7188" style="stroke:#A80036;stroke-width:1.0;"/><line style="stroke:#A80036;stroke-width:1.0;" x1="38.5" x2="411.5" y1="259.7188" y2="259.7188"/><text fill="#000000" font-family="sans-serif" font-size="13" lengthAdjust="spacing" textLength="360" x="45.5" y="254.8623">seleciona os utilizadores objetivo que pretende ter na sua rede</text><polygon fill="#A80036" points="657.5,286.0703,667.5,290.0703,657.5,294.0703,661.5,290.0703" style="stroke:#A80036;stroke-width:1.0;"/><line style="stroke:#A80036;stroke-width:1.0;" x1="427.5" x2="663.5" y1="290.0703" y2="290.0703"/><text fill="#000000" font-family="sans-serif" font-size="13" lengthAdjust="spacing" textLength="177" x="434.5" y="285.2139">Get utilizadores / {utilizadores}</text><polygon fill="#A80036" points="438.5,316.4219,428.5,320.4219,438.5,324.4219,434.5,320.4219" style="stroke:#A80036;stroke-width:1.0;"/><line style="stroke:#A80036;stroke-width:1.0;stroke-dasharray:2.0,2.0;" x1="432.5" x2="673.5" y1="320.4219" y2="320.4219"/><text fill="#000000" font-family="sans-serif" font-size="13" lengthAdjust="spacing" textLength="108" x="444.5" y="315.5654">utilizadores(JSON)</text><polygon fill="#A80036" points="49.5,346.7734,39.5,350.7734,49.5,354.7734,45.5,350.7734" style="stroke:#A80036;stroke-width:1.0;"/><line style="stroke:#A80036;stroke-width:1.0;stroke-dasharray:2.0,2.0;" x1="43.5" x2="421.5" y1="350.7734" y2="350.7734"/><text fill="#000000" font-family="sans-serif" font-size="13" lengthAdjust="spacing" textLength="275" x="55.5" y="345.917">apresenta os utilizadores e solicita confirmação</text><polygon fill="#A80036" points="405.5,377.125,415.5,381.125,405.5,385.125,409.5,381.125" style="stroke:#A80036;stroke-width:1.0;"/><line style="stroke:#A80036;stroke-width:1.0;" x1="38.5" x2="411.5" y1="381.125" y2="381.125"/><text fill="#000000" font-family="sans-serif" font-size="13" lengthAdjust="spacing" textLength="109" x="45.5" y="376.2686">confirma a seleção</text><polygon fill="#A80036" points="657.5,407.4766,667.5,411.4766,657.5,415.4766,661.5,411.4766" style="stroke:#A80036;stroke-width:1.0;"/><line style="stroke:#A80036;stroke-width:1.0;" x1="427.5" x2="663.5" y1="411.4766" y2="411.4766"/><text fill="#000000" font-family="sans-serif" font-size="13" lengthAdjust="spacing" textLength="179" x="434.5" y="406.6201">Post utilizadores/ {utilizadores}</text><line style="stroke:#A80036;stroke-width:1.0;" x1="679.5" x2="721.5" y1="441.8281" y2="441.8281"/><line style="stroke:#A80036;stroke-width:1.0;" x1="721.5" x2="721.5" y1="441.8281" y2="454.8281"/><line style="stroke:#A80036;stroke-width:1.0;" x1="680.5" x2="721.5" y1="454.8281" y2="454.8281"/><polygon fill="#A80036" points="690.5,450.8281,680.5,454.8281,690.5,458.8281,686.5,454.8281" style="stroke:#A80036;stroke-width:1.0;"/><text fill="#000000" font-family="sans-serif" font-size="13" lengthAdjust="spacing" textLength="192" x="686.5" y="436.9717">serverDataValidation(utilizadores)</text><line style="stroke:#A80036;stroke-width:1.0;" x1="679.5" x2="721.5" y1="485.1797" y2="485.1797"/><line style="stroke:#A80036;stroke-width:1.0;" x1="721.5" x2="721.5" y1="485.1797" y2="498.1797"/><line style="stroke:#A80036;stroke-width:1.0;" x1="680.5" x2="721.5" y1="498.1797" y2="498.1797"/><polygon fill="#A80036" points="690.5,494.1797,680.5,498.1797,690.5,502.1797,686.5,498.1797" style="stroke:#A80036;stroke-width:1.0;"/><text fill="#000000" font-family="sans-serif" font-size="13" lengthAdjust="spacing" textLength="127" x="686.5" y="480.3232">saveData(utilizadores)</text><polygon fill="#A80036" points="438.5,524.5313,428.5,528.5313,438.5,532.5313,434.5,528.5313" style="stroke:#A80036;stroke-width:1.0;"/><line style="stroke:#A80036;stroke-width:1.0;stroke-dasharray:2.0,2.0;" x1="432.5" x2="668.5" y1="528.5313" y2="528.5313"/><text fill="#000000" font-family="sans-serif" font-size="13" lengthAdjust="spacing" textLength="44" x="444.5" y="523.6748">202 OK</text><polygon fill="#A80036" points="44.5,554.8828,34.5,558.8828,44.5,562.8828,40.5,558.8828" style="stroke:#A80036;stroke-width:1.0;"/><line style="stroke:#A80036;stroke-width:1.0;stroke-dasharray:2.0,2.0;" x1="38.5" x2="421.5" y1="558.8828" y2="558.8828"/><text fill="#000000" font-family="sans-serif" font-size="13" lengthAdjust="spacing" textLength="322" x="50.5" y="554.0264">confirma o sucesso da seleção dos utilizadores objetivo</text><!--MD5=[49fa6996b33213d82cef8db42267e05f]
@startuml

actor "Jogador" as jog

participant "<<C4:Container>> Visualizacao" as c4
participant "<<C4:Container>> Rede Social" as S

activate jog

jog -> c4: Solicita a lista de utilizadores sugeridos

activate c4
c4-> S: Get utilizadores sugeridos / {utilizador}
activate S
S- -> c4 :utilizadoresSugeridos (JSON)
deactivate S
c4 - -> jog: apresenta a lista de utlizadores sugeridos \n e solicita que selecione os que pretende como objetivo
deactivate c4

jog -> c4 : seleciona os utilizadores objetivo que pretende ter na sua rede        
activate c4
c4->S : Get utilizadores / {utilizadores}
activate S
S- ->c4: utilizadores(JSON)
deactivate S
c4 - -> jog : apresenta os utilizadores e solicita confirmação
deactivate c4

jog -> c4 : confirma a seleção
activate c4
c4->S : Post utilizadores/ {utilizadores} 
activate S
S->S :serverDataValidation(utilizadores)
S->S : saveData(utilizadores)
S- ->c4 :202 OK
c4 - -> jog : confirma o sucesso da seleção dos utilizadores objetivo
deactivate c4

deactivate jog


@enduml

PlantUML version 1.2021.11(Sat Oct 02 14:26:11 BST 2021)
(GPL source distribution)
Java Runtime: OpenJDK Runtime Environment
JVM: Dynamic Code Evolution 64-Bit Server VM
Default Encoding: Cp1252
Language: pt
Country: PT
--></g></svg>