<?xml version="1.0" encoding="UTF-8" standalone="no"?><svg xmlns="http://www.w3.org/2000/svg" xmlns:xlink="http://www.w3.org/1999/xlink" contentScriptType="application/ecmascript" contentStyleType="text/css" height="615px" preserveAspectRatio="none" style="width:684px;height:615px;background:#FFFFFF;" version="1.1" viewBox="0 0 684 615" width="684px" zoomAndPan="magnify"><defs><filter height="300%" id="fikih2w6v01vm" width="300%" x="-1" y="-1"><feGaussianBlur result="blurOut" stdDeviation="2.0"/><feColorMatrix in="blurOut" result="blurOut2" type="matrix" values="0 0 0 0 0 0 0 0 0 0 0 0 0 0 0 0 0 0 .4 0"/><feOffset dx="4.0" dy="4.0" in="blurOut2" result="blurOut3"/><feBlend in="SourceGraphic" in2="blurOut3" mode="normal"/></filter></defs><g><rect fill="#FFFFFF" filter="url(#fikih2w6v01vm)" height="411.9219" style="stroke:#A80036;stroke-width:1.0;" width="10" x="65.5" y="99.6094"/><rect fill="#FFFFFF" filter="url(#fikih2w6v01vm)" height="164.1094" style="stroke:#A80036;stroke-width:1.0;" width="10" x="398.5" y="121.9609"/><rect fill="#FFFFFF" filter="url(#fikih2w6v01vm)" height="30.3516" style="stroke:#A80036;stroke-width:1.0;" width="10" x="398.5" y="316.4219"/><rect fill="#FFFFFF" filter="url(#fikih2w6v01vm)" height="134.4063" style="stroke:#A80036;stroke-width:1.0;" width="10" x="398.5" y="377.125"/><rect fill="#FFFFFF" filter="url(#fikih2w6v01vm)" height="103.4063" style="stroke:#A80036;stroke-width:1.0;" width="10" x="585.5" y="152.3125"/><rect fill="#FFFFFF" filter="url(#fikih2w6v01vm)" height="73.7031" style="stroke:#A80036;stroke-width:1.0;" width="10" x="585.5" y="407.4766"/><line style="stroke:#A80036;stroke-width:1.0;stroke-dasharray:5.0,5.0;" x1="70" x2="70" y1="89.6094" y2="529.5313"/><line style="stroke:#A80036;stroke-width:1.0;stroke-dasharray:5.0,5.0;" x1="403.5" x2="403.5" y1="89.6094" y2="529.5313"/><line style="stroke:#A80036;stroke-width:1.0;stroke-dasharray:5.0,5.0;" x1="590.5" x2="590.5" y1="89.6094" y2="529.5313"/><text fill="#000000" font-family="sans-serif" font-size="14" lengthAdjust="spacing" textLength="125" x="5" y="86.5332">Utilizador Registado</text><ellipse cx="70.5" cy="15" fill="#FEFECE" filter="url(#fikih2w6v01vm)" rx="8" ry="8" style="stroke:#A80036;stroke-width:2.0;"/><path d="M70.5,23 L70.5,50 M57.5,31 L83.5,31 M70.5,50 L57.5,65 M70.5,50 L83.5,65 " fill="none" filter="url(#fikih2w6v01vm)" style="stroke:#A80036;stroke-width:2.0;"/><text fill="#000000" font-family="sans-serif" font-size="14" lengthAdjust="spacing" textLength="125" x="5" y="543.0645">Utilizador Registado</text><ellipse cx="70.5" cy="556.1406" fill="#FEFECE" filter="url(#fikih2w6v01vm)" rx="8" ry="8" style="stroke:#A80036;stroke-width:2.0;"/><path d="M70.5,564.1406 L70.5,591.1406 M57.5,572.1406 L83.5,572.1406 M70.5,591.1406 L57.5,606.1406 M70.5,591.1406 L83.5,606.1406 " fill="none" filter="url(#fikih2w6v01vm)" style="stroke:#A80036;stroke-width:2.0;"/><rect fill="#FEFECE" filter="url(#fikih2w6v01vm)" height="49.2188" style="stroke:#A80036;stroke-width:1.5;" width="130" x="336.5" y="35.3906"/><text fill="#000000" font-family="sans-serif" font-size="14" lengthAdjust="spacing" textLength="116" x="343.5" y="56.9238">&lt;&lt;C4:Container&gt;&gt;</text><text fill="#000000" font-family="sans-serif" font-size="14" lengthAdjust="spacing" textLength="78" x="362.5" y="74.5332">Visualização</text><rect fill="#FEFECE" filter="url(#fikih2w6v01vm)" height="49.2188" style="stroke:#A80036;stroke-width:1.5;" width="130" x="336.5" y="528.5313"/><text fill="#000000" font-family="sans-serif" font-size="14" lengthAdjust="spacing" textLength="116" x="343.5" y="550.0645">&lt;&lt;C4:Container&gt;&gt;</text><text fill="#000000" font-family="sans-serif" font-size="14" lengthAdjust="spacing" textLength="78" x="362.5" y="567.6738">Visualização</text><rect fill="#FEFECE" filter="url(#fikih2w6v01vm)" height="49.2188" style="stroke:#A80036;stroke-width:1.5;" width="130" x="523.5" y="35.3906"/><text fill="#000000" font-family="sans-serif" font-size="14" lengthAdjust="spacing" textLength="116" x="530.5" y="56.9238">&lt;&lt;C4:Container&gt;&gt;</text><text fill="#000000" font-family="sans-serif" font-size="14" lengthAdjust="spacing" textLength="76" x="550.5" y="74.5332">Rede Social</text><rect fill="#FEFECE" filter="url(#fikih2w6v01vm)" height="49.2188" style="stroke:#A80036;stroke-width:1.5;" width="130" x="523.5" y="528.5313"/><text fill="#000000" font-family="sans-serif" font-size="14" lengthAdjust="spacing" textLength="116" x="530.5" y="550.0645">&lt;&lt;C4:Container&gt;&gt;</text><text fill="#000000" font-family="sans-serif" font-size="14" lengthAdjust="spacing" textLength="76" x="550.5" y="567.6738">Rede Social</text><rect fill="#FFFFFF" filter="url(#fikih2w6v01vm)" height="411.9219" style="stroke:#A80036;stroke-width:1.0;" width="10" x="65.5" y="99.6094"/><rect fill="#FFFFFF" filter="url(#fikih2w6v01vm)" height="164.1094" style="stroke:#A80036;stroke-width:1.0;" width="10" x="398.5" y="121.9609"/><rect fill="#FFFFFF" filter="url(#fikih2w6v01vm)" height="30.3516" style="stroke:#A80036;stroke-width:1.0;" width="10" x="398.5" y="316.4219"/><rect fill="#FFFFFF" filter="url(#fikih2w6v01vm)" height="134.4063" style="stroke:#A80036;stroke-width:1.0;" width="10" x="398.5" y="377.125"/><rect fill="#FFFFFF" filter="url(#fikih2w6v01vm)" height="103.4063" style="stroke:#A80036;stroke-width:1.0;" width="10" x="585.5" y="152.3125"/><rect fill="#FFFFFF" filter="url(#fikih2w6v01vm)" height="73.7031" style="stroke:#A80036;stroke-width:1.0;" width="10" x="585.5" y="407.4766"/><polygon fill="#A80036" points="386.5,117.9609,396.5,121.9609,386.5,125.9609,390.5,121.9609" style="stroke:#A80036;stroke-width:1.0;"/><line style="stroke:#A80036;stroke-width:1.0;" x1="75.5" x2="392.5" y1="121.9609" y2="121.9609"/><text fill="#000000" font-family="sans-serif" font-size="13" font-weight="bold" lengthAdjust="spacing" textLength="7" x="82.5" y="117.1045">1</text><text fill="#000000" font-family="sans-serif" font-size="13" lengthAdjust="spacing" textLength="293" x="93.5" y="117.1045">inicia pesquisa por jogadores que conheça na rede</text><polygon fill="#A80036" points="573.5,148.3125,583.5,152.3125,573.5,156.3125,577.5,152.3125" style="stroke:#A80036;stroke-width:1.0;"/><line style="stroke:#A80036;stroke-width:1.0;" x1="408.5" x2="579.5" y1="152.3125" y2="152.3125"/><text fill="#000000" font-family="sans-serif" font-size="13" font-weight="bold" lengthAdjust="spacing" textLength="7" x="415.5" y="147.4561">2</text><text fill="#000000" font-family="sans-serif" font-size="13" lengthAdjust="spacing" textLength="133" x="426.5" y="147.4561">GET jogadores / dados</text><path d="M397,165.3125 L397,224.3125 L576,224.3125 L576,175.3125 L566,165.3125 L397,165.3125 " fill="#FBFB77" filter="url(#fikih2w6v01vm)" style="stroke:#A80036;stroke-width:1.0;"/><path d="M566,165.3125 L566,175.3125 L576,175.3125 L566,165.3125 " fill="#FBFB77" style="stroke:#A80036;stroke-width:1.0;"/><text fill="#000000" font-family="sans-serif" font-size="13" lengthAdjust="spacing" textLength="139" x="403" y="183.8076">get filtrado com base no</text><text fill="#000000" font-family="sans-serif" font-size="13" lengthAdjust="spacing" textLength="158" x="403" y="200.1592">numero de telemovel, email</text><text fill="#000000" font-family="sans-serif" font-size="13" lengthAdjust="spacing" textLength="90" x="403" y="216.5107">ou nome ou tag</text><polygon fill="#A80036" points="419.5,251.7188,409.5,255.7188,419.5,259.7188,415.5,255.7188" style="stroke:#A80036;stroke-width:1.0;"/><line style="stroke:#A80036;stroke-width:1.0;stroke-dasharray:2.0,2.0;" x1="413.5" x2="589.5" y1="255.7188" y2="255.7188"/><text fill="#000000" font-family="sans-serif" font-size="13" font-weight="bold" lengthAdjust="spacing" textLength="7" x="425.5" y="250.8623">3</text><text fill="#000000" font-family="sans-serif" font-size="13" lengthAdjust="spacing" textLength="102" x="436.5" y="250.8623">jogadores (JSON)</text><polygon fill="#A80036" points="86.5,282.0703,76.5,286.0703,86.5,290.0703,82.5,286.0703" style="stroke:#A80036;stroke-width:1.0;"/><line style="stroke:#A80036;stroke-width:1.0;stroke-dasharray:2.0,2.0;" x1="80.5" x2="402.5" y1="286.0703" y2="286.0703"/><text fill="#000000" font-family="sans-serif" font-size="13" font-weight="bold" lengthAdjust="spacing" textLength="7" x="92.5" y="281.2139">4</text><text fill="#000000" font-family="sans-serif" font-size="13" lengthAdjust="spacing" textLength="210" x="103.5" y="281.2139">apresenta lista de jogadores na rede</text><polygon fill="#A80036" points="386.5,312.4219,396.5,316.4219,386.5,320.4219,390.5,316.4219" style="stroke:#A80036;stroke-width:1.0;"/><line style="stroke:#A80036;stroke-width:1.0;" x1="75.5" x2="392.5" y1="316.4219" y2="316.4219"/><text fill="#000000" font-family="sans-serif" font-size="13" font-weight="bold" lengthAdjust="spacing" textLength="7" x="82.5" y="311.5654">5</text><text fill="#000000" font-family="sans-serif" font-size="13" lengthAdjust="spacing" textLength="203" x="93.5" y="311.5654">seleciona jogadores a pedir ligação</text><polygon fill="#A80036" points="86.5,342.7734,76.5,346.7734,86.5,350.7734,82.5,346.7734" style="stroke:#A80036;stroke-width:1.0;"/><line style="stroke:#A80036;stroke-width:1.0;stroke-dasharray:2.0,2.0;" x1="80.5" x2="402.5" y1="346.7734" y2="346.7734"/><text fill="#000000" font-family="sans-serif" font-size="13" font-weight="bold" lengthAdjust="spacing" textLength="7" x="92.5" y="341.917">6</text><text fill="#000000" font-family="sans-serif" font-size="13" lengthAdjust="spacing" textLength="175" x="103.5" y="341.917">solicita confirmação do pedido</text><polygon fill="#A80036" points="386.5,373.125,396.5,377.125,386.5,381.125,390.5,377.125" style="stroke:#A80036;stroke-width:1.0;"/><line style="stroke:#A80036;stroke-width:1.0;" x1="75.5" x2="392.5" y1="377.125" y2="377.125"/><text fill="#000000" font-family="sans-serif" font-size="13" font-weight="bold" lengthAdjust="spacing" textLength="7" x="82.5" y="372.2686">7</text><text fill="#000000" font-family="sans-serif" font-size="13" lengthAdjust="spacing" textLength="91" x="93.5" y="372.2686">confirma pedido</text><polygon fill="#A80036" points="573.5,403.4766,583.5,407.4766,573.5,411.4766,577.5,407.4766" style="stroke:#A80036;stroke-width:1.0;"/><line style="stroke:#A80036;stroke-width:1.0;" x1="408.5" x2="579.5" y1="407.4766" y2="407.4766"/><text fill="#000000" font-family="sans-serif" font-size="13" font-weight="bold" lengthAdjust="spacing" textLength="7" x="415.5" y="402.6201">8</text><text fill="#000000" font-family="sans-serif" font-size="13" lengthAdjust="spacing" textLength="147" x="426.5" y="402.6201">POST pedidosligacao/dto</text><line style="stroke:#A80036;stroke-width:1.0;stroke-dasharray:2.0,2.0;" x1="595.5" x2="637.5" y1="437.8281" y2="437.8281"/><line style="stroke:#A80036;stroke-width:1.0;stroke-dasharray:2.0,2.0;" x1="637.5" x2="637.5" y1="437.8281" y2="450.8281"/><line style="stroke:#A80036;stroke-width:1.0;stroke-dasharray:2.0,2.0;" x1="596.5" x2="637.5" y1="450.8281" y2="450.8281"/><polygon fill="#A80036" points="606.5,446.8281,596.5,450.8281,606.5,454.8281,602.5,450.8281" style="stroke:#A80036;stroke-width:1.0;"/><text fill="#000000" font-family="sans-serif" font-size="13" font-weight="bold" lengthAdjust="spacing" textLength="7" x="602.5" y="432.9717">9</text><text fill="#000000" font-family="sans-serif" font-size="13" lengthAdjust="spacing" textLength="64" x="613.5" y="432.9717">Create(dto)</text><polygon fill="#A80036" points="419.5,477.1797,409.5,481.1797,419.5,485.1797,415.5,481.1797" style="stroke:#A80036;stroke-width:1.0;"/><line style="stroke:#A80036;stroke-width:1.0;stroke-dasharray:2.0,2.0;" x1="413.5" x2="589.5" y1="481.1797" y2="481.1797"/><text fill="#000000" font-family="sans-serif" font-size="13" font-weight="bold" lengthAdjust="spacing" textLength="14" x="425.5" y="476.3232">10</text><text fill="#000000" font-family="sans-serif" font-size="13" lengthAdjust="spacing" textLength="44" x="443.5" y="476.3232">202 OK</text><polygon fill="#A80036" points="81.5,507.5313,71.5,511.5313,81.5,515.5313,77.5,511.5313" style="stroke:#A80036;stroke-width:1.0;"/><line style="stroke:#A80036;stroke-width:1.0;stroke-dasharray:2.0,2.0;" x1="75.5" x2="402.5" y1="511.5313" y2="511.5313"/><text fill="#000000" font-family="sans-serif" font-size="13" font-weight="bold" lengthAdjust="spacing" textLength="14" x="87.5" y="506.6748">11</text><text fill="#000000" font-family="sans-serif" font-size="13" lengthAdjust="spacing" textLength="247" x="105.5" y="506.6748">informa que o pedido foi feito com sucesso</text><!--MD5=[9164a904c3835de494288b3ded5daedd]
@startuml
autonumber

actor "Utilizador Registado" as USER
participant "<<C4:Container>>\nVisualização" as SYSTEM
participant "<<C4:Container>>\nRede Social" as SYSTEM2

activate USER

USER -> SYSTEM: inicia pesquisa por jogadores que conheça na rede

activate SYSTEM

SYSTEM -> SYSTEM2 : GET jogadores / dados

activate SYSTEM2

note left SYSTEM2
get filtrado com base no
numero de telemovel, email
ou nome ou tag
end note

SYSTEM2 - -> SYSTEM : jogadores (JSON)

deactivate SYSTEM2

SYSTEM - -> USER: apresenta lista de jogadores na rede

deactivate SYSTEM

USER -> SYSTEM: seleciona jogadores a pedir ligação

activate SYSTEM

SYSTEM - -> USER: solicita confirmação do pedido

deactivate SYSTEM

USER -> SYSTEM: confirma pedido

activate SYSTEM

SYSTEM -> SYSTEM2 : POST pedidosligacao/dto

activate SYSTEM2

SYSTEM2 - -> SYSTEM2 : Create(dto)

SYSTEM2 - -> SYSTEM : 202 OK

deactivate SYSTEM2

SYSTEM - -> USER: informa que o pedido foi feito com sucesso

deactivate SYSTEM

deactivate USER
@enduml

PlantUML version 1.2021.11(Sat Oct 02 14:26:11 BST 2021)
(GPL source distribution)
Java Runtime: OpenJDK Runtime Environment
JVM: Dynamic Code Evolution 64-Bit Server VM
Default Encoding: Cp1252
Language: pt
Country: PT
--></g></svg>