<?xml version="1.0" encoding="UTF-8" standalone="no"?><svg xmlns="http://www.w3.org/2000/svg" xmlns:xlink="http://www.w3.org/1999/xlink" contentScriptType="application/ecmascript" contentStyleType="text/css" height="662px" preserveAspectRatio="none" style="width:923px;height:662px;background:#FFFFFF;" version="1.1" viewBox="0 0 923 662" width="923px" zoomAndPan="magnify"><defs><filter height="300%" id="f1mvvahofh8cd1" width="300%" x="-1" y="-1"><feGaussianBlur result="blurOut" stdDeviation="2.0"/><feColorMatrix in="blurOut" result="blurOut2" type="matrix" values="0 0 0 0 0 0 0 0 0 0 0 0 0 0 0 0 0 0 .4 0"/><feOffset dx="4.0" dy="4.0" in="blurOut2" result="blurOut3"/><feBlend in="SourceGraphic" in2="blurOut3" mode="normal"/></filter></defs><g><rect fill="#FFFFFF" filter="url(#f1mvvahofh8cd1)" height="459.2734" style="stroke:#A80036;stroke-width:1.0;" width="10" x="28.5" y="99.6094"/><rect fill="#FFFFFF" filter="url(#f1mvvahofh8cd1)" height="107.4063" style="stroke:#A80036;stroke-width:1.0;" width="10" x="455.5" y="121.9609"/><rect fill="#FFFFFF" filter="url(#f1mvvahofh8cd1)" height="91.0547" style="stroke:#A80036;stroke-width:1.0;" width="10" x="455.5" y="259.7188"/><rect fill="#FFFFFF" filter="url(#f1mvvahofh8cd1)" height="177.7578" style="stroke:#A80036;stroke-width:1.0;" width="10" x="455.5" y="381.125"/><rect fill="#FFFFFF" filter="url(#f1mvvahofh8cd1)" height="30.3516" style="stroke:#A80036;stroke-width:1.0;" width="10" x="679.5" y="152.3125"/><rect fill="#FFFFFF" filter="url(#f1mvvahofh8cd1)" height="30.3516" style="stroke:#A80036;stroke-width:1.0;" width="10" x="679.5" y="290.0703"/><rect fill="#FFFFFF" filter="url(#f1mvvahofh8cd1)" height="117.0547" style="stroke:#A80036;stroke-width:1.0;" width="10" x="679.5" y="411.4766"/><line style="stroke:#A80036;stroke-width:1.0;stroke-dasharray:5.0,5.0;" x1="33" x2="33" y1="89.6094" y2="576.8828"/><line style="stroke:#A80036;stroke-width:1.0;stroke-dasharray:5.0,5.0;" x1="460.5" x2="460.5" y1="89.6094" y2="576.8828"/><line style="stroke:#A80036;stroke-width:1.0;stroke-dasharray:5.0,5.0;" x1="684.5" x2="684.5" y1="89.6094" y2="576.8828"/><text fill="#000000" font-family="sans-serif" font-size="14" lengthAdjust="spacing" textLength="51" x="5" y="86.5332">Jogador</text><ellipse cx="33.5" cy="15" fill="#FEFECE" filter="url(#f1mvvahofh8cd1)" rx="8" ry="8" style="stroke:#A80036;stroke-width:2.0;"/><path d="M33.5,23 L33.5,50 M20.5,31 L46.5,31 M33.5,50 L20.5,65 M33.5,50 L46.5,65 " fill="none" filter="url(#f1mvvahofh8cd1)" style="stroke:#A80036;stroke-width:2.0;"/><text fill="#000000" font-family="sans-serif" font-size="14" lengthAdjust="spacing" textLength="51" x="5" y="590.416">Jogador</text><ellipse cx="33.5" cy="603.4922" fill="#FEFECE" filter="url(#f1mvvahofh8cd1)" rx="8" ry="8" style="stroke:#A80036;stroke-width:2.0;"/><path d="M33.5,611.4922 L33.5,638.4922 M20.5,619.4922 L46.5,619.4922 M33.5,638.4922 L20.5,653.4922 M33.5,638.4922 L46.5,653.4922 " fill="none" filter="url(#f1mvvahofh8cd1)" style="stroke:#A80036;stroke-width:2.0;"/><rect fill="#FEFECE" filter="url(#f1mvvahofh8cd1)" height="31.6094" style="stroke:#A80036;stroke-width:1.5;" width="208" x="354.5" y="53"/><text fill="#000000" font-family="sans-serif" font-size="14" lengthAdjust="spacing" textLength="194" x="361.5" y="74.5332">&lt;&lt;C4:Container&gt;&gt;Visualizacao</text><rect fill="#FEFECE" filter="url(#f1mvvahofh8cd1)" height="31.6094" style="stroke:#A80036;stroke-width:1.5;" width="208" x="354.5" y="575.8828"/><text fill="#000000" font-family="sans-serif" font-size="14" lengthAdjust="spacing" textLength="194" x="361.5" y="597.416">&lt;&lt;C4:Container&gt;&gt;Visualizacao</text><rect fill="#FEFECE" filter="url(#f1mvvahofh8cd1)" height="49.2188" style="stroke:#A80036;stroke-width:1.5;" width="130" x="617.5" y="35.3906"/><text fill="#000000" font-family="sans-serif" font-size="14" lengthAdjust="spacing" textLength="116" x="624.5" y="56.9238">&lt;&lt;C4:Container&gt;&gt;</text><text fill="#000000" font-family="sans-serif" font-size="14" lengthAdjust="spacing" textLength="80" x="642.5" y="74.5332">:Rede Social</text><rect fill="#FEFECE" filter="url(#f1mvvahofh8cd1)" height="49.2188" style="stroke:#A80036;stroke-width:1.5;" width="130" x="617.5" y="575.8828"/><text fill="#000000" font-family="sans-serif" font-size="14" lengthAdjust="spacing" textLength="116" x="624.5" y="597.416">&lt;&lt;C4:Container&gt;&gt;</text><text fill="#000000" font-family="sans-serif" font-size="14" lengthAdjust="spacing" textLength="80" x="642.5" y="615.0254">:Rede Social</text><rect fill="#FFFFFF" filter="url(#f1mvvahofh8cd1)" height="459.2734" style="stroke:#A80036;stroke-width:1.0;" width="10" x="28.5" y="99.6094"/><rect fill="#FFFFFF" filter="url(#f1mvvahofh8cd1)" height="107.4063" style="stroke:#A80036;stroke-width:1.0;" width="10" x="455.5" y="121.9609"/><rect fill="#FFFFFF" filter="url(#f1mvvahofh8cd1)" height="91.0547" style="stroke:#A80036;stroke-width:1.0;" width="10" x="455.5" y="259.7188"/><rect fill="#FFFFFF" filter="url(#f1mvvahofh8cd1)" height="177.7578" style="stroke:#A80036;stroke-width:1.0;" width="10" x="455.5" y="381.125"/><rect fill="#FFFFFF" filter="url(#f1mvvahofh8cd1)" height="30.3516" style="stroke:#A80036;stroke-width:1.0;" width="10" x="679.5" y="152.3125"/><rect fill="#FFFFFF" filter="url(#f1mvvahofh8cd1)" height="30.3516" style="stroke:#A80036;stroke-width:1.0;" width="10" x="679.5" y="290.0703"/><rect fill="#FFFFFF" filter="url(#f1mvvahofh8cd1)" height="117.0547" style="stroke:#A80036;stroke-width:1.0;" width="10" x="679.5" y="411.4766"/><polygon fill="#A80036" points="443.5,117.9609,453.5,121.9609,443.5,125.9609,447.5,121.9609" style="stroke:#A80036;stroke-width:1.0;"/><line style="stroke:#A80036;stroke-width:1.0;" x1="38.5" x2="449.5" y1="121.9609" y2="121.9609"/><text fill="#000000" font-family="sans-serif" font-size="13" lengthAdjust="spacing" textLength="295" x="45.5" y="117.1045">Solicita a lista de pedidos de introducao pendentes</text><polygon fill="#A80036" points="667.5,148.3125,677.5,152.3125,667.5,156.3125,671.5,152.3125" style="stroke:#A80036;stroke-width:1.0;"/><line style="stroke:#A80036;stroke-width:1.0;" x1="465.5" x2="673.5" y1="152.3125" y2="152.3125"/><text fill="#000000" font-family="sans-serif" font-size="13" lengthAdjust="spacing" textLength="134" x="472.5" y="147.4561">Get pedidos/{utilizador}</text><polygon fill="#A80036" points="476.5,178.6641,466.5,182.6641,476.5,186.6641,472.5,182.6641" style="stroke:#A80036;stroke-width:1.0;"/><line style="stroke:#A80036;stroke-width:1.0;stroke-dasharray:2.0,2.0;" x1="470.5" x2="683.5" y1="182.6641" y2="182.6641"/><text fill="#000000" font-family="sans-serif" font-size="13" lengthAdjust="spacing" textLength="87" x="482.5" y="177.8076">pedidos(JSON)</text><polygon fill="#A80036" points="49.5,225.3672,39.5,229.3672,49.5,233.3672,45.5,229.3672" style="stroke:#A80036;stroke-width:1.0;"/><line style="stroke:#A80036;stroke-width:1.0;stroke-dasharray:2.0,2.0;" x1="43.5" x2="459.5" y1="229.3672" y2="229.3672"/><text fill="#000000" font-family="sans-serif" font-size="13" lengthAdjust="spacing" textLength="309" x="55.5" y="208.1592">apresenta a lista de pedidos de introducao pendentes</text><text fill="#000000" font-family="sans-serif" font-size="13" lengthAdjust="spacing" textLength="158" x="59.5" y="224.5107">e solicita que selecione um</text><polygon fill="#A80036" points="443.5,255.7188,453.5,259.7188,443.5,263.7188,447.5,259.7188" style="stroke:#A80036;stroke-width:1.0;"/><line style="stroke:#A80036;stroke-width:1.0;" x1="38.5" x2="449.5" y1="259.7188" y2="259.7188"/><text fill="#000000" font-family="sans-serif" font-size="13" lengthAdjust="spacing" textLength="380" x="45.5" y="254.8623">seleciona o pedido de introducao que pretende aprovar/desaprovar</text><polygon fill="#A80036" points="667.5,286.0703,677.5,290.0703,667.5,294.0703,671.5,290.0703" style="stroke:#A80036;stroke-width:1.0;"/><line style="stroke:#A80036;stroke-width:1.0;" x1="465.5" x2="673.5" y1="290.0703" y2="290.0703"/><text fill="#000000" font-family="sans-serif" font-size="13" lengthAdjust="spacing" textLength="127" x="472.5" y="285.2139">Get pedido/{utilizador}</text><polygon fill="#A80036" points="476.5,316.4219,466.5,320.4219,476.5,324.4219,472.5,320.4219" style="stroke:#A80036;stroke-width:1.0;"/><line style="stroke:#A80036;stroke-width:1.0;stroke-dasharray:2.0,2.0;" x1="470.5" x2="683.5" y1="320.4219" y2="320.4219"/><text fill="#000000" font-family="sans-serif" font-size="13" lengthAdjust="spacing" textLength="80" x="482.5" y="315.5654">pedido(JSON)</text><polygon fill="#A80036" points="49.5,346.7734,39.5,350.7734,49.5,354.7734,45.5,350.7734" style="stroke:#A80036;stroke-width:1.0;"/><line style="stroke:#A80036;stroke-width:1.0;stroke-dasharray:2.0,2.0;" x1="43.5" x2="459.5" y1="350.7734" y2="350.7734"/><text fill="#000000" font-family="sans-serif" font-size="13" lengthAdjust="spacing" textLength="393" x="55.5" y="345.917">apresenta o pedido de introducao e solicita aprovação/desaprovação</text><polygon fill="#A80036" points="443.5,377.125,453.5,381.125,443.5,385.125,447.5,381.125" style="stroke:#A80036;stroke-width:1.0;"/><line style="stroke:#A80036;stroke-width:1.0;" x1="38.5" x2="449.5" y1="381.125" y2="381.125"/><text fill="#000000" font-family="sans-serif" font-size="13" lengthAdjust="spacing" textLength="234" x="45.5" y="376.2686">aprova/desaprova o pedido de introducao</text><polygon fill="#A80036" points="667.5,407.4766,677.5,411.4766,667.5,415.4766,671.5,411.4766" style="stroke:#A80036;stroke-width:1.0;"/><line style="stroke:#A80036;stroke-width:1.0;" x1="465.5" x2="673.5" y1="411.4766" y2="411.4766"/><text fill="#000000" font-family="sans-serif" font-size="13" lengthAdjust="spacing" textLength="195" x="472.5" y="406.6201">Delete pedido/{utilizador}infoAprov</text><line style="stroke:#A80036;stroke-width:1.0;" x1="689.5" x2="731.5" y1="441.8281" y2="441.8281"/><line style="stroke:#A80036;stroke-width:1.0;" x1="731.5" x2="731.5" y1="441.8281" y2="454.8281"/><line style="stroke:#A80036;stroke-width:1.0;" x1="690.5" x2="731.5" y1="454.8281" y2="454.8281"/><polygon fill="#A80036" points="700.5,450.8281,690.5,454.8281,700.5,458.8281,696.5,454.8281" style="stroke:#A80036;stroke-width:1.0;"/><text fill="#000000" font-family="sans-serif" font-size="13" lengthAdjust="spacing" textLength="220" x="696.5" y="436.9717">serverDataValidation(pedido,infoAprov)</text><line style="stroke:#A80036;stroke-width:1.0;" x1="689.5" x2="731.5" y1="485.1797" y2="485.1797"/><line style="stroke:#A80036;stroke-width:1.0;" x1="731.5" x2="731.5" y1="485.1797" y2="498.1797"/><line style="stroke:#A80036;stroke-width:1.0;" x1="690.5" x2="731.5" y1="498.1797" y2="498.1797"/><polygon fill="#A80036" points="700.5,494.1797,690.5,498.1797,700.5,502.1797,696.5,498.1797" style="stroke:#A80036;stroke-width:1.0;"/><text fill="#000000" font-family="sans-serif" font-size="13" lengthAdjust="spacing" textLength="155" x="696.5" y="480.3232">saveData(pedido,infoAprov)</text><polygon fill="#A80036" points="476.5,524.5313,466.5,528.5313,476.5,532.5313,472.5,528.5313" style="stroke:#A80036;stroke-width:1.0;"/><line style="stroke:#A80036;stroke-width:1.0;stroke-dasharray:2.0,2.0;" x1="470.5" x2="683.5" y1="528.5313" y2="528.5313"/><text fill="#000000" font-family="sans-serif" font-size="13" lengthAdjust="spacing" textLength="44" x="482.5" y="523.6748">202 OK</text><polygon fill="#A80036" points="44.5,554.8828,34.5,558.8828,44.5,562.8828,40.5,558.8828" style="stroke:#A80036;stroke-width:1.0;"/><line style="stroke:#A80036;stroke-width:1.0;stroke-dasharray:2.0,2.0;" x1="38.5" x2="459.5" y1="558.8828" y2="558.8828"/><text fill="#000000" font-family="sans-serif" font-size="13" lengthAdjust="spacing" textLength="336" x="50.5" y="554.0264">confirma o sucesso da aprovacao/desaprovacao do pedido</text><!--MD5=[c983dd09028bb58c202e01d2d8e1e086]
@startuml

actor "Jogador" as jog

participant "<<C4:Container>>Visualizacao" as c4
participant "<<C4:Container>>\n:Rede Social" as S


activate jog

jog -> c4: Solicita a lista de pedidos de introducao pendentes
activate c4
c4->S : Get pedidos/{utilizador}
activate S
S- ->c4:pedidos(JSON)
deactivate S
c4 - -> jog: apresenta a lista de pedidos de introducao pendentes \n e solicita que selecione um
deactivate c4

jog -> c4 : seleciona o pedido de introducao que pretende aprovar/desaprovar         
activate c4
c4->S : Get pedido/{utilizador}
activate S
S- ->c4:pedido(JSON)
deactivate S

c4 - -> jog : apresenta o pedido de introducao e solicita aprovação/desaprovação
deactivate c4

jog -> c4 : aprova/desaprova o pedido de introducao
activate c4
c4->S : Delete pedido/{utilizador}infoAprov
activate S
S->S: serverDataValidation(pedido,infoAprov)
S->S: saveData(pedido,infoAprov)
S- ->c4:202 OK 
deactivate S
c4 - -> jog : confirma o sucesso da aprovacao/desaprovacao do pedido
deactivate c4

deactivate jog


@enduml

PlantUML version 1.2021.11(Sat Oct 02 14:26:11 BST 2021)
(GPL source distribution)
Java Runtime: OpenJDK Runtime Environment
JVM: Dynamic Code Evolution 64-Bit Server VM
Default Encoding: Cp1252
Language: pt
Country: PT
--></g></svg>