<?xml version="1.0" encoding="UTF-8" standalone="no"?><svg xmlns="http://www.w3.org/2000/svg" xmlns:xlink="http://www.w3.org/1999/xlink" contentScriptType="application/ecmascript" contentStyleType="text/css" height="438px" preserveAspectRatio="none" style="width:435px;height:438px;background:#FFFFFF;" version="1.1" viewBox="0 0 435 438" width="435px" zoomAndPan="magnify"><defs><filter height="300%" id="fpktpnkcilggk" width="300%" x="-1" y="-1"><feGaussianBlur result="blurOut" stdDeviation="2.0"/><feColorMatrix in="blurOut" result="blurOut2" type="matrix" values="0 0 0 0 0 0 0 0 0 0 0 0 0 0 0 0 0 0 .4 0"/><feOffset dx="4.0" dy="4.0" in="blurOut2" result="blurOut3"/><feBlend in="SourceGraphic" in2="blurOut3" mode="normal"/></filter></defs><g><rect fill="#FFFFFF" filter="url(#fpktpnkcilggk)" height="221.4609" style="stroke:#A80036;stroke-width:1.0;" width="10" x="28.5" y="121.9609"/><rect fill="#FFFFFF" filter="url(#fpktpnkcilggk)" height="30.3516" style="stroke:#A80036;stroke-width:1.0;" width="10" x="359.5" y="121.9609"/><rect fill="#FFFFFF" filter="url(#fpktpnkcilggk)" height="30.3516" style="stroke:#A80036;stroke-width:1.0;" width="10" x="359.5" y="182.6641"/><rect fill="#FFFFFF" filter="url(#fpktpnkcilggk)" height="30.3516" style="stroke:#A80036;stroke-width:1.0;" width="10" x="359.5" y="243.3672"/><rect fill="#FFFFFF" filter="url(#fpktpnkcilggk)" height="30.3516" style="stroke:#A80036;stroke-width:1.0;" width="10" x="359.5" y="304.0703"/><line style="stroke:#A80036;stroke-width:1.0;stroke-dasharray:5.0,5.0;" x1="33" x2="33" y1="89.6094" y2="352.4219"/><line style="stroke:#A80036;stroke-width:1.0;stroke-dasharray:5.0,5.0;" x1="364.5" x2="364.5" y1="89.6094" y2="352.4219"/><text fill="#000000" font-family="sans-serif" font-size="14" lengthAdjust="spacing" textLength="51" x="5" y="86.5332">Jogador</text><ellipse cx="33.5" cy="15" fill="#FEFECE" filter="url(#fpktpnkcilggk)" rx="8" ry="8" style="stroke:#A80036;stroke-width:2.0;"/><path d="M33.5,23 L33.5,50 M20.5,31 L46.5,31 M33.5,50 L20.5,65 M33.5,50 L46.5,65 " fill="none" filter="url(#fpktpnkcilggk)" style="stroke:#A80036;stroke-width:2.0;"/><text fill="#000000" font-family="sans-serif" font-size="14" lengthAdjust="spacing" textLength="51" x="5" y="365.9551">Jogador</text><ellipse cx="33.5" cy="379.0313" fill="#FEFECE" filter="url(#fpktpnkcilggk)" rx="8" ry="8" style="stroke:#A80036;stroke-width:2.0;"/><path d="M33.5,387.0313 L33.5,414.0313 M20.5,395.0313 L46.5,395.0313 M33.5,414.0313 L20.5,429.0313 M33.5,414.0313 L46.5,429.0313 " fill="none" filter="url(#fpktpnkcilggk)" style="stroke:#A80036;stroke-width:2.0;"/><rect fill="#FEFECE" filter="url(#fpktpnkcilggk)" height="49.2188" style="stroke:#A80036;stroke-width:1.5;" width="118" x="303.5" y="35.3906"/><text fill="#000000" font-family="sans-serif" font-size="14" lengthAdjust="spacing" textLength="104" x="310.5" y="56.9238">&lt;&lt;C4:Sistema&gt;&gt;</text><text fill="#000000" font-family="sans-serif" font-size="14" lengthAdjust="spacing" textLength="80" x="322.5" y="74.5332">:Rede Social</text><rect fill="#FEFECE" filter="url(#fpktpnkcilggk)" height="49.2188" style="stroke:#A80036;stroke-width:1.5;" width="118" x="303.5" y="351.4219"/><text fill="#000000" font-family="sans-serif" font-size="14" lengthAdjust="spacing" textLength="104" x="310.5" y="372.9551">&lt;&lt;C4:Sistema&gt;&gt;</text><text fill="#000000" font-family="sans-serif" font-size="14" lengthAdjust="spacing" textLength="80" x="322.5" y="390.5645">:Rede Social</text><rect fill="#FFFFFF" filter="url(#fpktpnkcilggk)" height="221.4609" style="stroke:#A80036;stroke-width:1.0;" width="10" x="28.5" y="121.9609"/><rect fill="#FFFFFF" filter="url(#fpktpnkcilggk)" height="30.3516" style="stroke:#A80036;stroke-width:1.0;" width="10" x="359.5" y="121.9609"/><rect fill="#FFFFFF" filter="url(#fpktpnkcilggk)" height="30.3516" style="stroke:#A80036;stroke-width:1.0;" width="10" x="359.5" y="182.6641"/><rect fill="#FFFFFF" filter="url(#fpktpnkcilggk)" height="30.3516" style="stroke:#A80036;stroke-width:1.0;" width="10" x="359.5" y="243.3672"/><rect fill="#FFFFFF" filter="url(#fpktpnkcilggk)" height="30.3516" style="stroke:#A80036;stroke-width:1.0;" width="10" x="359.5" y="304.0703"/><polygon fill="#A80036" points="347.5,117.9609,357.5,121.9609,347.5,125.9609,351.5,121.9609" style="stroke:#A80036;stroke-width:1.0;"/><line style="stroke:#A80036;stroke-width:1.0;" x1="38.5" x2="353.5" y1="121.9609" y2="121.9609"/><text fill="#000000" font-family="sans-serif" font-size="13" font-weight="bold" lengthAdjust="spacing" textLength="7" x="45.5" y="117.1045">1</text><text fill="#000000" font-family="sans-serif" font-size="13" lengthAdjust="spacing" textLength="227" x="56.5" y="117.1045">Solicita visualização das suas relações</text><polygon fill="#A80036" points="49.5,148.3125,39.5,152.3125,49.5,156.3125,45.5,152.3125" style="stroke:#A80036;stroke-width:1.0;"/><line style="stroke:#A80036;stroke-width:1.0;stroke-dasharray:2.0,2.0;" x1="43.5" x2="363.5" y1="152.3125" y2="152.3125"/><text fill="#000000" font-family="sans-serif" font-size="13" font-weight="bold" lengthAdjust="spacing" textLength="7" x="55.5" y="147.4561">2</text><text fill="#000000" font-family="sans-serif" font-size="13" lengthAdjust="spacing" textLength="111" x="66.5" y="147.4561">Mostra as relações</text><polygon fill="#A80036" points="347.5,178.6641,357.5,182.6641,347.5,186.6641,351.5,182.6641" style="stroke:#A80036;stroke-width:1.0;"/><line style="stroke:#A80036;stroke-width:1.0;" x1="38.5" x2="353.5" y1="182.6641" y2="182.6641"/><text fill="#000000" font-family="sans-serif" font-size="13" font-weight="bold" lengthAdjust="spacing" textLength="7" x="45.5" y="177.8076">3</text><text fill="#000000" font-family="sans-serif" font-size="13" lengthAdjust="spacing" textLength="103" x="56.5" y="177.8076">Seleciona relação</text><polygon fill="#A80036" points="49.5,209.0156,39.5,213.0156,49.5,217.0156,45.5,213.0156" style="stroke:#A80036;stroke-width:1.0;"/><line style="stroke:#A80036;stroke-width:1.0;stroke-dasharray:2.0,2.0;" x1="43.5" x2="363.5" y1="213.0156" y2="213.0156"/><text fill="#000000" font-family="sans-serif" font-size="13" font-weight="bold" lengthAdjust="spacing" textLength="7" x="55.5" y="208.1592">4</text><text fill="#000000" font-family="sans-serif" font-size="13" lengthAdjust="spacing" textLength="278" x="66.5" y="208.1592">Solicita alteração das tags e da força de ligação</text><polygon fill="#A80036" points="347.5,239.3672,357.5,243.3672,347.5,247.3672,351.5,243.3672" style="stroke:#A80036;stroke-width:1.0;"/><line style="stroke:#A80036;stroke-width:1.0;" x1="38.5" x2="353.5" y1="243.3672" y2="243.3672"/><text fill="#000000" font-family="sans-serif" font-size="13" font-weight="bold" lengthAdjust="spacing" textLength="7" x="45.5" y="238.5107">5</text><text fill="#000000" font-family="sans-serif" font-size="13" lengthAdjust="spacing" textLength="198" x="56.5" y="238.5107">Altera as tags e a força de ligação</text><polygon fill="#A80036" points="49.5,269.7188,39.5,273.7188,49.5,277.7188,45.5,273.7188" style="stroke:#A80036;stroke-width:1.0;"/><line style="stroke:#A80036;stroke-width:1.0;stroke-dasharray:2.0,2.0;" x1="43.5" x2="363.5" y1="273.7188" y2="273.7188"/><text fill="#000000" font-family="sans-serif" font-size="13" font-weight="bold" lengthAdjust="spacing" textLength="7" x="55.5" y="268.8623">6</text><text fill="#000000" font-family="sans-serif" font-size="13" lengthAdjust="spacing" textLength="192" x="66.5" y="268.8623">Solicita confirmação de alteração</text><polygon fill="#A80036" points="347.5,300.0703,357.5,304.0703,347.5,308.0703,351.5,304.0703" style="stroke:#A80036;stroke-width:1.0;"/><line style="stroke:#A80036;stroke-width:1.0;" x1="38.5" x2="353.5" y1="304.0703" y2="304.0703"/><text fill="#000000" font-family="sans-serif" font-size="13" font-weight="bold" lengthAdjust="spacing" textLength="7" x="45.5" y="299.2139">7</text><text fill="#000000" font-family="sans-serif" font-size="13" lengthAdjust="spacing" textLength="108" x="56.5" y="299.2139">Confirma alteração</text><polygon fill="#A80036" points="49.5,330.4219,39.5,334.4219,49.5,338.4219,45.5,334.4219" style="stroke:#A80036;stroke-width:1.0;"/><line style="stroke:#A80036;stroke-width:1.0;stroke-dasharray:2.0,2.0;" x1="43.5" x2="363.5" y1="334.4219" y2="334.4219"/><text fill="#000000" font-family="sans-serif" font-size="13" font-weight="bold" lengthAdjust="spacing" textLength="7" x="55.5" y="329.5654">8</text><text fill="#000000" font-family="sans-serif" font-size="13" lengthAdjust="spacing" textLength="286" x="66.5" y="329.5654">Confirma alteração das tags e da força de ligação</text><!--MD5=[6868cc83d24eca8f270ded4024cf0d12]
@startuml
autonumber

actor "Jogador" as USER
participant "<<C4:Sistema>>\n:Rede Social" as S

USER -> S : Solicita visualização das suas relações
activate USER
activate S

S - -> USER : Mostra as relações
deactivate S

USER -> S : Seleciona relação
activate S

S - -> USER : Solicita alteração das tags e da força de ligação
deactivate S

USER -> S : Altera as tags e a força de ligação

activate S

S - -> USER : Solicita confirmação de alteração
deactivate S

USER -> S : Confirma alteração

activate S

S - -> USER : Confirma alteração das tags e da força de ligação
deactivate S



@enduml

PlantUML version 1.2021.11(Sat Oct 02 14:26:11 BST 2021)
(GPL source distribution)
Java Runtime: OpenJDK Runtime Environment
JVM: Dynamic Code Evolution 64-Bit Server VM
Default Encoding: Cp1252
Language: pt
Country: PT
--></g></svg>