<?xml version="1.0" encoding="UTF-8" standalone="no"?><svg xmlns="http://www.w3.org/2000/svg" xmlns:xlink="http://www.w3.org/1999/xlink" contentScriptType="application/ecmascript" contentStyleType="text/css" height="750px" preserveAspectRatio="none" style="width:882px;height:750px;background:#FFFFFF;" version="1.1" viewBox="0 0 882 750" width="882px" zoomAndPan="magnify"><defs><filter height="300%" id="f1dbp4xomgnbw6" width="300%" x="-1" y="-1"><feGaussianBlur result="blurOut" stdDeviation="2.0"/><feColorMatrix in="blurOut" result="blurOut2" type="matrix" values="0 0 0 0 0 0 0 0 0 0 0 0 0 0 0 0 0 0 .4 0"/><feOffset dx="4.0" dy="4.0" in="blurOut2" result="blurOut3"/><feBlend in="SourceGraphic" in2="blurOut3" mode="normal"/></filter></defs><g><rect fill="#FFFFFF" filter="url(#f1dbp4xomgnbw6)" height="533.625" style="stroke:#A80036;stroke-width:1.0;" width="10" x="28.5" y="121.9609"/><rect fill="#FFFFFF" filter="url(#f1dbp4xomgnbw6)" height="91.0547" style="stroke:#A80036;stroke-width:1.0;" width="10" x="366.5" y="121.9609"/><rect fill="#FFFFFF" filter="url(#f1dbp4xomgnbw6)" height="91.0547" style="stroke:#A80036;stroke-width:1.0;" width="10" x="366.5" y="243.3672"/><rect fill="#FFFFFF" filter="url(#f1dbp4xomgnbw6)" height="73.7031" style="stroke:#A80036;stroke-width:1.0;" width="10" x="366.5" y="364.7734"/><rect fill="#FFFFFF" filter="url(#f1dbp4xomgnbw6)" height="177.7578" style="stroke:#A80036;stroke-width:1.0;" width="10" x="366.5" y="468.8281"/><rect fill="#FFFFFF" filter="url(#f1dbp4xomgnbw6)" height="30.3516" style="stroke:#A80036;stroke-width:1.0;" width="10" x="633.5" y="152.3125"/><rect fill="#FFFFFF" filter="url(#f1dbp4xomgnbw6)" height="30.3516" style="stroke:#A80036;stroke-width:1.0;" width="10" x="633.5" y="273.7188"/><rect fill="#FFFFFF" filter="url(#f1dbp4xomgnbw6)" height="156.4063" style="stroke:#A80036;stroke-width:1.0;" width="10" x="633.5" y="499.1797"/><line style="stroke:#A80036;stroke-width:1.0;stroke-dasharray:5.0,5.0;" x1="33" x2="33" y1="89.6094" y2="664.5859"/><line style="stroke:#A80036;stroke-width:1.0;stroke-dasharray:5.0,5.0;" x1="371.5" x2="371.5" y1="89.6094" y2="664.5859"/><line style="stroke:#A80036;stroke-width:1.0;stroke-dasharray:5.0,5.0;" x1="638.5" x2="638.5" y1="89.6094" y2="664.5859"/><text fill="#000000" font-family="sans-serif" font-size="14" lengthAdjust="spacing" textLength="51" x="5" y="86.5332">Jogador</text><ellipse cx="33.5" cy="15" fill="#FEFECE" filter="url(#f1dbp4xomgnbw6)" rx="8" ry="8" style="stroke:#A80036;stroke-width:2.0;"/><path d="M33.5,23 L33.5,50 M20.5,31 L46.5,31 M33.5,50 L20.5,65 M33.5,50 L46.5,65 " fill="none" filter="url(#f1dbp4xomgnbw6)" style="stroke:#A80036;stroke-width:2.0;"/><text fill="#000000" font-family="sans-serif" font-size="14" lengthAdjust="spacing" textLength="51" x="5" y="678.1191">Jogador</text><ellipse cx="33.5" cy="691.1953" fill="#FEFECE" filter="url(#f1dbp4xomgnbw6)" rx="8" ry="8" style="stroke:#A80036;stroke-width:2.0;"/><path d="M33.5,699.1953 L33.5,726.1953 M20.5,707.1953 L46.5,707.1953 M33.5,726.1953 L20.5,741.1953 M33.5,726.1953 L46.5,741.1953 " fill="none" filter="url(#f1dbp4xomgnbw6)" style="stroke:#A80036;stroke-width:2.0;"/><rect fill="#FEFECE" filter="url(#f1dbp4xomgnbw6)" height="49.2188" style="stroke:#A80036;stroke-width:1.5;" width="130" x="304.5" y="35.3906"/><text fill="#000000" font-family="sans-serif" font-size="14" lengthAdjust="spacing" textLength="116" x="311.5" y="56.9238">&lt;&lt;C4:Container&gt;&gt;</text><text fill="#000000" font-family="sans-serif" font-size="14" lengthAdjust="spacing" textLength="82" x="328.5" y="74.5332">:Visualização</text><rect fill="#FEFECE" filter="url(#f1dbp4xomgnbw6)" height="49.2188" style="stroke:#A80036;stroke-width:1.5;" width="130" x="304.5" y="663.5859"/><text fill="#000000" font-family="sans-serif" font-size="14" lengthAdjust="spacing" textLength="116" x="311.5" y="685.1191">&lt;&lt;C4:Container&gt;&gt;</text><text fill="#000000" font-family="sans-serif" font-size="14" lengthAdjust="spacing" textLength="82" x="328.5" y="702.7285">:Visualização</text><rect fill="#FEFECE" filter="url(#f1dbp4xomgnbw6)" height="49.2188" style="stroke:#A80036;stroke-width:1.5;" width="130" x="571.5" y="35.3906"/><text fill="#000000" font-family="sans-serif" font-size="14" lengthAdjust="spacing" textLength="116" x="578.5" y="56.9238">&lt;&lt;C4:Container&gt;&gt;</text><text fill="#000000" font-family="sans-serif" font-size="14" lengthAdjust="spacing" textLength="80" x="596.5" y="74.5332">:Rede Social</text><rect fill="#FEFECE" filter="url(#f1dbp4xomgnbw6)" height="49.2188" style="stroke:#A80036;stroke-width:1.5;" width="130" x="571.5" y="663.5859"/><text fill="#000000" font-family="sans-serif" font-size="14" lengthAdjust="spacing" textLength="116" x="578.5" y="685.1191">&lt;&lt;C4:Container&gt;&gt;</text><text fill="#000000" font-family="sans-serif" font-size="14" lengthAdjust="spacing" textLength="80" x="596.5" y="702.7285">:Rede Social</text><rect fill="#FFFFFF" filter="url(#f1dbp4xomgnbw6)" height="533.625" style="stroke:#A80036;stroke-width:1.0;" width="10" x="28.5" y="121.9609"/><rect fill="#FFFFFF" filter="url(#f1dbp4xomgnbw6)" height="91.0547" style="stroke:#A80036;stroke-width:1.0;" width="10" x="366.5" y="121.9609"/><rect fill="#FFFFFF" filter="url(#f1dbp4xomgnbw6)" height="91.0547" style="stroke:#A80036;stroke-width:1.0;" width="10" x="366.5" y="243.3672"/><rect fill="#FFFFFF" filter="url(#f1dbp4xomgnbw6)" height="73.7031" style="stroke:#A80036;stroke-width:1.0;" width="10" x="366.5" y="364.7734"/><rect fill="#FFFFFF" filter="url(#f1dbp4xomgnbw6)" height="177.7578" style="stroke:#A80036;stroke-width:1.0;" width="10" x="366.5" y="468.8281"/><rect fill="#FFFFFF" filter="url(#f1dbp4xomgnbw6)" height="30.3516" style="stroke:#A80036;stroke-width:1.0;" width="10" x="633.5" y="152.3125"/><rect fill="#FFFFFF" filter="url(#f1dbp4xomgnbw6)" height="30.3516" style="stroke:#A80036;stroke-width:1.0;" width="10" x="633.5" y="273.7188"/><rect fill="#FFFFFF" filter="url(#f1dbp4xomgnbw6)" height="156.4063" style="stroke:#A80036;stroke-width:1.0;" width="10" x="633.5" y="499.1797"/><polygon fill="#A80036" points="354.5,117.9609,364.5,121.9609,354.5,125.9609,358.5,121.9609" style="stroke:#A80036;stroke-width:1.0;"/><line style="stroke:#A80036;stroke-width:1.0;" x1="38.5" x2="360.5" y1="121.9609" y2="121.9609"/><text fill="#000000" font-family="sans-serif" font-size="13" font-weight="bold" lengthAdjust="spacing" textLength="7" x="45.5" y="117.1045">1</text><text fill="#000000" font-family="sans-serif" font-size="13" lengthAdjust="spacing" textLength="227" x="56.5" y="117.1045">Solicita visualização das suas relações</text><polygon fill="#A80036" points="621.5,148.3125,631.5,152.3125,621.5,156.3125,625.5,152.3125" style="stroke:#A80036;stroke-width:1.0;"/><line style="stroke:#A80036;stroke-width:1.0;" x1="376.5" x2="627.5" y1="152.3125" y2="152.3125"/><text fill="#000000" font-family="sans-serif" font-size="13" font-weight="bold" lengthAdjust="spacing" textLength="7" x="383.5" y="147.4561">2</text><text fill="#000000" font-family="sans-serif" font-size="13" lengthAdjust="spacing" textLength="143" x="394.5" y="147.4561">GET relacoes/{utilizador}</text><polygon fill="#A80036" points="387.5,178.6641,377.5,182.6641,387.5,186.6641,383.5,182.6641" style="stroke:#A80036;stroke-width:1.0;"/><line style="stroke:#A80036;stroke-width:1.0;stroke-dasharray:2.0,2.0;" x1="381.5" x2="637.5" y1="182.6641" y2="182.6641"/><text fill="#000000" font-family="sans-serif" font-size="13" font-weight="bold" lengthAdjust="spacing" textLength="7" x="393.5" y="177.8076">3</text><text fill="#000000" font-family="sans-serif" font-size="13" lengthAdjust="spacing" textLength="95" x="404.5" y="177.8076">relacoes (JSON)</text><polygon fill="#A80036" points="49.5,209.0156,39.5,213.0156,49.5,217.0156,45.5,213.0156" style="stroke:#A80036;stroke-width:1.0;"/><line style="stroke:#A80036;stroke-width:1.0;stroke-dasharray:2.0,2.0;" x1="43.5" x2="370.5" y1="213.0156" y2="213.0156"/><text fill="#000000" font-family="sans-serif" font-size="13" font-weight="bold" lengthAdjust="spacing" textLength="7" x="55.5" y="208.1592">4</text><text fill="#000000" font-family="sans-serif" font-size="13" lengthAdjust="spacing" textLength="111" x="66.5" y="208.1592">Mostra as relações</text><polygon fill="#A80036" points="354.5,239.3672,364.5,243.3672,354.5,247.3672,358.5,243.3672" style="stroke:#A80036;stroke-width:1.0;"/><line style="stroke:#A80036;stroke-width:1.0;" x1="38.5" x2="360.5" y1="243.3672" y2="243.3672"/><text fill="#000000" font-family="sans-serif" font-size="13" font-weight="bold" lengthAdjust="spacing" textLength="7" x="45.5" y="238.5107">5</text><text fill="#000000" font-family="sans-serif" font-size="13" lengthAdjust="spacing" textLength="103" x="56.5" y="238.5107">Seleciona relação</text><polygon fill="#A80036" points="621.5,269.7188,631.5,273.7188,621.5,277.7188,625.5,273.7188" style="stroke:#A80036;stroke-width:1.0;"/><line style="stroke:#A80036;stroke-width:1.0;" x1="376.5" x2="627.5" y1="273.7188" y2="273.7188"/><text fill="#000000" font-family="sans-serif" font-size="13" font-weight="bold" lengthAdjust="spacing" textLength="7" x="383.5" y="268.8623">6</text><text fill="#000000" font-family="sans-serif" font-size="13" lengthAdjust="spacing" textLength="136" x="394.5" y="268.8623">GET relacao/{utilizador}</text><polygon fill="#A80036" points="387.5,300.0703,377.5,304.0703,387.5,308.0703,383.5,304.0703" style="stroke:#A80036;stroke-width:1.0;"/><line style="stroke:#A80036;stroke-width:1.0;stroke-dasharray:2.0,2.0;" x1="381.5" x2="637.5" y1="304.0703" y2="304.0703"/><text fill="#000000" font-family="sans-serif" font-size="13" font-weight="bold" lengthAdjust="spacing" textLength="7" x="393.5" y="299.2139">7</text><text fill="#000000" font-family="sans-serif" font-size="13" lengthAdjust="spacing" textLength="88" x="404.5" y="299.2139">relacao (JSON)</text><polygon fill="#A80036" points="49.5,330.4219,39.5,334.4219,49.5,338.4219,45.5,334.4219" style="stroke:#A80036;stroke-width:1.0;"/><line style="stroke:#A80036;stroke-width:1.0;stroke-dasharray:2.0,2.0;" x1="43.5" x2="370.5" y1="334.4219" y2="334.4219"/><text fill="#000000" font-family="sans-serif" font-size="13" font-weight="bold" lengthAdjust="spacing" textLength="7" x="55.5" y="329.5654">8</text><text fill="#000000" font-family="sans-serif" font-size="13" lengthAdjust="spacing" textLength="278" x="66.5" y="329.5654">Solicita alteração das tags e da força de ligação</text><polygon fill="#A80036" points="354.5,360.7734,364.5,364.7734,354.5,368.7734,358.5,364.7734" style="stroke:#A80036;stroke-width:1.0;"/><line style="stroke:#A80036;stroke-width:1.0;" x1="38.5" x2="360.5" y1="364.7734" y2="364.7734"/><text fill="#000000" font-family="sans-serif" font-size="13" font-weight="bold" lengthAdjust="spacing" textLength="7" x="45.5" y="359.917">9</text><text fill="#000000" font-family="sans-serif" font-size="13" lengthAdjust="spacing" textLength="198" x="56.5" y="359.917">Altera as tags e a força de ligação</text><line style="stroke:#A80036;stroke-width:1.0;" x1="376.5" x2="418.5" y1="395.125" y2="395.125"/><line style="stroke:#A80036;stroke-width:1.0;" x1="418.5" x2="418.5" y1="395.125" y2="408.125"/><line style="stroke:#A80036;stroke-width:1.0;" x1="377.5" x2="418.5" y1="408.125" y2="408.125"/><polygon fill="#A80036" points="387.5,404.125,377.5,408.125,387.5,412.125,383.5,408.125" style="stroke:#A80036;stroke-width:1.0;"/><text fill="#000000" font-family="sans-serif" font-size="13" font-weight="bold" lengthAdjust="spacing" textLength="14" x="383.5" y="390.2686">10</text><text fill="#000000" font-family="sans-serif" font-size="13" lengthAdjust="spacing" textLength="200" x="401.5" y="390.2686">localDataValidation(dados,relacao)</text><polygon fill="#A80036" points="49.5,434.4766,39.5,438.4766,49.5,442.4766,45.5,438.4766" style="stroke:#A80036;stroke-width:1.0;"/><line style="stroke:#A80036;stroke-width:1.0;stroke-dasharray:2.0,2.0;" x1="43.5" x2="370.5" y1="438.4766" y2="438.4766"/><text fill="#000000" font-family="sans-serif" font-size="13" font-weight="bold" lengthAdjust="spacing" textLength="14" x="55.5" y="433.6201">11</text><text fill="#000000" font-family="sans-serif" font-size="13" lengthAdjust="spacing" textLength="192" x="73.5" y="433.6201">Solicita confirmação de alteração</text><polygon fill="#A80036" points="354.5,464.8281,364.5,468.8281,354.5,472.8281,358.5,468.8281" style="stroke:#A80036;stroke-width:1.0;"/><line style="stroke:#A80036;stroke-width:1.0;" x1="38.5" x2="360.5" y1="468.8281" y2="468.8281"/><text fill="#000000" font-family="sans-serif" font-size="13" font-weight="bold" lengthAdjust="spacing" textLength="14" x="45.5" y="463.9717">12</text><text fill="#000000" font-family="sans-serif" font-size="13" lengthAdjust="spacing" textLength="108" x="63.5" y="463.9717">Confirma alteração</text><polygon fill="#A80036" points="621.5,495.1797,631.5,499.1797,621.5,503.1797,625.5,499.1797" style="stroke:#A80036;stroke-width:1.0;"/><line style="stroke:#A80036;stroke-width:1.0;" x1="376.5" x2="627.5" y1="499.1797" y2="499.1797"/><text fill="#000000" font-family="sans-serif" font-size="13" font-weight="bold" lengthAdjust="spacing" textLength="14" x="383.5" y="494.3232">13</text><text fill="#000000" font-family="sans-serif" font-size="13" lengthAdjust="spacing" textLength="220" x="401.5" y="494.3232">PUT relacao/{utilizador} dados-relacao</text><line style="stroke:#A80036;stroke-width:1.0;" x1="643.5" x2="685.5" y1="529.5313" y2="529.5313"/><line style="stroke:#A80036;stroke-width:1.0;" x1="685.5" x2="685.5" y1="529.5313" y2="542.5313"/><line style="stroke:#A80036;stroke-width:1.0;" x1="644.5" x2="685.5" y1="542.5313" y2="542.5313"/><polygon fill="#A80036" points="654.5,538.5313,644.5,542.5313,654.5,546.5313,650.5,542.5313" style="stroke:#A80036;stroke-width:1.0;"/><text fill="#000000" font-family="sans-serif" font-size="13" font-weight="bold" lengthAdjust="spacing" textLength="14" x="650.5" y="524.6748">14</text><text fill="#000000" font-family="sans-serif" font-size="13" lengthAdjust="spacing" textLength="207" x="668.5" y="524.6748">serverDataValidation(dados,relacao)</text><line style="stroke:#A80036;stroke-width:1.0;" x1="643.5" x2="685.5" y1="572.8828" y2="572.8828"/><line style="stroke:#A80036;stroke-width:1.0;" x1="685.5" x2="685.5" y1="572.8828" y2="585.8828"/><line style="stroke:#A80036;stroke-width:1.0;" x1="644.5" x2="685.5" y1="585.8828" y2="585.8828"/><polygon fill="#A80036" points="654.5,581.8828,644.5,585.8828,654.5,589.8828,650.5,585.8828" style="stroke:#A80036;stroke-width:1.0;"/><text fill="#000000" font-family="sans-serif" font-size="13" font-weight="bold" lengthAdjust="spacing" textLength="14" x="650.5" y="568.0264">15</text><text fill="#000000" font-family="sans-serif" font-size="13" lengthAdjust="spacing" textLength="142" x="668.5" y="568.0264">saveData(dados,relacao)</text><polygon fill="#A80036" points="387.5,612.2344,377.5,616.2344,387.5,620.2344,383.5,616.2344" style="stroke:#A80036;stroke-width:1.0;"/><line style="stroke:#A80036;stroke-width:1.0;stroke-dasharray:2.0,2.0;" x1="381.5" x2="632.5" y1="616.2344" y2="616.2344"/><text fill="#000000" font-family="sans-serif" font-size="13" font-weight="bold" lengthAdjust="spacing" textLength="14" x="393.5" y="611.3779">16</text><text fill="#000000" font-family="sans-serif" font-size="13" lengthAdjust="spacing" textLength="44" x="411.5" y="611.3779">202 OK</text><polygon fill="#A80036" points="49.5,642.5859,39.5,646.5859,49.5,650.5859,45.5,646.5859" style="stroke:#A80036;stroke-width:1.0;"/><line style="stroke:#A80036;stroke-width:1.0;stroke-dasharray:2.0,2.0;" x1="43.5" x2="370.5" y1="646.5859" y2="646.5859"/><text fill="#000000" font-family="sans-serif" font-size="13" font-weight="bold" lengthAdjust="spacing" textLength="14" x="55.5" y="641.7295">17</text><text fill="#000000" font-family="sans-serif" font-size="13" lengthAdjust="spacing" textLength="286" x="73.5" y="641.7295">Confirma alteração das tags e da força de ligação</text><!--MD5=[2dc643b05fba2e2c279734cc70ff6ca0]
@startuml
autonumber

actor "Jogador" as USER
participant "<<C4:Container>>\n:Visualização" as V
participant "<<C4:Container>>\n:Rede Social" as S

USER -> V : Solicita visualização das suas relações
activate USER
activate V
V -> S: GET relacoes/{utilizador}
activate S
S - -> V: relacoes (JSON)
deactivate S
V - ->USER: Mostra as relações
deactivate V

USER -> V : Seleciona relação
activate V
V -> S: GET relacao/{utilizador}
activate S
S - -> V: relacao (JSON)
deactivate S
V - -> USER : Solicita alteração das tags e da força de ligação
deactivate V

USER -> V : Altera as tags e a força de ligação
activate V
V -> V: localDataValidation(dados,relacao)

V - -> USER : Solicita confirmação de alteração
deactivate V

USER -> V : Confirma alteração
activate V
V -> S: PUT relacao/{utilizador} dados-relacao
activate S

S->S: serverDataValidation(dados,relacao)
S->S: saveData(dados,relacao)
S - -> V : 202 OK

V - -> USER : Confirma alteração das tags e da força de ligação
deactivate V

@enduml

PlantUML version 1.2021.11(Sat Oct 02 14:26:11 BST 2021)
(GPL source distribution)
Java Runtime: OpenJDK Runtime Environment
JVM: Dynamic Code Evolution 64-Bit Server VM
Default Encoding: Cp1252
Language: pt
Country: PT
--></g></svg>