<?xml version="1.0" encoding="UTF-8" standalone="no"?><svg xmlns="http://www.w3.org/2000/svg" xmlns:xlink="http://www.w3.org/1999/xlink" contentScriptType="application/ecmascript" contentStyleType="text/css" height="377px" preserveAspectRatio="none" style="width:406px;height:377px;background:#FFFFFF;" version="1.1" viewBox="0 0 406 377" width="406px" zoomAndPan="magnify"><defs><filter height="300%" id="fnynea4a4pibi" width="300%" x="-1" y="-1"><feGaussianBlur result="blurOut" stdDeviation="2.0"/><feColorMatrix in="blurOut" result="blurOut2" type="matrix" values="0 0 0 0 0 0 0 0 0 0 0 0 0 0 0 0 0 0 .4 0"/><feOffset dx="4.0" dy="4.0" in="blurOut2" result="blurOut3"/><feBlend in="SourceGraphic" in2="blurOut3" mode="normal"/></filter></defs><g><rect fill="#FFFFFF" filter="url(#fnynea4a4pibi)" height="160.7578" style="stroke:#A80036;stroke-width:1.0;" width="10" x="28.5" y="121.9609"/><rect fill="#FFFFFF" filter="url(#fnynea4a4pibi)" height="30.3516" style="stroke:#A80036;stroke-width:1.0;" width="10" x="330.5" y="121.9609"/><rect fill="#FFFFFF" filter="url(#fnynea4a4pibi)" height="30.3516" style="stroke:#A80036;stroke-width:1.0;" width="10" x="330.5" y="182.6641"/><rect fill="#FFFFFF" filter="url(#fnynea4a4pibi)" height="30.3516" style="stroke:#A80036;stroke-width:1.0;" width="10" x="330.5" y="243.3672"/><line style="stroke:#A80036;stroke-width:1.0;stroke-dasharray:5.0,5.0;" x1="33" x2="33" y1="89.6094" y2="291.7188"/><line style="stroke:#A80036;stroke-width:1.0;stroke-dasharray:5.0,5.0;" x1="335.5" x2="335.5" y1="89.6094" y2="291.7188"/><text fill="#000000" font-family="sans-serif" font-size="14" lengthAdjust="spacing" textLength="51" x="5" y="86.5332">Jogador</text><ellipse cx="33.5" cy="15" fill="#FEFECE" filter="url(#fnynea4a4pibi)" rx="8" ry="8" style="stroke:#A80036;stroke-width:2.0;"/><path d="M33.5,23 L33.5,50 M20.5,31 L46.5,31 M33.5,50 L20.5,65 M33.5,50 L46.5,65 " fill="none" filter="url(#fnynea4a4pibi)" style="stroke:#A80036;stroke-width:2.0;"/><text fill="#000000" font-family="sans-serif" font-size="14" lengthAdjust="spacing" textLength="51" x="5" y="305.252">Jogador</text><ellipse cx="33.5" cy="318.3281" fill="#FEFECE" filter="url(#fnynea4a4pibi)" rx="8" ry="8" style="stroke:#A80036;stroke-width:2.0;"/><path d="M33.5,326.3281 L33.5,353.3281 M20.5,334.3281 L46.5,334.3281 M33.5,353.3281 L20.5,368.3281 M33.5,353.3281 L46.5,368.3281 " fill="none" filter="url(#fnynea4a4pibi)" style="stroke:#A80036;stroke-width:2.0;"/><rect fill="#FEFECE" filter="url(#fnynea4a4pibi)" height="49.2188" style="stroke:#A80036;stroke-width:1.5;" width="118" x="274.5" y="35.3906"/><text fill="#000000" font-family="sans-serif" font-size="14" lengthAdjust="spacing" textLength="104" x="281.5" y="56.9238">&lt;&lt;C4:Sistema&gt;&gt;</text><text fill="#000000" font-family="sans-serif" font-size="14" lengthAdjust="spacing" textLength="80" x="293.5" y="74.5332">:Rede Social</text><rect fill="#FEFECE" filter="url(#fnynea4a4pibi)" height="49.2188" style="stroke:#A80036;stroke-width:1.5;" width="118" x="274.5" y="290.7188"/><text fill="#000000" font-family="sans-serif" font-size="14" lengthAdjust="spacing" textLength="104" x="281.5" y="312.252">&lt;&lt;C4:Sistema&gt;&gt;</text><text fill="#000000" font-family="sans-serif" font-size="14" lengthAdjust="spacing" textLength="80" x="293.5" y="329.8613">:Rede Social</text><rect fill="#FFFFFF" filter="url(#fnynea4a4pibi)" height="160.7578" style="stroke:#A80036;stroke-width:1.0;" width="10" x="28.5" y="121.9609"/><rect fill="#FFFFFF" filter="url(#fnynea4a4pibi)" height="30.3516" style="stroke:#A80036;stroke-width:1.0;" width="10" x="330.5" y="121.9609"/><rect fill="#FFFFFF" filter="url(#fnynea4a4pibi)" height="30.3516" style="stroke:#A80036;stroke-width:1.0;" width="10" x="330.5" y="182.6641"/><rect fill="#FFFFFF" filter="url(#fnynea4a4pibi)" height="30.3516" style="stroke:#A80036;stroke-width:1.0;" width="10" x="330.5" y="243.3672"/><polygon fill="#A80036" points="318.5,117.9609,328.5,121.9609,318.5,125.9609,322.5,121.9609" style="stroke:#A80036;stroke-width:1.0;"/><line style="stroke:#A80036;stroke-width:1.0;" x1="38.5" x2="324.5" y1="121.9609" y2="121.9609"/><text fill="#000000" font-family="sans-serif" font-size="13" font-weight="bold" lengthAdjust="spacing" textLength="7" x="45.5" y="117.1045">1</text><text fill="#000000" font-family="sans-serif" font-size="13" lengthAdjust="spacing" textLength="225" x="56.5" y="117.1045">Inicia a consulta em perspetiva da rede</text><polygon fill="#A80036" points="49.5,148.3125,39.5,152.3125,49.5,156.3125,45.5,152.3125" style="stroke:#A80036;stroke-width:1.0;"/><line style="stroke:#A80036;stroke-width:1.0;stroke-dasharray:2.0,2.0;" x1="43.5" x2="334.5" y1="152.3125" y2="152.3125"/><text fill="#000000" font-family="sans-serif" font-size="13" font-weight="bold" lengthAdjust="spacing" textLength="7" x="55.5" y="147.4561">2</text><text fill="#000000" font-family="sans-serif" font-size="13" lengthAdjust="spacing" textLength="257" x="66.5" y="147.4561">Solicita qual o nível de separação pretendido</text><polygon fill="#A80036" points="318.5,178.6641,328.5,182.6641,318.5,186.6641,322.5,182.6641" style="stroke:#A80036;stroke-width:1.0;"/><line style="stroke:#A80036;stroke-width:1.0;" x1="38.5" x2="324.5" y1="182.6641" y2="182.6641"/><text fill="#000000" font-family="sans-serif" font-size="13" font-weight="bold" lengthAdjust="spacing" textLength="7" x="45.5" y="177.8076">3</text><text fill="#000000" font-family="sans-serif" font-size="13" lengthAdjust="spacing" textLength="86" x="56.5" y="177.8076">Introduz o nível</text><polygon fill="#A80036" points="49.5,209.0156,39.5,213.0156,49.5,217.0156,45.5,213.0156" style="stroke:#A80036;stroke-width:1.0;"/><line style="stroke:#A80036;stroke-width:1.0;stroke-dasharray:2.0,2.0;" x1="43.5" x2="334.5" y1="213.0156" y2="213.0156"/><text fill="#000000" font-family="sans-serif" font-size="13" font-weight="bold" lengthAdjust="spacing" textLength="7" x="55.5" y="208.1592">4</text><text fill="#000000" font-family="sans-serif" font-size="13" lengthAdjust="spacing" textLength="164" x="66.5" y="208.1592">Solicita confirmação do nível</text><polygon fill="#A80036" points="318.5,239.3672,328.5,243.3672,318.5,247.3672,322.5,243.3672" style="stroke:#A80036;stroke-width:1.0;"/><line style="stroke:#A80036;stroke-width:1.0;" x1="38.5" x2="324.5" y1="243.3672" y2="243.3672"/><text fill="#000000" font-family="sans-serif" font-size="13" font-weight="bold" lengthAdjust="spacing" textLength="7" x="45.5" y="238.5107">5</text><text fill="#000000" font-family="sans-serif" font-size="13" lengthAdjust="spacing" textLength="51" x="56.5" y="238.5107">Confirma</text><polygon fill="#A80036" points="49.5,269.7188,39.5,273.7188,49.5,277.7188,45.5,273.7188" style="stroke:#A80036;stroke-width:1.0;"/><line style="stroke:#A80036;stroke-width:1.0;stroke-dasharray:2.0,2.0;" x1="43.5" x2="334.5" y1="273.7188" y2="273.7188"/><text fill="#000000" font-family="sans-serif" font-size="13" font-weight="bold" lengthAdjust="spacing" textLength="7" x="55.5" y="268.8623">6</text><text fill="#000000" font-family="sans-serif" font-size="13" lengthAdjust="spacing" textLength="164" x="66.5" y="268.8623">Mostra a rede em perspetiva</text><!--MD5=[8e72507ba07d3159e197318c5f5974e0]
@startuml
autonumber

actor "Jogador" as USER
participant "<<C4:Sistema>>\n:Rede Social" as S

USER -> S : Inicia a consulta em perspetiva da rede
activate USER
activate S

S - -> USER : Solicita qual o nível de separação pretendido
deactivate S

USER -> S : Introduz o nível
activate S

S - -> USER : Solicita confirmação do nível
deactivate S

USER -> S : Confirma

activate S

S - -> USER : Mostra a rede em perspetiva
deactivate S

@enduml

PlantUML version 1.2021.11(Sat Oct 02 14:26:11 BST 2021)
(GPL source distribution)
Java Runtime: OpenJDK Runtime Environment
JVM: Dynamic Code Evolution 64-Bit Server VM
Default Encoding: Cp1252
Language: pt
Country: PT
--></g></svg>