<?xml version="1.0" encoding="UTF-8" standalone="no"?><svg xmlns="http://www.w3.org/2000/svg" xmlns:xlink="http://www.w3.org/1999/xlink" contentScriptType="application/ecmascript" contentStyleType="text/css" height="559px" preserveAspectRatio="none" style="width:556px;height:559px;background:#FFFFFF;" version="1.1" viewBox="0 0 556 559" width="556px" zoomAndPan="magnify"><defs><filter height="300%" id="f4dfj349yzb3f" width="300%" x="-1" y="-1"><feGaussianBlur result="blurOut" stdDeviation="2.0"/><feColorMatrix in="blurOut" result="blurOut2" type="matrix" values="0 0 0 0 0 0 0 0 0 0 0 0 0 0 0 0 0 0 .4 0"/><feOffset dx="4.0" dy="4.0" in="blurOut2" result="blurOut3"/><feBlend in="SourceGraphic" in2="blurOut3" mode="normal"/></filter></defs><g><rect fill="#FFFFFF" filter="url(#f4dfj349yzb3f)" height="356.2188" style="stroke:#A80036;stroke-width:1.0;" width="10" x="28.5" y="99.6094"/><rect fill="#FFFFFF" filter="url(#f4dfj349yzb3f)" height="30.3516" style="stroke:#A80036;stroke-width:1.0;" width="10" x="465.5" y="121.9609"/><rect fill="#FFFFFF" filter="url(#f4dfj349yzb3f)" height="30.3516" style="stroke:#A80036;stroke-width:1.0;" width="10" x="465.5" y="182.6641"/><rect fill="#FFFFFF" filter="url(#f4dfj349yzb3f)" height="30.3516" style="stroke:#A80036;stroke-width:1.0;" width="10" x="465.5" y="243.3672"/><rect fill="#FFFFFF" filter="url(#f4dfj349yzb3f)" height="30.3516" style="stroke:#A80036;stroke-width:1.0;" width="10" x="465.5" y="304.0703"/><rect fill="#FFFFFF" filter="url(#f4dfj349yzb3f)" height="30.3516" style="stroke:#A80036;stroke-width:1.0;" width="10" x="465.5" y="364.7734"/><rect fill="#FFFFFF" filter="url(#f4dfj349yzb3f)" height="30.3516" style="stroke:#A80036;stroke-width:1.0;" width="10" x="465.5" y="425.4766"/><line style="stroke:#A80036;stroke-width:1.0;stroke-dasharray:5.0,5.0;" x1="33" x2="33" y1="89.6094" y2="473.8281"/><line style="stroke:#A80036;stroke-width:1.0;stroke-dasharray:5.0,5.0;" x1="470.5" x2="470.5" y1="89.6094" y2="473.8281"/><text fill="#000000" font-family="sans-serif" font-size="14" lengthAdjust="spacing" textLength="51" x="5" y="86.5332">Jogador</text><ellipse cx="33.5" cy="15" fill="#FEFECE" filter="url(#f4dfj349yzb3f)" rx="8" ry="8" style="stroke:#A80036;stroke-width:2.0;"/><path d="M33.5,23 L33.5,50 M20.5,31 L46.5,31 M33.5,50 L20.5,65 M33.5,50 L46.5,65 " fill="none" filter="url(#f4dfj349yzb3f)" style="stroke:#A80036;stroke-width:2.0;"/><text fill="#000000" font-family="sans-serif" font-size="14" lengthAdjust="spacing" textLength="51" x="5" y="487.3613">Jogador</text><ellipse cx="33.5" cy="500.4375" fill="#FEFECE" filter="url(#f4dfj349yzb3f)" rx="8" ry="8" style="stroke:#A80036;stroke-width:2.0;"/><path d="M33.5,508.4375 L33.5,535.4375 M20.5,516.4375 L46.5,516.4375 M33.5,535.4375 L20.5,550.4375 M33.5,535.4375 L46.5,550.4375 " fill="none" filter="url(#f4dfj349yzb3f)" style="stroke:#A80036;stroke-width:2.0;"/><rect fill="#FEFECE" filter="url(#f4dfj349yzb3f)" height="49.2188" style="stroke:#A80036;stroke-width:1.5;" width="148" x="394.5" y="35.3906"/><text fill="#000000" font-family="sans-serif" font-size="14" lengthAdjust="spacing" textLength="100" x="418.5" y="56.9238">&lt;&lt;C4:System&gt;&gt;</text><text fill="#000000" font-family="sans-serif" font-size="14" lengthAdjust="spacing" textLength="134" x="401.5" y="74.5332">Social Network Game</text><rect fill="#FEFECE" filter="url(#f4dfj349yzb3f)" height="49.2188" style="stroke:#A80036;stroke-width:1.5;" width="148" x="394.5" y="472.8281"/><text fill="#000000" font-family="sans-serif" font-size="14" lengthAdjust="spacing" textLength="100" x="418.5" y="494.3613">&lt;&lt;C4:System&gt;&gt;</text><text fill="#000000" font-family="sans-serif" font-size="14" lengthAdjust="spacing" textLength="134" x="401.5" y="511.9707">Social Network Game</text><rect fill="#FFFFFF" filter="url(#f4dfj349yzb3f)" height="356.2188" style="stroke:#A80036;stroke-width:1.0;" width="10" x="28.5" y="99.6094"/><rect fill="#FFFFFF" filter="url(#f4dfj349yzb3f)" height="30.3516" style="stroke:#A80036;stroke-width:1.0;" width="10" x="465.5" y="121.9609"/><rect fill="#FFFFFF" filter="url(#f4dfj349yzb3f)" height="30.3516" style="stroke:#A80036;stroke-width:1.0;" width="10" x="465.5" y="182.6641"/><rect fill="#FFFFFF" filter="url(#f4dfj349yzb3f)" height="30.3516" style="stroke:#A80036;stroke-width:1.0;" width="10" x="465.5" y="243.3672"/><rect fill="#FFFFFF" filter="url(#f4dfj349yzb3f)" height="30.3516" style="stroke:#A80036;stroke-width:1.0;" width="10" x="465.5" y="304.0703"/><rect fill="#FFFFFF" filter="url(#f4dfj349yzb3f)" height="30.3516" style="stroke:#A80036;stroke-width:1.0;" width="10" x="465.5" y="364.7734"/><rect fill="#FFFFFF" filter="url(#f4dfj349yzb3f)" height="30.3516" style="stroke:#A80036;stroke-width:1.0;" width="10" x="465.5" y="425.4766"/><polygon fill="#A80036" points="453.5,117.9609,463.5,121.9609,453.5,125.9609,457.5,121.9609" style="stroke:#A80036;stroke-width:1.0;"/><line style="stroke:#A80036;stroke-width:1.0;" x1="38.5" x2="459.5" y1="121.9609" y2="121.9609"/><text fill="#000000" font-family="sans-serif" font-size="13" font-weight="bold" lengthAdjust="spacing" textLength="7" x="45.5" y="117.1045">1</text><text fill="#000000" font-family="sans-serif" font-size="13" lengthAdjust="spacing" textLength="203" x="56.5" y="117.1045">Prentende obter um jogado objetivo</text><polygon fill="#A80036" points="49.5,148.3125,39.5,152.3125,49.5,156.3125,45.5,152.3125" style="stroke:#A80036;stroke-width:1.0;"/><line style="stroke:#A80036;stroke-width:1.0;stroke-dasharray:2.0,2.0;" x1="43.5" x2="469.5" y1="152.3125" y2="152.3125"/><text fill="#000000" font-family="sans-serif" font-size="13" font-weight="bold" lengthAdjust="spacing" textLength="7" x="55.5" y="147.4561">2</text><text fill="#000000" font-family="sans-serif" font-size="13" lengthAdjust="spacing" textLength="156" x="66.5" y="147.4561">Sugere um jogador objetivo</text><polygon fill="#A80036" points="453.5,178.6641,463.5,182.6641,453.5,186.6641,457.5,182.6641" style="stroke:#A80036;stroke-width:1.0;"/><line style="stroke:#A80036;stroke-width:1.0;" x1="38.5" x2="459.5" y1="182.6641" y2="182.6641"/><text fill="#000000" font-family="sans-serif" font-size="13" font-weight="bold" lengthAdjust="spacing" textLength="7" x="45.5" y="177.8076">3</text><text fill="#000000" font-family="sans-serif" font-size="13" lengthAdjust="spacing" textLength="373" x="56.5" y="177.8076">Escolhe um jogador intermédio para se ligar e chegar ao objetivo</text><polygon fill="#A80036" points="49.5,209.0156,39.5,213.0156,49.5,217.0156,45.5,213.0156" style="stroke:#A80036;stroke-width:1.0;"/><line style="stroke:#A80036;stroke-width:1.0;stroke-dasharray:2.0,2.0;" x1="43.5" x2="469.5" y1="213.0156" y2="213.0156"/><text fill="#000000" font-family="sans-serif" font-size="13" font-weight="bold" lengthAdjust="spacing" textLength="7" x="55.5" y="208.1592">4</text><text fill="#000000" font-family="sans-serif" font-size="13" lengthAdjust="spacing" textLength="274" x="66.5" y="208.1592">Mostra lista de jogadores intermédios possíveis</text><polygon fill="#A80036" points="453.5,239.3672,463.5,243.3672,453.5,247.3672,457.5,243.3672" style="stroke:#A80036;stroke-width:1.0;"/><line style="stroke:#A80036;stroke-width:1.0;" x1="38.5" x2="459.5" y1="243.3672" y2="243.3672"/><text fill="#000000" font-family="sans-serif" font-size="13" font-weight="bold" lengthAdjust="spacing" textLength="7" x="45.5" y="238.5107">5</text><text fill="#000000" font-family="sans-serif" font-size="13" lengthAdjust="spacing" textLength="397" x="56.5" y="238.5107">Seleciona um amigo para que este o introduza ao jogador intermédio</text><polygon fill="#A80036" points="49.5,269.7188,39.5,273.7188,49.5,277.7188,45.5,273.7188" style="stroke:#A80036;stroke-width:1.0;"/><line style="stroke:#A80036;stroke-width:1.0;stroke-dasharray:2.0,2.0;" x1="43.5" x2="469.5" y1="273.7188" y2="273.7188"/><text fill="#000000" font-family="sans-serif" font-size="13" font-weight="bold" lengthAdjust="spacing" textLength="7" x="55.5" y="268.8623">6</text><text fill="#000000" font-family="sans-serif" font-size="13" lengthAdjust="spacing" textLength="189" x="66.5" y="268.8623">Mostra lista de amigos possíveis</text><polygon fill="#A80036" points="453.5,300.0703,463.5,304.0703,453.5,308.0703,457.5,304.0703" style="stroke:#A80036;stroke-width:1.0;"/><line style="stroke:#A80036;stroke-width:1.0;" x1="38.5" x2="459.5" y1="304.0703" y2="304.0703"/><text fill="#000000" font-family="sans-serif" font-size="13" font-weight="bold" lengthAdjust="spacing" textLength="7" x="45.5" y="299.2139">7</text><text fill="#000000" font-family="sans-serif" font-size="13" lengthAdjust="spacing" textLength="114" x="56.5" y="299.2139">Escolhe o utilizador</text><polygon fill="#A80036" points="49.5,330.4219,39.5,334.4219,49.5,338.4219,45.5,334.4219" style="stroke:#A80036;stroke-width:1.0;"/><line style="stroke:#A80036;stroke-width:1.0;stroke-dasharray:2.0,2.0;" x1="43.5" x2="469.5" y1="334.4219" y2="334.4219"/><text fill="#000000" font-family="sans-serif" font-size="13" font-weight="bold" lengthAdjust="spacing" textLength="7" x="55.5" y="329.5654">8</text><text fill="#000000" font-family="sans-serif" font-size="13" lengthAdjust="spacing" textLength="158" x="66.5" y="329.5654">Solicita texto de introdução</text><polygon fill="#A80036" points="453.5,360.7734,463.5,364.7734,453.5,368.7734,457.5,364.7734" style="stroke:#A80036;stroke-width:1.0;"/><line style="stroke:#A80036;stroke-width:1.0;" x1="38.5" x2="459.5" y1="364.7734" y2="364.7734"/><text fill="#000000" font-family="sans-serif" font-size="13" font-weight="bold" lengthAdjust="spacing" textLength="7" x="45.5" y="359.917">9</text><text fill="#000000" font-family="sans-serif" font-size="13" lengthAdjust="spacing" textLength="181" x="56.5" y="359.917">Preenche o texto de introdução</text><polygon fill="#A80036" points="49.5,391.125,39.5,395.125,49.5,399.125,45.5,395.125" style="stroke:#A80036;stroke-width:1.0;"/><line style="stroke:#A80036;stroke-width:1.0;stroke-dasharray:2.0,2.0;" x1="43.5" x2="469.5" y1="395.125" y2="395.125"/><text fill="#000000" font-family="sans-serif" font-size="13" font-weight="bold" lengthAdjust="spacing" textLength="14" x="55.5" y="390.2686">10</text><text fill="#000000" font-family="sans-serif" font-size="13" lengthAdjust="spacing" textLength="117" x="73.5" y="390.2686">Solicita confirmação</text><polygon fill="#A80036" points="453.5,421.4766,463.5,425.4766,453.5,429.4766,457.5,425.4766" style="stroke:#A80036;stroke-width:1.0;"/><line style="stroke:#A80036;stroke-width:1.0;" x1="38.5" x2="459.5" y1="425.4766" y2="425.4766"/><text fill="#000000" font-family="sans-serif" font-size="13" font-weight="bold" lengthAdjust="spacing" textLength="14" x="45.5" y="420.6201">11</text><text fill="#000000" font-family="sans-serif" font-size="13" lengthAdjust="spacing" textLength="175" x="63.5" y="420.6201">Confirma pedido de introdução</text><polygon fill="#A80036" points="44.5,451.8281,34.5,455.8281,44.5,459.8281,40.5,455.8281" style="stroke:#A80036;stroke-width:1.0;"/><line style="stroke:#A80036;stroke-width:1.0;stroke-dasharray:2.0,2.0;" x1="38.5" x2="469.5" y1="455.8281" y2="455.8281"/><text fill="#000000" font-family="sans-serif" font-size="13" font-weight="bold" lengthAdjust="spacing" textLength="14" x="50.5" y="450.9717">12</text><text fill="#000000" font-family="sans-serif" font-size="13" lengthAdjust="spacing" textLength="178" x="68.5" y="450.9717">Pedido realizado com sucesso</text><!--MD5=[d146d471fe0b1148d60057da482b2066]
@startuml
autonumber

actor "Jogador" as USER
participant "<<C4:System>>\nSocial Network Game" as SYSTEM

activate USER

USER -> SYSTEM: Prentende obter um jogado objetivo

activate SYSTEM

SYSTEM - -> USER: Sugere um jogador objetivo

deactivate SYSTEM

USER -> SYSTEM: Escolhe um jogador intermédio para se ligar e chegar ao objetivo

activate SYSTEM

SYSTEM - -> USER: Mostra lista de jogadores intermédios possíveis

deactivate SYSTEM

USER -> SYSTEM: Seleciona um amigo para que este o introduza ao jogador intermédio

activate SYSTEM

SYSTEM - -> USER: Mostra lista de amigos possíveis

deactivate SYSTEM

USER -> SYSTEM: Escolhe o utilizador

activate SYSTEM

SYSTEM - -> USER: Solicita texto de introdução

deactivate SYSTEM

USER -> SYSTEM: Preenche o texto de introdução

activate SYSTEM

SYSTEM - -> USER: Solicita confirmação

deactivate SYSTEM

USER -> SYSTEM:  Confirma pedido de introdução

activate SYSTEM

SYSTEM - -> USER: Pedido realizado com sucesso

deactivate SYSTEM


deactivate USER
@enduml

PlantUML version 1.2021.11(Sat Oct 02 14:26:11 BST 2021)
(GPL source distribution)
Java Runtime: OpenJDK Runtime Environment
JVM: Dynamic Code Evolution 64-Bit Server VM
Default Encoding: Cp1252
Language: pt
Country: PT
--></g></svg>