<?xml version="1.0" encoding="UTF-8" standalone="no"?><svg xmlns="http://www.w3.org/2000/svg" xmlns:xlink="http://www.w3.org/1999/xlink" contentScriptType="application/ecmascript" contentStyleType="text/css" height="600px" preserveAspectRatio="none" style="width:894px;height:600px;background:#FFFFFF;" version="1.1" viewBox="0 0 894 600" width="894px" zoomAndPan="magnify"><defs><filter height="300%" id="f64ejvhm9hw7q" width="300%" x="-1" y="-1"><feGaussianBlur result="blurOut" stdDeviation="2.0"/><feColorMatrix in="blurOut" result="blurOut2" type="matrix" values="0 0 0 0 0 0 0 0 0 0 0 0 0 0 0 0 0 0 .4 0"/><feOffset dx="4.0" dy="4.0" in="blurOut2" result="blurOut3"/><feBlend in="SourceGraphic" in2="blurOut3" mode="normal"/></filter></defs><g><rect fill="#FFFFFF" filter="url(#f64ejvhm9hw7q)" height="397.5703" style="stroke:#A80036;stroke-width:1.0;" width="10" x="77.5" y="99.6094"/><rect fill="#FFFFFF" filter="url(#f64ejvhm9hw7q)" height="46.7031" style="stroke:#A80036;stroke-width:1.0;" width="10" x="414.5" y="121.9609"/><rect fill="#FFFFFF" filter="url(#f64ejvhm9hw7q)" height="90.0547" style="stroke:#A80036;stroke-width:1.0;" width="10" x="414.5" y="199.0156"/><rect fill="#FFFFFF" filter="url(#f64ejvhm9hw7q)" height="177.7578" style="stroke:#A80036;stroke-width:1.0;" width="10" x="414.5" y="319.4219"/><rect fill="#FFFFFF" filter="url(#f64ejvhm9hw7q)" height="117.0547" style="stroke:#A80036;stroke-width:1.0;" width="10" x="705.5" y="349.7734"/><line style="stroke:#A80036;stroke-width:1.0;stroke-dasharray:5.0,5.0;" x1="82" x2="82" y1="89.6094" y2="515.1797"/><line style="stroke:#A80036;stroke-width:1.0;stroke-dasharray:5.0,5.0;" x1="419.5" x2="419.5" y1="89.6094" y2="515.1797"/><line style="stroke:#A80036;stroke-width:1.0;stroke-dasharray:5.0,5.0;" x1="710.5" x2="710.5" y1="89.6094" y2="515.1797"/><text fill="#000000" font-family="sans-serif" font-size="14" lengthAdjust="spacing" textLength="149" x="5" y="86.5332">Utilizador Não registado</text><ellipse cx="82.5" cy="15" fill="#FEFECE" filter="url(#f64ejvhm9hw7q)" rx="8" ry="8" style="stroke:#A80036;stroke-width:2.0;"/><path d="M82.5,23 L82.5,50 M69.5,31 L95.5,31 M82.5,50 L69.5,65 M82.5,50 L95.5,65 " fill="none" filter="url(#f64ejvhm9hw7q)" style="stroke:#A80036;stroke-width:2.0;"/><text fill="#000000" font-family="sans-serif" font-size="14" lengthAdjust="spacing" textLength="149" x="5" y="528.7129">Utilizador Não registado</text><ellipse cx="82.5" cy="541.7891" fill="#FEFECE" filter="url(#f64ejvhm9hw7q)" rx="8" ry="8" style="stroke:#A80036;stroke-width:2.0;"/><path d="M82.5,549.7891 L82.5,576.7891 M69.5,557.7891 L95.5,557.7891 M82.5,576.7891 L69.5,591.7891 M82.5,576.7891 L95.5,591.7891 " fill="none" filter="url(#f64ejvhm9hw7q)" style="stroke:#A80036;stroke-width:2.0;"/><rect fill="#FEFECE" filter="url(#f64ejvhm9hw7q)" height="31.6094" style="stroke:#A80036;stroke-width:1.5;" width="212" x="311.5" y="53"/><text fill="#000000" font-family="sans-serif" font-size="14" lengthAdjust="spacing" textLength="198" x="318.5" y="74.5332">&lt;&lt;C4:Container&gt;&gt; Visualização</text><rect fill="#FEFECE" filter="url(#f64ejvhm9hw7q)" height="31.6094" style="stroke:#A80036;stroke-width:1.5;" width="212" x="311.5" y="514.1797"/><text fill="#000000" font-family="sans-serif" font-size="14" lengthAdjust="spacing" textLength="198" x="318.5" y="535.7129">&lt;&lt;C4:Container&gt;&gt; Visualização</text><rect fill="#FEFECE" filter="url(#f64ejvhm9hw7q)" height="31.6094" style="stroke:#A80036;stroke-width:1.5;" width="210" x="603.5" y="53"/><text fill="#000000" font-family="sans-serif" font-size="14" lengthAdjust="spacing" textLength="196" x="610.5" y="74.5332">&lt;&lt;C4:Container&gt;&gt; Rede Social</text><rect fill="#FEFECE" filter="url(#f64ejvhm9hw7q)" height="31.6094" style="stroke:#A80036;stroke-width:1.5;" width="210" x="603.5" y="514.1797"/><text fill="#000000" font-family="sans-serif" font-size="14" lengthAdjust="spacing" textLength="196" x="610.5" y="535.7129">&lt;&lt;C4:Container&gt;&gt; Rede Social</text><rect fill="#FFFFFF" filter="url(#f64ejvhm9hw7q)" height="397.5703" style="stroke:#A80036;stroke-width:1.0;" width="10" x="77.5" y="99.6094"/><rect fill="#FFFFFF" filter="url(#f64ejvhm9hw7q)" height="46.7031" style="stroke:#A80036;stroke-width:1.0;" width="10" x="414.5" y="121.9609"/><rect fill="#FFFFFF" filter="url(#f64ejvhm9hw7q)" height="90.0547" style="stroke:#A80036;stroke-width:1.0;" width="10" x="414.5" y="199.0156"/><rect fill="#FFFFFF" filter="url(#f64ejvhm9hw7q)" height="177.7578" style="stroke:#A80036;stroke-width:1.0;" width="10" x="414.5" y="319.4219"/><rect fill="#FFFFFF" filter="url(#f64ejvhm9hw7q)" height="117.0547" style="stroke:#A80036;stroke-width:1.0;" width="10" x="705.5" y="349.7734"/><polygon fill="#A80036" points="402.5,117.9609,412.5,121.9609,402.5,125.9609,406.5,121.9609" style="stroke:#A80036;stroke-width:1.0;"/><line style="stroke:#A80036;stroke-width:1.0;" x1="87.5" x2="408.5" y1="121.9609" y2="121.9609"/><text fill="#000000" font-family="sans-serif" font-size="13" lengthAdjust="spacing" textLength="201" x="94.5" y="117.1045">Inicia o seu registo como utilizador</text><polygon fill="#A80036" points="98.5,164.6641,88.5,168.6641,98.5,172.6641,94.5,168.6641" style="stroke:#A80036;stroke-width:1.0;"/><line style="stroke:#A80036;stroke-width:1.0;stroke-dasharray:2.0,2.0;" x1="92.5" x2="418.5" y1="168.6641" y2="168.6641"/><text fill="#000000" font-family="sans-serif" font-size="13" lengthAdjust="spacing" textLength="299" x="104.5" y="147.4561">solicita os dados necessários para o registo (nome,</text><text fill="#000000" font-family="sans-serif" font-size="13" lengthAdjust="spacing" textLength="261" x="108.5" y="163.8076">telefone, email, data de nascimento, morada)</text><polygon fill="#A80036" points="402.5,195.0156,412.5,199.0156,402.5,203.0156,406.5,199.0156" style="stroke:#A80036;stroke-width:1.0;"/><line style="stroke:#A80036;stroke-width:1.0;" x1="87.5" x2="408.5" y1="199.0156" y2="199.0156"/><text fill="#000000" font-family="sans-serif" font-size="13" lengthAdjust="spacing" textLength="92" x="94.5" y="194.1592">insere os dados</text><line style="stroke:#A80036;stroke-width:1.0;" x1="424.5" x2="466.5" y1="245.7188" y2="245.7188"/><line style="stroke:#A80036;stroke-width:1.0;" x1="466.5" x2="466.5" y1="245.7188" y2="258.7188"/><line style="stroke:#A80036;stroke-width:1.0;" x1="425.5" x2="466.5" y1="258.7188" y2="258.7188"/><polygon fill="#A80036" points="435.5,254.7188,425.5,258.7188,435.5,262.7188,431.5,258.7188" style="stroke:#A80036;stroke-width:1.0;"/><text fill="#000000" font-family="sans-serif" font-size="13" lengthAdjust="spacing" textLength="263" x="431.5" y="224.5107">localValidateUserInformation(nome, password</text><text fill="#000000" font-family="sans-serif" font-size="13" lengthAdjust="spacing" textLength="258" x="431.5" y="240.8623">, telemovel,  email, dataNascimento,morada)</text><polygon fill="#A80036" points="98.5,285.0703,88.5,289.0703,98.5,293.0703,94.5,289.0703" style="stroke:#A80036;stroke-width:1.0;"/><line style="stroke:#A80036;stroke-width:1.0;stroke-dasharray:2.0,2.0;" x1="92.5" x2="418.5" y1="289.0703" y2="289.0703"/><text fill="#000000" font-family="sans-serif" font-size="13" lengthAdjust="spacing" textLength="240" x="104.5" y="284.2139">solicita confirmação dos dados de registo</text><polygon fill="#A80036" points="402.5,315.4219,412.5,319.4219,402.5,323.4219,406.5,319.4219" style="stroke:#A80036;stroke-width:1.0;"/><line style="stroke:#A80036;stroke-width:1.0;" x1="87.5" x2="408.5" y1="319.4219" y2="319.4219"/><text fill="#000000" font-family="sans-serif" font-size="13" lengthAdjust="spacing" textLength="167" x="94.5" y="314.5654">confirma os dados do registo</text><polygon fill="#A80036" points="693.5,345.7734,703.5,349.7734,693.5,353.7734,697.5,349.7734" style="stroke:#A80036;stroke-width:1.0;"/><line style="stroke:#A80036;stroke-width:1.0;" x1="424.5" x2="699.5" y1="349.7734" y2="349.7734"/><text fill="#000000" font-family="sans-serif" font-size="13" lengthAdjust="spacing" textLength="130" x="431.5" y="344.917">POST dados utilizador</text><line style="stroke:#A80036;stroke-width:1.0;" x1="715.5" x2="757.5" y1="380.125" y2="380.125"/><line style="stroke:#A80036;stroke-width:1.0;" x1="757.5" x2="757.5" y1="380.125" y2="393.125"/><line style="stroke:#A80036;stroke-width:1.0;" x1="716.5" x2="757.5" y1="393.125" y2="393.125"/><polygon fill="#A80036" points="726.5,389.125,716.5,393.125,726.5,397.125,722.5,393.125" style="stroke:#A80036;stroke-width:1.0;"/><text fill="#000000" font-family="sans-serif" font-size="13" lengthAdjust="spacing" textLength="165" x="722.5" y="375.2686">serverDataValidation (dados)</text><line style="stroke:#A80036;stroke-width:1.0;" x1="715.5" x2="757.5" y1="423.4766" y2="423.4766"/><line style="stroke:#A80036;stroke-width:1.0;" x1="757.5" x2="757.5" y1="423.4766" y2="436.4766"/><line style="stroke:#A80036;stroke-width:1.0;" x1="716.5" x2="757.5" y1="436.4766" y2="436.4766"/><polygon fill="#A80036" points="726.5,432.4766,716.5,436.4766,726.5,440.4766,722.5,436.4766" style="stroke:#A80036;stroke-width:1.0;"/><text fill="#000000" font-family="sans-serif" font-size="13" lengthAdjust="spacing" textLength="140" x="722.5" y="418.6201">registarUtilizador(dados)</text><polygon fill="#A80036" points="435.5,462.8281,425.5,466.8281,435.5,470.8281,431.5,466.8281" style="stroke:#A80036;stroke-width:1.0;"/><line style="stroke:#A80036;stroke-width:1.0;stroke-dasharray:2.0,2.0;" x1="429.5" x2="709.5" y1="466.8281" y2="466.8281"/><text fill="#000000" font-family="sans-serif" font-size="13" lengthAdjust="spacing" textLength="84" x="441.5" y="461.9717">novo Utilizador</text><polygon fill="#A80036" points="93.5,493.1797,83.5,497.1797,93.5,501.1797,89.5,497.1797" style="stroke:#A80036;stroke-width:1.0;"/><line style="stroke:#A80036;stroke-width:1.0;stroke-dasharray:2.0,2.0;" x1="87.5" x2="418.5" y1="497.1797" y2="497.1797"/><text fill="#000000" font-family="sans-serif" font-size="13" lengthAdjust="spacing" textLength="266" x="99.5" y="492.3232">confirma o sucesso do registo como utilizador</text><!--MD5=[d34829d0fee1fb33c237aaf7b0430b48]
@startuml

actor "Utilizador Não registado" as jog

participant "<<C4:Container>> Visualização" as vis
participant "<<C4:Container>> Rede Social" as rede

activate jog

jog -> vis: Inicia o seu registo como utilizador

activate vis
vis - -> jog: solicita os dados necessários para o registo (nome, \n telefone, email, data de nascimento, morada)
deactivate vis

jog -> vis : insere os dados 
activate vis
vis->vis: localValidateUserInformation(nome, password \n, telemovel,  email, dataNascimento,morada) 
vis - -> jog : solicita confirmação dos dados de registo
deactivate vis

jog -> vis : confirma os dados do registo
activate vis
vis->rede: POST dados utilizador
activate rede 
rede-> rede: serverDataValidation (dados)
rede->rede: registarUtilizador(dados)
rede - -> vis: novo Utilizador
deactivate rede

vis - -> jog : confirma o sucesso do registo como utilizador
deactivate vis

deactivate jog


@enduml

PlantUML version 1.2021.11(Sat Oct 02 14:26:11 BST 2021)
(GPL source distribution)
Java Runtime: OpenJDK Runtime Environment
JVM: Dynamic Code Evolution 64-Bit Server VM
Default Encoding: Cp1252
Language: pt
Country: PT
--></g></svg>