<?xml version="1.0" encoding="UTF-8" standalone="no"?><svg xmlns="http://www.w3.org/2000/svg" xmlns:xlink="http://www.w3.org/1999/xlink" contentScriptType="application/ecmascript" contentStyleType="text/css" height="960px" preserveAspectRatio="none" style="width:1103px;height:960px;background:#FFFFFF;" version="1.1" viewBox="0 0 1103 960" width="1103px" zoomAndPan="magnify"><defs><filter height="300%" id="f1papfs215n736" width="300%" x="-1" y="-1"><feGaussianBlur result="blurOut" stdDeviation="2.0"/><feColorMatrix in="blurOut" result="blurOut2" type="matrix" values="0 0 0 0 0 0 0 0 0 0 0 0 0 0 0 0 0 0 .4 0"/><feOffset dx="4.0" dy="4.0" in="blurOut2" result="blurOut3"/><feBlend in="SourceGraphic" in2="blurOut3" mode="normal"/></filter></defs><g><rect fill="#FFFFFF" filter="url(#f1papfs215n736)" height="756.9531" style="stroke:#A80036;stroke-width:1.0;" width="10" x="43.5" y="99.6094"/><rect fill="#FFFFFF" filter="url(#f1papfs215n736)" height="30.3516" style="stroke:#A80036;stroke-width:1.0;" width="10" x="182.5" y="121.9609"/><rect fill="#FFFFFF" filter="url(#f1papfs215n736)" height="212.4609" style="stroke:#A80036;stroke-width:1.0;" width="10" x="312" y="152.3125"/><rect fill="#FFFFFF" filter="url(#f1papfs215n736)" height="137.6641" style="stroke:#A80036;stroke-width:1.0;" width="10" x="312" y="420.4766"/><rect fill="#FFFFFF" filter="url(#f1papfs215n736)" height="266.0703" style="stroke:#A80036;stroke-width:1.0;" width="10" x="312" y="590.4922"/><rect fill="#FFFFFF" filter="url(#f1papfs215n736)" height="151.7578" style="stroke:#A80036;stroke-width:1.0;" width="10" x="484.5" y="182.6641"/><rect fill="#FFFFFF" filter="url(#f1papfs215n736)" height="107.3125" style="stroke:#A80036;stroke-width:1.0;" width="10" x="484.5" y="450.8281"/><rect fill="#FFFFFF" filter="url(#f1papfs215n736)" height="205.3672" style="stroke:#A80036;stroke-width:1.0;" width="10" x="484.5" y="620.8438"/><rect fill="#FFFFFF" filter="url(#f1papfs215n736)" height="91.0547" style="stroke:#A80036;stroke-width:1.0;" width="10" x="795" y="213.0156"/><rect fill="#FFFFFF" filter="url(#f1papfs215n736)" height="30.3516" style="stroke:#A80036;stroke-width:1.0;" width="10" x="795" y="527.7891"/><rect fill="#FFFFFF" filter="url(#f1papfs215n736)" height="98.0547" style="stroke:#A80036;stroke-width:1.0;" width="10" x="795" y="697.8047"/><rect fill="#FFFFFF" filter="url(#f1papfs215n736)" height="356.3828" style="stroke:#000000;stroke-width:2.0;" width="1079" x="10" y="379.7734"/><rect fill="#FFFFFF" height="170.0156" style="stroke:none;stroke-width:1.0;" width="1079" x="10" y="566.1406"/><line style="stroke:#A80036;stroke-width:1.0;stroke-dasharray:5.0,5.0;" x1="48" x2="48" y1="89.6094" y2="874.5625"/><line style="stroke:#A80036;stroke-width:1.0;stroke-dasharray:5.0,5.0;" x1="187.5" x2="187.5" y1="89.6094" y2="874.5625"/><line style="stroke:#A80036;stroke-width:1.0;stroke-dasharray:5.0,5.0;" x1="316.5" x2="316.5" y1="89.6094" y2="874.5625"/><line style="stroke:#A80036;stroke-width:1.0;stroke-dasharray:5.0,5.0;" x1="489.5" x2="489.5" y1="89.6094" y2="874.5625"/><line style="stroke:#A80036;stroke-width:1.0;stroke-dasharray:5.0,5.0;" x1="644.5" x2="644.5" y1="662.1484" y2="874.5625"/><line style="stroke:#A80036;stroke-width:1.0;stroke-dasharray:5.0,5.0;" x1="799.5" x2="799.5" y1="89.6094" y2="874.5625"/><text fill="#000000" font-family="sans-serif" font-size="14" lengthAdjust="spacing" textLength="51" x="20" y="86.5332">Jogador</text><ellipse cx="48.5" cy="15" fill="#FEFECE" filter="url(#f1papfs215n736)" rx="8" ry="8" style="stroke:#A80036;stroke-width:2.0;"/><path d="M48.5,23 L48.5,50 M35.5,31 L61.5,31 M48.5,50 L35.5,65 M48.5,50 L61.5,65 " fill="none" filter="url(#f1papfs215n736)" style="stroke:#A80036;stroke-width:2.0;"/><text fill="#000000" font-family="sans-serif" font-size="14" lengthAdjust="spacing" textLength="51" x="20" y="888.0957">Jogador</text><ellipse cx="48.5" cy="901.1719" fill="#FEFECE" filter="url(#f1papfs215n736)" rx="8" ry="8" style="stroke:#A80036;stroke-width:2.0;"/><path d="M48.5,909.1719 L48.5,936.1719 M35.5,917.1719 L61.5,917.1719 M48.5,936.1719 L35.5,951.1719 M48.5,936.1719 L61.5,951.1719 " fill="none" filter="url(#f1papfs215n736)" style="stroke:#A80036;stroke-width:2.0;"/><rect fill="#FEFECE" filter="url(#f1papfs215n736)" height="31.6094" style="stroke:#A80036;stroke-width:1.5;" width="56" x="157.5" y="53"/><text fill="#000000" font-family="sans-serif" font-size="14" lengthAdjust="spacing" textLength="42" x="164.5" y="74.5332">:Route</text><rect fill="#FEFECE" filter="url(#f1papfs215n736)" height="31.6094" style="stroke:#A80036;stroke-width:1.5;" width="56" x="157.5" y="873.5625"/><text fill="#000000" font-family="sans-serif" font-size="14" lengthAdjust="spacing" textLength="42" x="164.5" y="895.0957">:Route</text><rect fill="#FEFECE" filter="url(#f1papfs215n736)" height="31.6094" style="stroke:#A80036;stroke-width:1.5;" width="175" x="227.5" y="53"/><text fill="#000000" font-family="sans-serif" font-size="14" lengthAdjust="spacing" textLength="161" x="234.5" y="74.5332">:PedidosComponent View</text><rect fill="#FEFECE" filter="url(#f1papfs215n736)" height="31.6094" style="stroke:#A80036;stroke-width:1.5;" width="175" x="227.5" y="873.5625"/><text fill="#000000" font-family="sans-serif" font-size="14" lengthAdjust="spacing" textLength="161" x="234.5" y="895.0957">:PedidosComponent View</text><rect fill="#FEFECE" filter="url(#f1papfs215n736)" height="31.6094" style="stroke:#A80036;stroke-width:1.5;" width="142" x="416.5" y="53"/><text fill="#000000" font-family="sans-serif" font-size="14" lengthAdjust="spacing" textLength="128" x="423.5" y="74.5332">:PedidosComponent</text><rect fill="#FEFECE" filter="url(#f1papfs215n736)" height="31.6094" style="stroke:#A80036;stroke-width:1.5;" width="142" x="416.5" y="873.5625"/><text fill="#000000" font-family="sans-serif" font-size="14" lengthAdjust="spacing" textLength="128" x="423.5" y="895.0957">:PedidosComponent</text><rect fill="#FEFECE" filter="url(#f1papfs215n736)" height="31.6094" style="stroke:#A80036;stroke-width:1.5;" width="124" x="580.5" y="873.5625"/><text fill="#000000" font-family="sans-serif" font-size="14" lengthAdjust="spacing" textLength="110" x="587.5" y="895.0957">dto: RelacaoDTO</text><rect fill="#FEFECE" filter="url(#f1papfs215n736)" height="31.6094" style="stroke:#A80036;stroke-width:1.5;" width="159" x="718.5" y="53"/><text fill="#000000" font-family="sans-serif" font-size="14" lengthAdjust="spacing" textLength="145" x="725.5" y="74.5332">:PedidoLigacaoService</text><rect fill="#FEFECE" filter="url(#f1papfs215n736)" height="31.6094" style="stroke:#A80036;stroke-width:1.5;" width="159" x="718.5" y="873.5625"/><text fill="#000000" font-family="sans-serif" font-size="14" lengthAdjust="spacing" textLength="145" x="725.5" y="895.0957">:PedidoLigacaoService</text><rect fill="#FFFFFF" filter="url(#f1papfs215n736)" height="756.9531" style="stroke:#A80036;stroke-width:1.0;" width="10" x="43.5" y="99.6094"/><rect fill="#FFFFFF" filter="url(#f1papfs215n736)" height="30.3516" style="stroke:#A80036;stroke-width:1.0;" width="10" x="182.5" y="121.9609"/><rect fill="#FFFFFF" filter="url(#f1papfs215n736)" height="212.4609" style="stroke:#A80036;stroke-width:1.0;" width="10" x="312" y="152.3125"/><rect fill="#FFFFFF" filter="url(#f1papfs215n736)" height="137.6641" style="stroke:#A80036;stroke-width:1.0;" width="10" x="312" y="420.4766"/><rect fill="#FFFFFF" filter="url(#f1papfs215n736)" height="266.0703" style="stroke:#A80036;stroke-width:1.0;" width="10" x="312" y="590.4922"/><rect fill="#FFFFFF" filter="url(#f1papfs215n736)" height="151.7578" style="stroke:#A80036;stroke-width:1.0;" width="10" x="484.5" y="182.6641"/><rect fill="#FFFFFF" filter="url(#f1papfs215n736)" height="107.3125" style="stroke:#A80036;stroke-width:1.0;" width="10" x="484.5" y="450.8281"/><rect fill="#FFFFFF" filter="url(#f1papfs215n736)" height="205.3672" style="stroke:#A80036;stroke-width:1.0;" width="10" x="484.5" y="620.8438"/><rect fill="#FFFFFF" filter="url(#f1papfs215n736)" height="91.0547" style="stroke:#A80036;stroke-width:1.0;" width="10" x="795" y="213.0156"/><rect fill="#FFFFFF" filter="url(#f1papfs215n736)" height="30.3516" style="stroke:#A80036;stroke-width:1.0;" width="10" x="795" y="527.7891"/><rect fill="#FFFFFF" filter="url(#f1papfs215n736)" height="98.0547" style="stroke:#A80036;stroke-width:1.0;" width="10" x="795" y="697.8047"/><polygon fill="#A80036" points="170.5,117.9609,180.5,121.9609,170.5,125.9609,174.5,121.9609" style="stroke:#A80036;stroke-width:1.0;"/><line style="stroke:#A80036;stroke-width:1.0;" x1="53.5" x2="176.5" y1="121.9609" y2="121.9609"/><text fill="#000000" font-family="sans-serif" font-size="13" font-weight="bold" lengthAdjust="spacing" textLength="7" x="60.5" y="117.1045">1</text><text fill="#000000" font-family="sans-serif" font-size="13" lengthAdjust="spacing" textLength="99" x="71.5" y="117.1045">/account/pedidos</text><polygon fill="#A80036" points="300,148.3125,310,152.3125,300,156.3125,304,152.3125" style="stroke:#A80036;stroke-width:1.0;"/><line style="stroke:#A80036;stroke-width:1.0;" x1="187.5" x2="306" y1="152.3125" y2="152.3125"/><text fill="#000000" font-family="sans-serif" font-size="13" font-weight="bold" lengthAdjust="spacing" textLength="7" x="194.5" y="147.4561">2</text><text fill="#000000" font-family="sans-serif" font-size="13" lengthAdjust="spacing" textLength="65" x="205.5" y="147.4561">redirectTo()</text><polygon fill="#A80036" points="472.5,178.6641,482.5,182.6641,472.5,186.6641,476.5,182.6641" style="stroke:#A80036;stroke-width:1.0;"/><line style="stroke:#A80036;stroke-width:1.0;" x1="322" x2="478.5" y1="182.6641" y2="182.6641"/><text fill="#000000" font-family="sans-serif" font-size="13" font-weight="bold" lengthAdjust="spacing" textLength="7" x="329" y="177.8076">3</text><text fill="#000000" font-family="sans-serif" font-size="13" lengthAdjust="spacing" textLength="118" x="340" y="177.8076">getPedidosLigacao()</text><polygon fill="#A80036" points="783,209.0156,793,213.0156,783,217.0156,787,213.0156" style="stroke:#A80036;stroke-width:1.0;"/><line style="stroke:#A80036;stroke-width:1.0;" x1="494.5" x2="789" y1="213.0156" y2="213.0156"/><text fill="#000000" font-family="sans-serif" font-size="13" font-weight="bold" lengthAdjust="spacing" textLength="7" x="501.5" y="208.1592">4</text><text fill="#000000" font-family="sans-serif" font-size="13" lengthAdjust="spacing" textLength="180" x="512.5" y="208.1592">getPedidosLigacaoPendentes()</text><ellipse cx="1091.5" cy="242.6172" rx="4" ry="4" style="stroke:#A80036;stroke-width:1.5;fill:none;"/><polygon fill="#A80036" points="1074.5,239.3672,1084.5,243.3672,1074.5,247.3672,1078.5,243.3672" style="stroke:#A80036;stroke-width:1.0;"/><line style="stroke:#A80036;stroke-width:1.0;" x1="805" x2="1080.5" y1="243.3672" y2="243.3672"/><text fill="#000000" font-family="sans-serif" font-size="13" font-weight="bold" lengthAdjust="spacing" textLength="7" x="812" y="238.5107">5</text><text fill="#000000" font-family="sans-serif" font-size="13" lengthAdjust="spacing" textLength="213" x="823" y="238.5107">GET(.../api/pedidosligacao/jogadorid)</text><polygon fill="#A80036" points="816,269.7188,806,273.7188,816,277.7188,812,273.7188" style="stroke:#A80036;stroke-width:1.0;"/><ellipse cx="1091.5" cy="272.9688" rx="4" ry="4" style="stroke:#A80036;stroke-width:1.5;fill:none;"/><polygon fill="#A80036" points="1074.5,274.7188,1084.5,274.7188,1074.5,278.7188" style="stroke:#A80036;stroke-width:1.0;"/><line style="stroke:#A80036;stroke-width:1.0;stroke-dasharray:2.0,2.0;" x1="810" x2="1085.5" y1="273.7188" y2="273.7188"/><text fill="#000000" font-family="sans-serif" font-size="13" font-weight="bold" lengthAdjust="spacing" textLength="7" x="822" y="268.8623">6</text><text fill="#000000" font-family="sans-serif" font-size="13" lengthAdjust="spacing" textLength="116" x="833" y="268.8623">listaPedidosLigacao</text><polygon fill="#A80036" points="505.5,300.0703,495.5,304.0703,505.5,308.0703,501.5,304.0703" style="stroke:#A80036;stroke-width:1.0;"/><line style="stroke:#A80036;stroke-width:1.0;stroke-dasharray:2.0,2.0;" x1="499.5" x2="799" y1="304.0703" y2="304.0703"/><text fill="#000000" font-family="sans-serif" font-size="13" font-weight="bold" lengthAdjust="spacing" textLength="7" x="511.5" y="299.2139">7</text><text fill="#000000" font-family="sans-serif" font-size="13" lengthAdjust="spacing" textLength="116" x="522.5" y="299.2139">listaPedidosLigacao</text><polygon fill="#A80036" points="333,330.4219,323,334.4219,333,338.4219,329,334.4219" style="stroke:#A80036;stroke-width:1.0;"/><line style="stroke:#A80036;stroke-width:1.0;stroke-dasharray:2.0,2.0;" x1="327" x2="488.5" y1="334.4219" y2="334.4219"/><text fill="#000000" font-family="sans-serif" font-size="13" font-weight="bold" lengthAdjust="spacing" textLength="7" x="339" y="329.5654">8</text><text fill="#000000" font-family="sans-serif" font-size="13" lengthAdjust="spacing" textLength="116" x="350" y="329.5654">listaPedidosLigacao</text><polygon fill="#A80036" points="64.5,360.7734,54.5,364.7734,64.5,368.7734,60.5,364.7734" style="stroke:#A80036;stroke-width:1.0;"/><line style="stroke:#A80036;stroke-width:1.0;stroke-dasharray:2.0,2.0;" x1="58.5" x2="316" y1="364.7734" y2="364.7734"/><text fill="#000000" font-family="sans-serif" font-size="13" font-weight="bold" lengthAdjust="spacing" textLength="7" x="70.5" y="359.917">9</text><text fill="#000000" font-family="sans-serif" font-size="13" lengthAdjust="spacing" textLength="150" x="81.5" y="359.917">show listaPedidosLigacao</text><path d="M10,379.7734 L71,379.7734 L71,387.7734 L61,397.7734 L10,397.7734 L10,379.7734 " fill="#EEEEEE" style="stroke:#000000;stroke-width:1.0;"/><rect fill="none" height="356.3828" style="stroke:#000000;stroke-width:2.0;" width="1079" x="10" y="379.7734"/><text fill="#000000" font-family="sans-serif" font-size="13" font-weight="bold" lengthAdjust="spacing" textLength="16" x="25" y="394.2686">alt</text><polygon fill="#A80036" points="300,416.4766,310,420.4766,300,424.4766,304,420.4766" style="stroke:#A80036;stroke-width:1.0;"/><line style="stroke:#A80036;stroke-width:1.0;" x1="53.5" x2="306" y1="420.4766" y2="420.4766"/><text fill="#000000" font-family="sans-serif" font-size="13" font-weight="bold" lengthAdjust="spacing" textLength="14" x="60.5" y="415.6201">10</text><text fill="#000000" font-family="sans-serif" font-size="13" lengthAdjust="spacing" textLength="77" x="78.5" y="415.6201">aceita pedido</text><polygon fill="#A80036" points="472.5,446.8281,482.5,450.8281,472.5,454.8281,476.5,450.8281" style="stroke:#A80036;stroke-width:1.0;"/><line style="stroke:#A80036;stroke-width:1.0;" x1="322" x2="478.5" y1="450.8281" y2="450.8281"/><text fill="#000000" font-family="sans-serif" font-size="13" font-weight="bold" lengthAdjust="spacing" textLength="14" x="329" y="445.9717">11</text><text fill="#000000" font-family="sans-serif" font-size="13" lengthAdjust="spacing" textLength="47" x="347" y="445.9717">aceitar()</text><polygon fill="#A80036" points="568.5,477.1797,578.5,481.1797,568.5,485.1797,572.5,481.1797" style="stroke:#A80036;stroke-width:1.0;"/><line style="stroke:#A80036;stroke-width:1.0;stroke-dasharray:2.0,2.0;" x1="494.5" x2="574.5" y1="481.1797" y2="481.1797"/><text fill="#000000" font-family="sans-serif" font-size="13" font-weight="bold" lengthAdjust="spacing" textLength="14" x="501.5" y="476.3232">12</text><text fill="#000000" font-family="sans-serif" font-size="13" lengthAdjust="spacing" textLength="44" x="519.5" y="476.3232">create()</text><rect fill="#FEFECE" filter="url(#f1papfs215n736)" height="31.6094" style="stroke:#A80036;stroke-width:1.5;" width="124" x="580.5" y="458.8281"/><text fill="#000000" font-family="sans-serif" font-size="14" lengthAdjust="spacing" textLength="110" x="587.5" y="480.3613">dto: RelacaoDTO</text><polygon fill="#A80036" points="783,523.7891,793,527.7891,783,531.7891,787,527.7891" style="stroke:#A80036;stroke-width:1.0;"/><line style="stroke:#A80036;stroke-width:1.0;" x1="494.5" x2="789" y1="527.7891" y2="527.7891"/><text fill="#000000" font-family="sans-serif" font-size="13" font-weight="bold" lengthAdjust="spacing" textLength="14" x="501.5" y="522.9326">13</text><text fill="#000000" font-family="sans-serif" font-size="13" lengthAdjust="spacing" textLength="65" x="519.5" y="522.9326">aceitar(dto)</text><ellipse cx="1091.5" cy="557.3906" rx="4" ry="4" style="stroke:#A80036;stroke-width:1.5;fill:none;"/><polygon fill="#A80036" points="1074.5,554.1406,1084.5,558.1406,1074.5,562.1406,1078.5,558.1406" style="stroke:#A80036;stroke-width:1.0;"/><line style="stroke:#A80036;stroke-width:1.0;" x1="800" x2="1080.5" y1="558.1406" y2="558.1406"/><text fill="#000000" font-family="sans-serif" font-size="13" font-weight="bold" lengthAdjust="spacing" textLength="14" x="807" y="553.2842">14</text><text fill="#000000" font-family="sans-serif" font-size="13" lengthAdjust="spacing" textLength="245" x="825" y="553.2842">DELETE(.../api/pedidosligacao/decis1,dto)</text><line style="stroke:#000000;stroke-width:1.0;stroke-dasharray:2.0,2.0;" x1="10" x2="1089" y1="567.1406" y2="567.1406"/><polygon fill="#A80036" points="300,586.4922,310,590.4922,300,594.4922,304,590.4922" style="stroke:#A80036;stroke-width:1.0;"/><line style="stroke:#A80036;stroke-width:1.0;" x1="53.5" x2="306" y1="590.4922" y2="590.4922"/><text fill="#000000" font-family="sans-serif" font-size="13" font-weight="bold" lengthAdjust="spacing" textLength="14" x="60.5" y="585.6357">15</text><text fill="#000000" font-family="sans-serif" font-size="13" lengthAdjust="spacing" textLength="77" x="78.5" y="585.6357">rejeita pedido</text><polygon fill="#A80036" points="472.5,616.8438,482.5,620.8438,472.5,624.8438,476.5,620.8438" style="stroke:#A80036;stroke-width:1.0;"/><line style="stroke:#A80036;stroke-width:1.0;" x1="322" x2="478.5" y1="620.8438" y2="620.8438"/><text fill="#000000" font-family="sans-serif" font-size="13" font-weight="bold" lengthAdjust="spacing" textLength="14" x="329" y="615.9873">16</text><text fill="#000000" font-family="sans-serif" font-size="13" lengthAdjust="spacing" textLength="47" x="347" y="615.9873">rejeitar()</text><polygon fill="#A80036" points="568.5,647.1953,578.5,651.1953,568.5,655.1953,572.5,651.1953" style="stroke:#A80036;stroke-width:1.0;"/><line style="stroke:#A80036;stroke-width:1.0;stroke-dasharray:2.0,2.0;" x1="494.5" x2="574.5" y1="651.1953" y2="651.1953"/><text fill="#000000" font-family="sans-serif" font-size="13" font-weight="bold" lengthAdjust="spacing" textLength="14" x="501.5" y="646.3389">17</text><text fill="#000000" font-family="sans-serif" font-size="13" lengthAdjust="spacing" textLength="44" x="519.5" y="646.3389">create()</text><rect fill="#FEFECE" filter="url(#f1papfs215n736)" height="31.6094" style="stroke:#A80036;stroke-width:1.5;" width="124" x="580.5" y="628.8438"/><text fill="#000000" font-family="sans-serif" font-size="14" lengthAdjust="spacing" textLength="110" x="587.5" y="650.377">dto: RelacaoDTO</text><polygon fill="#A80036" points="783,693.8047,793,697.8047,783,701.8047,787,697.8047" style="stroke:#A80036;stroke-width:1.0;"/><line style="stroke:#A80036;stroke-width:1.0;" x1="494.5" x2="789" y1="697.8047" y2="697.8047"/><text fill="#000000" font-family="sans-serif" font-size="13" font-weight="bold" lengthAdjust="spacing" textLength="14" x="501.5" y="692.9482">18</text><text fill="#000000" font-family="sans-serif" font-size="13" lengthAdjust="spacing" textLength="65" x="519.5" y="692.9482">rejeitar(dto)</text><ellipse cx="1091.5" cy="727.4063" rx="4" ry="4" style="stroke:#A80036;stroke-width:1.5;fill:none;"/><polygon fill="#A80036" points="1074.5,724.1563,1084.5,728.1563,1074.5,732.1563,1078.5,728.1563" style="stroke:#A80036;stroke-width:1.0;"/><line style="stroke:#A80036;stroke-width:1.0;" x1="805" x2="1080.5" y1="728.1563" y2="728.1563"/><text fill="#000000" font-family="sans-serif" font-size="13" font-weight="bold" lengthAdjust="spacing" textLength="14" x="812" y="723.2998">19</text><text fill="#000000" font-family="sans-serif" font-size="13" lengthAdjust="spacing" textLength="245" x="830" y="723.2998">DELETE(.../api/pedidosligacao/decis0,dto)</text><polygon fill="#A80036" points="816,761.5078,806,765.5078,816,769.5078,812,765.5078" style="stroke:#A80036;stroke-width:1.0;"/><ellipse cx="1091.5" cy="764.7578" rx="4" ry="4" style="stroke:#A80036;stroke-width:1.5;fill:none;"/><polygon fill="#A80036" points="1074.5,766.5078,1084.5,766.5078,1074.5,770.5078" style="stroke:#A80036;stroke-width:1.0;"/><line style="stroke:#A80036;stroke-width:1.0;stroke-dasharray:2.0,2.0;" x1="810" x2="1085.5" y1="765.5078" y2="765.5078"/><text fill="#000000" font-family="sans-serif" font-size="13" font-weight="bold" lengthAdjust="spacing" textLength="14" x="822" y="760.6514">20</text><text fill="#000000" font-family="sans-serif" font-size="13" lengthAdjust="spacing" textLength="108" x="840" y="760.6514">Sucesso(newDTO)</text><polygon fill="#A80036" points="505.5,791.8594,495.5,795.8594,505.5,799.8594,501.5,795.8594" style="stroke:#A80036;stroke-width:1.0;"/><line style="stroke:#A80036;stroke-width:1.0;stroke-dasharray:2.0,2.0;" x1="499.5" x2="799" y1="795.8594" y2="795.8594"/><text fill="#000000" font-family="sans-serif" font-size="13" font-weight="bold" lengthAdjust="spacing" textLength="14" x="511.5" y="791.0029">21</text><text fill="#000000" font-family="sans-serif" font-size="13" lengthAdjust="spacing" textLength="51" x="529.5" y="791.0029">Sucesso</text><polygon fill="#A80036" points="333,822.2109,323,826.2109,333,830.2109,329,826.2109" style="stroke:#A80036;stroke-width:1.0;"/><line style="stroke:#A80036;stroke-width:1.0;stroke-dasharray:2.0,2.0;" x1="327" x2="488.5" y1="826.2109" y2="826.2109"/><text fill="#000000" font-family="sans-serif" font-size="13" font-weight="bold" lengthAdjust="spacing" textLength="14" x="339" y="821.3545">22</text><text fill="#000000" font-family="sans-serif" font-size="13" lengthAdjust="spacing" textLength="51" x="357" y="821.3545">Sucesso</text><polygon fill="#A80036" points="59.5,852.5625,49.5,856.5625,59.5,860.5625,55.5,856.5625" style="stroke:#A80036;stroke-width:1.0;"/><line style="stroke:#A80036;stroke-width:1.0;stroke-dasharray:2.0,2.0;" x1="53.5" x2="316" y1="856.5625" y2="856.5625"/><text fill="#000000" font-family="sans-serif" font-size="13" font-weight="bold" lengthAdjust="spacing" textLength="14" x="65.5" y="851.7061">23</text><text fill="#000000" font-family="sans-serif" font-size="13" lengthAdjust="spacing" textLength="51" x="83.5" y="851.7061">Sucesso</text><!--MD5=[f0c62be1eba79bf95bb971001fdf734e]
@startuml
'https://plantuml.com/sequence-diagram

autonumber

actor "Jogador" as J

participant ":Route" as R
participant ":PedidosComponent View" as CV
participant ":PedidosComponent" as C
participant "dto: RelacaoDTO" as DTO
participant ":PedidoLigacaoService" as SERV

activate J
    J->R : /account/pedidos
    activate R
        R->CV : redirectTo()
    deactivate R
    activate CV
        CV->C : getPedidosLigacao()
        activate C
            C->SERV : getPedidosLigacaoPendentes()
                activate SERV
                    SERV->o] : GET(.../api/pedidosligacao/jogadorid)
                    SERV<- -/o] : listaPedidosLigacao
                    SERV- ->C : listaPedidosLigacao
                deactivate SERV
            C- ->CV : listaPedidosLigacao
        deactivate C
        CV- ->J : show listaPedidosLigacao
    deactivate CV
    alt
    J->CV : aceita pedido
    activate CV
        CV->C : aceitar()
        activate C
            C- ->DTO ** : create()
            C->SERV : aceitar(dto)
            activate SERV
                SERV->o] : DELETE(.../api/pedidosligacao/decis1,dto)
            deactivate SERV
        deactivate C
    deactivate CV
    else                
    J->CV : rejeita pedido
    activate CV
        CV->C : rejeitar()
        activate C
            C- ->DTO ** : create()
            C->SERV : rejeitar(dto)
            activate SERV
                SERV->o] : DELETE(.../api/pedidosligacao/decis0,dto)
    end
                SERV<- -/o] : Sucesso(newDTO)
                SERV- ->C : Sucesso
            deactivate SERV
        C- ->CV : Sucesso
        deactivate C
        CV- ->J : Sucesso
    deactivate CV
deactivate J
            
        
   
        

@enduml

@startuml

autonumber

actor "Jogador" as J

participant ":Route" as R
participant ":PedidosComponent View" as CV
participant ":PedidosComponent" as C
participant "dto: RelacaoDTO" as DTO
participant ":PedidoLigacaoService" as SERV

activate J
    J->R : /account/pedidos
    activate R
        R->CV : redirectTo()
    deactivate R
    activate CV
        CV->C : getPedidosLigacao()
        activate C
            C->SERV : getPedidosLigacaoPendentes()
                activate SERV
                    SERV->o] : GET(.../api/pedidosligacao/jogadorid)
                    SERV<- -/o] : listaPedidosLigacao
                    SERV- ->C : listaPedidosLigacao
                deactivate SERV
            C- ->CV : listaPedidosLigacao
        deactivate C
        CV- ->J : show listaPedidosLigacao
    deactivate CV
    alt
    J->CV : aceita pedido
    activate CV
        CV->C : aceitar()
        activate C
            C- ->DTO ** : create()
            C->SERV : aceitar(dto)
            activate SERV
                SERV->o] : DELETE(.../api/pedidosligacao/decis1,dto)
            deactivate SERV
        deactivate C
    deactivate CV
    else                
    J->CV : rejeita pedido
    activate CV
        CV->C : rejeitar()
        activate C
            C- ->DTO ** : create()
            C->SERV : rejeitar(dto)
            activate SERV
                SERV->o] : DELETE(.../api/pedidosligacao/decis0,dto)
    end
                SERV<- -/o] : Sucesso(newDTO)
                SERV- ->C : Sucesso
            deactivate SERV
        C- ->CV : Sucesso
        deactivate C
        CV- ->J : Sucesso
    deactivate CV
deactivate J
            
        
   
        

@enduml

PlantUML version 1.2021.11(Sat Oct 02 14:26:11 BST 2021)
(GPL source distribution)
Java Runtime: OpenJDK Runtime Environment
JVM: Dynamic Code Evolution 64-Bit Server VM
Default Encoding: Cp1252
Language: pt
Country: PT
--></g></svg>