<?xml version="1.0" encoding="UTF-8" standalone="no"?><svg xmlns="http://www.w3.org/2000/svg" xmlns:xlink="http://www.w3.org/1999/xlink" contentScriptType="application/ecmascript" contentStyleType="text/css" height="393px" preserveAspectRatio="none" style="width:491px;height:393px;background:#FFFFFF;" version="1.1" viewBox="0 0 491 393" width="491px" zoomAndPan="magnify"><defs><filter height="300%" id="funtm4zpbgonp" width="300%" x="-1" y="-1"><feGaussianBlur result="blurOut" stdDeviation="2.0"/><feColorMatrix in="blurOut" result="blurOut2" type="matrix" values="0 0 0 0 0 0 0 0 0 0 0 0 0 0 0 0 0 0 .4 0"/><feOffset dx="4.0" dy="4.0" in="blurOut2" result="blurOut3"/><feBlend in="SourceGraphic" in2="blurOut3" mode="normal"/></filter></defs><g><rect fill="#FFFFFF" filter="url(#funtm4zpbgonp)" height="190.4609" style="stroke:#A80036;stroke-width:1.0;" width="10" x="28.5" y="99.6094"/><rect fill="#FFFFFF" filter="url(#funtm4zpbgonp)" height="46.7031" style="stroke:#A80036;stroke-width:1.0;" width="10" x="417.5" y="121.9609"/><rect fill="#FFFFFF" filter="url(#funtm4zpbgonp)" height="30.3516" style="stroke:#A80036;stroke-width:1.0;" width="10" x="417.5" y="199.0156"/><rect fill="#FFFFFF" filter="url(#funtm4zpbgonp)" height="30.3516" style="stroke:#A80036;stroke-width:1.0;" width="10" x="417.5" y="259.7188"/><line style="stroke:#A80036;stroke-width:1.0;stroke-dasharray:5.0,5.0;" x1="33" x2="33" y1="89.6094" y2="308.0703"/><line style="stroke:#A80036;stroke-width:1.0;stroke-dasharray:5.0,5.0;" x1="422.5" x2="422.5" y1="89.6094" y2="308.0703"/><text fill="#000000" font-family="sans-serif" font-size="14" lengthAdjust="spacing" textLength="51" x="5" y="86.5332">Jogador</text><ellipse cx="33.5" cy="15" fill="#FEFECE" filter="url(#funtm4zpbgonp)" rx="8" ry="8" style="stroke:#A80036;stroke-width:2.0;"/><path d="M33.5,23 L33.5,50 M20.5,31 L46.5,31 M33.5,50 L20.5,65 M33.5,50 L46.5,65 " fill="none" filter="url(#funtm4zpbgonp)" style="stroke:#A80036;stroke-width:2.0;"/><text fill="#000000" font-family="sans-serif" font-size="14" lengthAdjust="spacing" textLength="51" x="5" y="321.6035">Jogador</text><ellipse cx="33.5" cy="334.6797" fill="#FEFECE" filter="url(#funtm4zpbgonp)" rx="8" ry="8" style="stroke:#A80036;stroke-width:2.0;"/><path d="M33.5,342.6797 L33.5,369.6797 M20.5,350.6797 L46.5,350.6797 M33.5,369.6797 L20.5,384.6797 M33.5,369.6797 L46.5,384.6797 " fill="none" filter="url(#funtm4zpbgonp)" style="stroke:#A80036;stroke-width:2.0;"/><rect fill="#FEFECE" filter="url(#funtm4zpbgonp)" height="31.6094" style="stroke:#A80036;stroke-width:1.5;" width="114" x="363.5" y="53"/><text fill="#000000" font-family="sans-serif" font-size="14" lengthAdjust="spacing" textLength="100" x="370.5" y="74.5332">&lt;&lt;C4:System&gt;&gt;</text><rect fill="#FEFECE" filter="url(#funtm4zpbgonp)" height="31.6094" style="stroke:#A80036;stroke-width:1.5;" width="114" x="363.5" y="307.0703"/><text fill="#000000" font-family="sans-serif" font-size="14" lengthAdjust="spacing" textLength="100" x="370.5" y="328.6035">&lt;&lt;C4:System&gt;&gt;</text><rect fill="#FFFFFF" filter="url(#funtm4zpbgonp)" height="190.4609" style="stroke:#A80036;stroke-width:1.0;" width="10" x="28.5" y="99.6094"/><rect fill="#FFFFFF" filter="url(#funtm4zpbgonp)" height="46.7031" style="stroke:#A80036;stroke-width:1.0;" width="10" x="417.5" y="121.9609"/><rect fill="#FFFFFF" filter="url(#funtm4zpbgonp)" height="30.3516" style="stroke:#A80036;stroke-width:1.0;" width="10" x="417.5" y="199.0156"/><rect fill="#FFFFFF" filter="url(#funtm4zpbgonp)" height="30.3516" style="stroke:#A80036;stroke-width:1.0;" width="10" x="417.5" y="259.7188"/><polygon fill="#A80036" points="405.5,117.9609,415.5,121.9609,405.5,125.9609,409.5,121.9609" style="stroke:#A80036;stroke-width:1.0;"/><line style="stroke:#A80036;stroke-width:1.0;" x1="38.5" x2="411.5" y1="121.9609" y2="121.9609"/><text fill="#000000" font-family="sans-serif" font-size="13" lengthAdjust="spacing" textLength="230" x="45.5" y="117.1045">Solicita a lista de utilizadores sugeridos</text><polygon fill="#A80036" points="49.5,164.6641,39.5,168.6641,49.5,172.6641,45.5,168.6641" style="stroke:#A80036;stroke-width:1.0;"/><line style="stroke:#A80036;stroke-width:1.0;stroke-dasharray:2.0,2.0;" x1="43.5" x2="421.5" y1="168.6641" y2="168.6641"/><text fill="#000000" font-family="sans-serif" font-size="13" lengthAdjust="spacing" textLength="241" x="55.5" y="147.4561">apresenta a lista de utlizadores sugeridos</text><text fill="#000000" font-family="sans-serif" font-size="13" lengthAdjust="spacing" textLength="316" x="59.5" y="163.8076">e solicita que selecione os que pretende como objetivo</text><polygon fill="#A80036" points="405.5,195.0156,415.5,199.0156,405.5,203.0156,409.5,199.0156" style="stroke:#A80036;stroke-width:1.0;"/><line style="stroke:#A80036;stroke-width:1.0;" x1="38.5" x2="411.5" y1="199.0156" y2="199.0156"/><text fill="#000000" font-family="sans-serif" font-size="13" lengthAdjust="spacing" textLength="360" x="45.5" y="194.1592">seleciona os utilizadores objetivo que pretende ter na sua rede</text><polygon fill="#A80036" points="49.5,225.3672,39.5,229.3672,49.5,233.3672,45.5,229.3672" style="stroke:#A80036;stroke-width:1.0;"/><line style="stroke:#A80036;stroke-width:1.0;stroke-dasharray:2.0,2.0;" x1="43.5" x2="421.5" y1="229.3672" y2="229.3672"/><text fill="#000000" font-family="sans-serif" font-size="13" lengthAdjust="spacing" textLength="275" x="55.5" y="224.5107">apresenta os utilizadores e solicita confirmação</text><polygon fill="#A80036" points="405.5,255.7188,415.5,259.7188,405.5,263.7188,409.5,259.7188" style="stroke:#A80036;stroke-width:1.0;"/><line style="stroke:#A80036;stroke-width:1.0;" x1="38.5" x2="411.5" y1="259.7188" y2="259.7188"/><text fill="#000000" font-family="sans-serif" font-size="13" lengthAdjust="spacing" textLength="109" x="45.5" y="254.8623">confirma a seleção</text><polygon fill="#A80036" points="44.5,286.0703,34.5,290.0703,44.5,294.0703,40.5,290.0703" style="stroke:#A80036;stroke-width:1.0;"/><line style="stroke:#A80036;stroke-width:1.0;stroke-dasharray:2.0,2.0;" x1="38.5" x2="421.5" y1="290.0703" y2="290.0703"/><text fill="#000000" font-family="sans-serif" font-size="13" lengthAdjust="spacing" textLength="322" x="50.5" y="285.2139">confirma o sucesso da seleção dos utilizadores objetivo</text><!--MD5=[35e966bf7be2b875b80dcad74ac0b2a8]
@startuml

actor "Jogador" as jog

participant "<<C4:System>>" as c4

activate jog

jog -> c4: Solicita a lista de utilizadores sugeridos

activate c4
c4 - -> jog: apresenta a lista de utlizadores sugeridos \n e solicita que selecione os que pretende como objetivo
deactivate c4

jog -> c4 : seleciona os utilizadores objetivo que pretende ter na sua rede        
activate c4

c4 - -> jog : apresenta os utilizadores e solicita confirmação
deactivate c4

jog -> c4 : confirma a seleção
activate c4
c4 - -> jog : confirma o sucesso da seleção dos utilizadores objetivo
deactivate c4

deactivate jog


@enduml

PlantUML version 1.2021.11(Sat Oct 02 14:26:11 BST 2021)
(GPL source distribution)
Java Runtime: OpenJDK Runtime Environment
JVM: Dynamic Code Evolution 64-Bit Server VM
Default Encoding: Cp1252
Language: pt
Country: PT
--></g></svg>