<?xml version="1.0" encoding="UTF-8" standalone="no"?><svg xmlns="http://www.w3.org/2000/svg" xmlns:xlink="http://www.w3.org/1999/xlink" contentScriptType="application/ecmascript" contentStyleType="text/css" height="568px" preserveAspectRatio="none" style="width:787px;height:568px;background:#FFFFFF;" version="1.1" viewBox="0 0 787 568" width="787px" zoomAndPan="magnify"><defs><filter height="300%" id="f1wvdinv68bry5" width="300%" x="-1" y="-1"><feGaussianBlur result="blurOut" stdDeviation="2.0"/><feColorMatrix in="blurOut" result="blurOut2" type="matrix" values="0 0 0 0 0 0 0 0 0 0 0 0 0 0 0 0 0 0 .4 0"/><feOffset dx="4.0" dy="4.0" in="blurOut2" result="blurOut3"/><feBlend in="SourceGraphic" in2="blurOut3" mode="normal"/></filter></defs><g><rect fill="#FFFFFF" filter="url(#f1wvdinv68bry5)" height="364.8672" style="stroke:#A80036;stroke-width:1.0;" width="10" x="28.5" y="99.6094"/><rect fill="#FFFFFF" filter="url(#f1wvdinv68bry5)" height="30.3516" style="stroke:#A80036;stroke-width:1.0;" width="10" x="383.5" y="121.9609"/><rect fill="#FFFFFF" filter="url(#f1wvdinv68bry5)" height="73.7031" style="stroke:#A80036;stroke-width:1.0;" width="10" x="383.5" y="182.6641"/><rect fill="#FFFFFF" filter="url(#f1wvdinv68bry5)" height="177.7578" style="stroke:#A80036;stroke-width:1.0;" width="10" x="383.5" y="286.7188"/><rect fill="#FFFFFF" filter="url(#f1wvdinv68bry5)" height="117.0547" style="stroke:#A80036;stroke-width:1.0;" width="10" x="608.5" y="317.0703"/><line style="stroke:#A80036;stroke-width:1.0;stroke-dasharray:5.0,5.0;" x1="33" x2="33" y1="89.6094" y2="482.4766"/><line style="stroke:#A80036;stroke-width:1.0;stroke-dasharray:5.0,5.0;" x1="388.5" x2="388.5" y1="89.6094" y2="482.4766"/><line style="stroke:#A80036;stroke-width:1.0;stroke-dasharray:5.0,5.0;" x1="613.5" x2="613.5" y1="89.6094" y2="482.4766"/><text fill="#000000" font-family="sans-serif" font-size="14" lengthAdjust="spacing" textLength="51" x="5" y="86.5332">Jogador</text><ellipse cx="33.5" cy="15" fill="#FEFECE" filter="url(#f1wvdinv68bry5)" rx="8" ry="8" style="stroke:#A80036;stroke-width:2.0;"/><path d="M33.5,23 L33.5,50 M20.5,31 L46.5,31 M33.5,50 L20.5,65 M33.5,50 L46.5,65 " fill="none" filter="url(#f1wvdinv68bry5)" style="stroke:#A80036;stroke-width:2.0;"/><text fill="#000000" font-family="sans-serif" font-size="14" lengthAdjust="spacing" textLength="51" x="5" y="496.0098">Jogador</text><ellipse cx="33.5" cy="509.0859" fill="#FEFECE" filter="url(#f1wvdinv68bry5)" rx="8" ry="8" style="stroke:#A80036;stroke-width:2.0;"/><path d="M33.5,517.0859 L33.5,544.0859 M20.5,525.0859 L46.5,525.0859 M33.5,544.0859 L20.5,559.0859 M33.5,544.0859 L46.5,559.0859 " fill="none" filter="url(#f1wvdinv68bry5)" style="stroke:#A80036;stroke-width:2.0;"/><rect fill="#FEFECE" filter="url(#f1wvdinv68bry5)" height="31.6094" style="stroke:#A80036;stroke-width:1.5;" width="212" x="280.5" y="53"/><text fill="#000000" font-family="sans-serif" font-size="14" lengthAdjust="spacing" textLength="198" x="287.5" y="74.5332">&lt;&lt;C4:Container&gt;&gt; Visualização</text><rect fill="#FEFECE" filter="url(#f1wvdinv68bry5)" height="31.6094" style="stroke:#A80036;stroke-width:1.5;" width="212" x="280.5" y="481.4766"/><text fill="#000000" font-family="sans-serif" font-size="14" lengthAdjust="spacing" textLength="198" x="287.5" y="503.0098">&lt;&lt;C4:Container&gt;&gt; Visualização</text><rect fill="#FEFECE" filter="url(#f1wvdinv68bry5)" height="31.6094" style="stroke:#A80036;stroke-width:1.5;" width="210" x="506.5" y="53"/><text fill="#000000" font-family="sans-serif" font-size="14" lengthAdjust="spacing" textLength="196" x="513.5" y="74.5332">&lt;&lt;C4:Container&gt;&gt; Rede Social</text><rect fill="#FEFECE" filter="url(#f1wvdinv68bry5)" height="31.6094" style="stroke:#A80036;stroke-width:1.5;" width="210" x="506.5" y="481.4766"/><text fill="#000000" font-family="sans-serif" font-size="14" lengthAdjust="spacing" textLength="196" x="513.5" y="503.0098">&lt;&lt;C4:Container&gt;&gt; Rede Social</text><rect fill="#FFFFFF" filter="url(#f1wvdinv68bry5)" height="364.8672" style="stroke:#A80036;stroke-width:1.0;" width="10" x="28.5" y="99.6094"/><rect fill="#FFFFFF" filter="url(#f1wvdinv68bry5)" height="30.3516" style="stroke:#A80036;stroke-width:1.0;" width="10" x="383.5" y="121.9609"/><rect fill="#FFFFFF" filter="url(#f1wvdinv68bry5)" height="73.7031" style="stroke:#A80036;stroke-width:1.0;" width="10" x="383.5" y="182.6641"/><rect fill="#FFFFFF" filter="url(#f1wvdinv68bry5)" height="177.7578" style="stroke:#A80036;stroke-width:1.0;" width="10" x="383.5" y="286.7188"/><rect fill="#FFFFFF" filter="url(#f1wvdinv68bry5)" height="117.0547" style="stroke:#A80036;stroke-width:1.0;" width="10" x="608.5" y="317.0703"/><polygon fill="#A80036" points="371.5,117.9609,381.5,121.9609,371.5,125.9609,375.5,121.9609" style="stroke:#A80036;stroke-width:1.0;"/><line style="stroke:#A80036;stroke-width:1.0;" x1="38.5" x2="377.5" y1="121.9609" y2="121.9609"/><text fill="#000000" font-family="sans-serif" font-size="13" lengthAdjust="spacing" textLength="166" x="45.5" y="117.1045">Seleciona o post a comentar</text><polygon fill="#A80036" points="49.5,148.3125,39.5,152.3125,49.5,156.3125,45.5,152.3125" style="stroke:#A80036;stroke-width:1.0;"/><line style="stroke:#A80036;stroke-width:1.0;stroke-dasharray:2.0,2.0;" x1="43.5" x2="387.5" y1="152.3125" y2="152.3125"/><text fill="#000000" font-family="sans-serif" font-size="13" lengthAdjust="spacing" textLength="321" x="55.5" y="147.4561">solicita os dados necessários para o comentario (texto)</text><polygon fill="#A80036" points="371.5,178.6641,381.5,182.6641,371.5,186.6641,375.5,182.6641" style="stroke:#A80036;stroke-width:1.0;"/><line style="stroke:#A80036;stroke-width:1.0;" x1="38.5" x2="377.5" y1="182.6641" y2="182.6641"/><text fill="#000000" font-family="sans-serif" font-size="13" lengthAdjust="spacing" textLength="79" x="45.5" y="177.8076">insere o texto</text><line style="stroke:#A80036;stroke-width:1.0;" x1="393.5" x2="435.5" y1="213.0156" y2="213.0156"/><line style="stroke:#A80036;stroke-width:1.0;" x1="435.5" x2="435.5" y1="213.0156" y2="226.0156"/><line style="stroke:#A80036;stroke-width:1.0;" x1="394.5" x2="435.5" y1="226.0156" y2="226.0156"/><polygon fill="#A80036" points="404.5,222.0156,394.5,226.0156,404.5,230.0156,400.5,226.0156" style="stroke:#A80036;stroke-width:1.0;"/><text fill="#000000" font-family="sans-serif" font-size="13" lengthAdjust="spacing" textLength="174" x="400.5" y="208.1592">localValidateInformation(texto)</text><polygon fill="#A80036" points="49.5,252.3672,39.5,256.3672,49.5,260.3672,45.5,256.3672" style="stroke:#A80036;stroke-width:1.0;"/><line style="stroke:#A80036;stroke-width:1.0;stroke-dasharray:2.0,2.0;" x1="43.5" x2="387.5" y1="256.3672" y2="256.3672"/><text fill="#000000" font-family="sans-serif" font-size="13" lengthAdjust="spacing" textLength="179" x="55.5" y="251.5107">mostra o comentario a publicar</text><polygon fill="#A80036" points="371.5,282.7188,381.5,286.7188,371.5,290.7188,375.5,286.7188" style="stroke:#A80036;stroke-width:1.0;"/><line style="stroke:#A80036;stroke-width:1.0;" x1="38.5" x2="377.5" y1="286.7188" y2="286.7188"/><text fill="#000000" font-family="sans-serif" font-size="13" lengthAdjust="spacing" textLength="181" x="45.5" y="281.8623">pressiona o botão para publicar</text><polygon fill="#A80036" points="596.5,313.0703,606.5,317.0703,596.5,321.0703,600.5,317.0703" style="stroke:#A80036;stroke-width:1.0;"/><line style="stroke:#A80036;stroke-width:1.0;" x1="393.5" x2="602.5" y1="317.0703" y2="317.0703"/><text fill="#000000" font-family="sans-serif" font-size="13" lengthAdjust="spacing" textLength="136" x="400.5" y="312.2139">POST texto comentario</text><line style="stroke:#A80036;stroke-width:1.0;" x1="618.5" x2="660.5" y1="347.4219" y2="347.4219"/><line style="stroke:#A80036;stroke-width:1.0;" x1="660.5" x2="660.5" y1="347.4219" y2="360.4219"/><line style="stroke:#A80036;stroke-width:1.0;" x1="619.5" x2="660.5" y1="360.4219" y2="360.4219"/><polygon fill="#A80036" points="629.5,356.4219,619.5,360.4219,629.5,364.4219,625.5,360.4219" style="stroke:#A80036;stroke-width:1.0;"/><text fill="#000000" font-family="sans-serif" font-size="13" lengthAdjust="spacing" textLength="155" x="625.5" y="342.5654">serverDataValidation(texto)</text><line style="stroke:#A80036;stroke-width:1.0;" x1="618.5" x2="660.5" y1="390.7734" y2="390.7734"/><line style="stroke:#A80036;stroke-width:1.0;" x1="660.5" x2="660.5" y1="390.7734" y2="403.7734"/><line style="stroke:#A80036;stroke-width:1.0;" x1="619.5" x2="660.5" y1="403.7734" y2="403.7734"/><polygon fill="#A80036" points="629.5,399.7734,619.5,403.7734,629.5,407.7734,625.5,403.7734" style="stroke:#A80036;stroke-width:1.0;"/><text fill="#000000" font-family="sans-serif" font-size="13" lengthAdjust="spacing" textLength="124" x="625.5" y="385.917">addComentario(texto)</text><polygon fill="#A80036" points="404.5,430.125,394.5,434.125,404.5,438.125,400.5,434.125" style="stroke:#A80036;stroke-width:1.0;"/><line style="stroke:#A80036;stroke-width:1.0;stroke-dasharray:2.0,2.0;" x1="398.5" x2="612.5" y1="434.125" y2="434.125"/><text fill="#000000" font-family="sans-serif" font-size="13" lengthAdjust="spacing" textLength="125" x="410.5" y="429.2686">Comentario publicado</text><polygon fill="#A80036" points="44.5,460.4766,34.5,464.4766,44.5,468.4766,40.5,464.4766" style="stroke:#A80036;stroke-width:1.0;"/><line style="stroke:#A80036;stroke-width:1.0;stroke-dasharray:2.0,2.0;" x1="38.5" x2="387.5" y1="464.4766" y2="464.4766"/><text fill="#000000" font-family="sans-serif" font-size="13" lengthAdjust="spacing" textLength="178" x="50.5" y="459.6201">mostra o comentario publicado</text><!--MD5=[a0aebeb08859223b9b5b003b7e83540a]
@startuml

actor "Jogador" as jog

participant "<<C4:Container>> Visualização" as vis
participant "<<C4:Container>> Rede Social" as rede

activate jog

jog -> vis: Seleciona o post a comentar

activate vis
vis - -> jog: solicita os dados necessários para o comentario (texto)
deactivate vis

jog -> vis : insere o texto
activate vis
vis->vis: localValidateInformation(texto) 
vis - -> jog : mostra o comentario a publicar
deactivate vis

jog -> vis : pressiona o botão para publicar
activate vis
vis->rede: POST texto comentario
activate rede 
rede-> rede: serverDataValidation(texto)
rede->rede: addComentario(texto)
rede - -> vis: Comentario publicado
deactivate rede

vis - -> jog : mostra o comentario publicado
deactivate vis

deactivate jog


@enduml

PlantUML version 1.2021.11(Sat Oct 02 14:26:11 BST 2021)
(GPL source distribution)
Java Runtime: OpenJDK Runtime Environment
JVM: Dynamic Code Evolution 64-Bit Server VM
Default Encoding: Cp1252
Language: pt
Country: PT
--></g></svg>