<?xml version="1.0" encoding="UTF-8" standalone="no"?><svg xmlns="http://www.w3.org/2000/svg" xmlns:xlink="http://www.w3.org/1999/xlink" contentScriptType="application/ecmascript" contentStyleType="text/css" height="568px" preserveAspectRatio="none" style="width:804px;height:568px;background:#FFFFFF;" version="1.1" viewBox="0 0 804 568" width="804px" zoomAndPan="magnify"><defs><filter height="300%" id="fuf3sxkavq5sp" width="300%" x="-1" y="-1"><feGaussianBlur result="blurOut" stdDeviation="2.0"/><feColorMatrix in="blurOut" result="blurOut2" type="matrix" values="0 0 0 0 0 0 0 0 0 0 0 0 0 0 0 0 0 0 .4 0"/><feOffset dx="4.0" dy="4.0" in="blurOut2" result="blurOut3"/><feBlend in="SourceGraphic" in2="blurOut3" mode="normal"/></filter></defs><g><rect fill="#FFFFFF" filter="url(#fuf3sxkavq5sp)" height="364.8672" style="stroke:#A80036;stroke-width:1.0;" width="10" x="28.5" y="99.6094"/><rect fill="#FFFFFF" filter="url(#fuf3sxkavq5sp)" height="30.3516" style="stroke:#A80036;stroke-width:1.0;" width="10" x="384.5" y="121.9609"/><rect fill="#FFFFFF" filter="url(#fuf3sxkavq5sp)" height="73.7031" style="stroke:#A80036;stroke-width:1.0;" width="10" x="384.5" y="182.6641"/><rect fill="#FFFFFF" filter="url(#fuf3sxkavq5sp)" height="177.7578" style="stroke:#A80036;stroke-width:1.0;" width="10" x="384.5" y="286.7188"/><rect fill="#FFFFFF" filter="url(#fuf3sxkavq5sp)" height="117.0547" style="stroke:#A80036;stroke-width:1.0;" width="10" x="615.5" y="317.0703"/><line style="stroke:#A80036;stroke-width:1.0;stroke-dasharray:5.0,5.0;" x1="33" x2="33" y1="89.6094" y2="482.4766"/><line style="stroke:#A80036;stroke-width:1.0;stroke-dasharray:5.0,5.0;" x1="389.5" x2="389.5" y1="89.6094" y2="482.4766"/><line style="stroke:#A80036;stroke-width:1.0;stroke-dasharray:5.0,5.0;" x1="620.5" x2="620.5" y1="89.6094" y2="482.4766"/><text fill="#000000" font-family="sans-serif" font-size="14" lengthAdjust="spacing" textLength="51" x="5" y="86.5332">Jogador</text><ellipse cx="33.5" cy="15" fill="#FEFECE" filter="url(#fuf3sxkavq5sp)" rx="8" ry="8" style="stroke:#A80036;stroke-width:2.0;"/><path d="M33.5,23 L33.5,50 M20.5,31 L46.5,31 M33.5,50 L20.5,65 M33.5,50 L46.5,65 " fill="none" filter="url(#fuf3sxkavq5sp)" style="stroke:#A80036;stroke-width:2.0;"/><text fill="#000000" font-family="sans-serif" font-size="14" lengthAdjust="spacing" textLength="51" x="5" y="496.0098">Jogador</text><ellipse cx="33.5" cy="509.0859" fill="#FEFECE" filter="url(#fuf3sxkavq5sp)" rx="8" ry="8" style="stroke:#A80036;stroke-width:2.0;"/><path d="M33.5,517.0859 L33.5,544.0859 M20.5,525.0859 L46.5,525.0859 M33.5,544.0859 L20.5,559.0859 M33.5,544.0859 L46.5,559.0859 " fill="none" filter="url(#fuf3sxkavq5sp)" style="stroke:#A80036;stroke-width:2.0;"/><rect fill="#FEFECE" filter="url(#fuf3sxkavq5sp)" height="31.6094" style="stroke:#A80036;stroke-width:1.5;" width="212" x="281.5" y="53"/><text fill="#000000" font-family="sans-serif" font-size="14" lengthAdjust="spacing" textLength="198" x="288.5" y="74.5332">&lt;&lt;C4:Container&gt;&gt; Visualização</text><rect fill="#FEFECE" filter="url(#fuf3sxkavq5sp)" height="31.6094" style="stroke:#A80036;stroke-width:1.5;" width="212" x="281.5" y="481.4766"/><text fill="#000000" font-family="sans-serif" font-size="14" lengthAdjust="spacing" textLength="198" x="288.5" y="503.0098">&lt;&lt;C4:Container&gt;&gt; Visualização</text><rect fill="#FEFECE" filter="url(#fuf3sxkavq5sp)" height="31.6094" style="stroke:#A80036;stroke-width:1.5;" width="210" x="513.5" y="53"/><text fill="#000000" font-family="sans-serif" font-size="14" lengthAdjust="spacing" textLength="196" x="520.5" y="74.5332">&lt;&lt;C4:Container&gt;&gt; Rede Social</text><rect fill="#FEFECE" filter="url(#fuf3sxkavq5sp)" height="31.6094" style="stroke:#A80036;stroke-width:1.5;" width="210" x="513.5" y="481.4766"/><text fill="#000000" font-family="sans-serif" font-size="14" lengthAdjust="spacing" textLength="196" x="520.5" y="503.0098">&lt;&lt;C4:Container&gt;&gt; Rede Social</text><rect fill="#FFFFFF" filter="url(#fuf3sxkavq5sp)" height="364.8672" style="stroke:#A80036;stroke-width:1.0;" width="10" x="28.5" y="99.6094"/><rect fill="#FFFFFF" filter="url(#fuf3sxkavq5sp)" height="30.3516" style="stroke:#A80036;stroke-width:1.0;" width="10" x="384.5" y="121.9609"/><rect fill="#FFFFFF" filter="url(#fuf3sxkavq5sp)" height="73.7031" style="stroke:#A80036;stroke-width:1.0;" width="10" x="384.5" y="182.6641"/><rect fill="#FFFFFF" filter="url(#fuf3sxkavq5sp)" height="177.7578" style="stroke:#A80036;stroke-width:1.0;" width="10" x="384.5" y="286.7188"/><rect fill="#FFFFFF" filter="url(#fuf3sxkavq5sp)" height="117.0547" style="stroke:#A80036;stroke-width:1.0;" width="10" x="615.5" y="317.0703"/><polygon fill="#A80036" points="372.5,117.9609,382.5,121.9609,372.5,125.9609,376.5,121.9609" style="stroke:#A80036;stroke-width:1.0;"/><line style="stroke:#A80036;stroke-width:1.0;" x1="38.5" x2="378.5" y1="121.9609" y2="121.9609"/><text fill="#000000" font-family="sans-serif" font-size="13" lengthAdjust="spacing" textLength="134" x="45.5" y="117.1045">Inicia a criação do post</text><polygon fill="#A80036" points="49.5,148.3125,39.5,152.3125,49.5,156.3125,45.5,152.3125" style="stroke:#A80036;stroke-width:1.0;"/><line style="stroke:#A80036;stroke-width:1.0;stroke-dasharray:2.0,2.0;" x1="43.5" x2="388.5" y1="152.3125" y2="152.3125"/><text fill="#000000" font-family="sans-serif" font-size="13" lengthAdjust="spacing" textLength="322" x="55.5" y="147.4561">solicita os dados necessários para o post (texto e tags)</text><polygon fill="#A80036" points="372.5,178.6641,382.5,182.6641,372.5,186.6641,376.5,182.6641" style="stroke:#A80036;stroke-width:1.0;"/><line style="stroke:#A80036;stroke-width:1.0;" x1="38.5" x2="378.5" y1="182.6641" y2="182.6641"/><text fill="#000000" font-family="sans-serif" font-size="13" lengthAdjust="spacing" textLength="92" x="45.5" y="177.8076">insere os dados</text><line style="stroke:#A80036;stroke-width:1.0;" x1="394.5" x2="436.5" y1="213.0156" y2="213.0156"/><line style="stroke:#A80036;stroke-width:1.0;" x1="436.5" x2="436.5" y1="213.0156" y2="226.0156"/><line style="stroke:#A80036;stroke-width:1.0;" x1="395.5" x2="436.5" y1="226.0156" y2="226.0156"/><polygon fill="#A80036" points="405.5,222.0156,395.5,226.0156,405.5,230.0156,401.5,226.0156" style="stroke:#A80036;stroke-width:1.0;"/><text fill="#000000" font-family="sans-serif" font-size="13" lengthAdjust="spacing" textLength="207" x="401.5" y="208.1592">localValidateInformation(texto, tags)</text><polygon fill="#A80036" points="49.5,252.3672,39.5,256.3672,49.5,260.3672,45.5,256.3672" style="stroke:#A80036;stroke-width:1.0;"/><line style="stroke:#A80036;stroke-width:1.0;stroke-dasharray:2.0,2.0;" x1="43.5" x2="388.5" y1="256.3672" y2="256.3672"/><text fill="#000000" font-family="sans-serif" font-size="13" lengthAdjust="spacing" textLength="140" x="55.5" y="251.5107">mostra o post a publicar</text><polygon fill="#A80036" points="372.5,282.7188,382.5,286.7188,372.5,290.7188,376.5,286.7188" style="stroke:#A80036;stroke-width:1.0;"/><line style="stroke:#A80036;stroke-width:1.0;" x1="38.5" x2="378.5" y1="286.7188" y2="286.7188"/><text fill="#000000" font-family="sans-serif" font-size="13" lengthAdjust="spacing" textLength="181" x="45.5" y="281.8623">pressiona o botão para publicar</text><polygon fill="#A80036" points="603.5,313.0703,613.5,317.0703,603.5,321.0703,607.5,317.0703" style="stroke:#A80036;stroke-width:1.0;"/><line style="stroke:#A80036;stroke-width:1.0;" x1="394.5" x2="609.5" y1="317.0703" y2="317.0703"/><text fill="#000000" font-family="sans-serif" font-size="13" lengthAdjust="spacing" textLength="103" x="401.5" y="312.2139">POST dados post</text><line style="stroke:#A80036;stroke-width:1.0;" x1="625.5" x2="667.5" y1="347.4219" y2="347.4219"/><line style="stroke:#A80036;stroke-width:1.0;" x1="667.5" x2="667.5" y1="347.4219" y2="360.4219"/><line style="stroke:#A80036;stroke-width:1.0;" x1="626.5" x2="667.5" y1="360.4219" y2="360.4219"/><polygon fill="#A80036" points="636.5,356.4219,626.5,360.4219,636.5,364.4219,632.5,360.4219" style="stroke:#A80036;stroke-width:1.0;"/><text fill="#000000" font-family="sans-serif" font-size="13" lengthAdjust="spacing" textLength="165" x="632.5" y="342.5654">serverDataValidation (dados)</text><line style="stroke:#A80036;stroke-width:1.0;" x1="625.5" x2="667.5" y1="390.7734" y2="390.7734"/><line style="stroke:#A80036;stroke-width:1.0;" x1="667.5" x2="667.5" y1="390.7734" y2="403.7734"/><line style="stroke:#A80036;stroke-width:1.0;" x1="626.5" x2="667.5" y1="403.7734" y2="403.7734"/><polygon fill="#A80036" points="636.5,399.7734,626.5,403.7734,636.5,407.7734,632.5,403.7734" style="stroke:#A80036;stroke-width:1.0;"/><text fill="#000000" font-family="sans-serif" font-size="13" lengthAdjust="spacing" textLength="106" x="632.5" y="385.917">createPost(dados)</text><polygon fill="#A80036" points="405.5,430.125,395.5,434.125,405.5,438.125,401.5,434.125" style="stroke:#A80036;stroke-width:1.0;"/><line style="stroke:#A80036;stroke-width:1.0;stroke-dasharray:2.0,2.0;" x1="399.5" x2="619.5" y1="434.125" y2="434.125"/><text fill="#000000" font-family="sans-serif" font-size="13" lengthAdjust="spacing" textLength="86" x="411.5" y="429.2686">Post publicado</text><polygon fill="#A80036" points="44.5,460.4766,34.5,464.4766,44.5,468.4766,40.5,464.4766" style="stroke:#A80036;stroke-width:1.0;"/><line style="stroke:#A80036;stroke-width:1.0;stroke-dasharray:2.0,2.0;" x1="38.5" x2="388.5" y1="464.4766" y2="464.4766"/><text fill="#000000" font-family="sans-serif" font-size="13" lengthAdjust="spacing" textLength="139" x="50.5" y="459.6201">mostra o post publicado</text><!--MD5=[210c1029aa9175f8ef6b3394fe9aee03]
@startuml

actor "Jogador" as jog

participant "<<C4:Container>> Visualização" as vis
participant "<<C4:Container>> Rede Social" as rede

activate jog

jog -> vis: Inicia a criação do post

activate vis
vis - -> jog: solicita os dados necessários para o post (texto e tags)
deactivate vis

jog -> vis : insere os dados 
activate vis
vis->vis: localValidateInformation(texto, tags) 
vis - -> jog : mostra o post a publicar
deactivate vis

jog -> vis : pressiona o botão para publicar
activate vis
vis->rede: POST dados post
activate rede 
rede-> rede: serverDataValidation (dados)
rede->rede: createPost(dados)
rede - -> vis: Post publicado
deactivate rede

vis - -> jog : mostra o post publicado
deactivate vis

deactivate jog


@enduml

PlantUML version 1.2021.11(Sat Oct 02 14:26:11 BST 2021)
(GPL source distribution)
Java Runtime: OpenJDK Runtime Environment
JVM: Dynamic Code Evolution 64-Bit Server VM
Default Encoding: Cp1252
Language: pt
Country: PT
--></g></svg>