<?xml version="1.0" encoding="UTF-8" standalone="no"?><svg xmlns="http://www.w3.org/2000/svg" xmlns:xlink="http://www.w3.org/1999/xlink" contentScriptType="application/ecmascript" contentStyleType="text/css" height="628px" preserveAspectRatio="none" style="width:937px;height:628px;background:#FFFFFF;" version="1.1" viewBox="0 0 937 628" width="937px" zoomAndPan="magnify"><defs><filter height="300%" id="f1c0wx6l48i29p" width="300%" x="-1" y="-1"><feGaussianBlur result="blurOut" stdDeviation="2.0"/><feColorMatrix in="blurOut" result="blurOut2" type="matrix" values="0 0 0 0 0 0 0 0 0 0 0 0 0 0 0 0 0 0 .4 0"/><feOffset dx="4.0" dy="4.0" in="blurOut2" result="blurOut3"/><feBlend in="SourceGraphic" in2="blurOut3" mode="normal"/></filter></defs><g><rect fill="#FFFFFF" filter="url(#f1c0wx6l48i29p)" height="425.5703" style="stroke:#A80036;stroke-width:1.0;" width="10" x="65.5" y="99.6094"/><rect fill="#FFFFFF" filter="url(#f1c0wx6l48i29p)" height="91.0547" style="stroke:#A80036;stroke-width:1.0;" width="10" x="453.5" y="121.9609"/><rect fill="#FFFFFF" filter="url(#f1c0wx6l48i29p)" height="73.7031" style="stroke:#A80036;stroke-width:1.0;" width="10" x="453.5" y="243.3672"/><rect fill="#FFFFFF" filter="url(#f1c0wx6l48i29p)" height="177.7578" style="stroke:#A80036;stroke-width:1.0;" width="10" x="453.5" y="347.4219"/><rect fill="#FFFFFF" filter="url(#f1c0wx6l48i29p)" height="30.3516" style="stroke:#A80036;stroke-width:1.0;" width="10" x="688.5" y="152.3125"/><rect fill="#FFFFFF" filter="url(#f1c0wx6l48i29p)" height="117.0547" style="stroke:#A80036;stroke-width:1.0;" width="10" x="688.5" y="377.7734"/><line style="stroke:#A80036;stroke-width:1.0;stroke-dasharray:5.0,5.0;" x1="70" x2="70" y1="89.6094" y2="543.1797"/><line style="stroke:#A80036;stroke-width:1.0;stroke-dasharray:5.0,5.0;" x1="458.5" x2="458.5" y1="89.6094" y2="543.1797"/><line style="stroke:#A80036;stroke-width:1.0;stroke-dasharray:5.0,5.0;" x1="693.5" x2="693.5" y1="89.6094" y2="543.1797"/><text fill="#000000" font-family="sans-serif" font-size="14" lengthAdjust="spacing" textLength="125" x="5" y="86.5332">Utilizador Registado</text><ellipse cx="70.5" cy="15" fill="#FEFECE" filter="url(#f1c0wx6l48i29p)" rx="8" ry="8" style="stroke:#A80036;stroke-width:2.0;"/><path d="M70.5,23 L70.5,50 M57.5,31 L83.5,31 M70.5,50 L57.5,65 M70.5,50 L83.5,65 " fill="none" filter="url(#f1c0wx6l48i29p)" style="stroke:#A80036;stroke-width:2.0;"/><text fill="#000000" font-family="sans-serif" font-size="14" lengthAdjust="spacing" textLength="125" x="5" y="556.7129">Utilizador Registado</text><ellipse cx="70.5" cy="569.7891" fill="#FEFECE" filter="url(#f1c0wx6l48i29p)" rx="8" ry="8" style="stroke:#A80036;stroke-width:2.0;"/><path d="M70.5,577.7891 L70.5,604.7891 M57.5,585.7891 L83.5,585.7891 M70.5,604.7891 L57.5,619.7891 M70.5,604.7891 L83.5,619.7891 " fill="none" filter="url(#f1c0wx6l48i29p)" style="stroke:#A80036;stroke-width:2.0;"/><rect fill="#FEFECE" filter="url(#f1c0wx6l48i29p)" height="49.2188" style="stroke:#A80036;stroke-width:1.5;" width="130" x="391.5" y="35.3906"/><text fill="#000000" font-family="sans-serif" font-size="14" lengthAdjust="spacing" textLength="116" x="398.5" y="56.9238">&lt;&lt;C4:Container&gt;&gt;</text><text fill="#000000" font-family="sans-serif" font-size="14" lengthAdjust="spacing" textLength="78" x="417.5" y="74.5332">Visualização</text><rect fill="#FEFECE" filter="url(#f1c0wx6l48i29p)" height="49.2188" style="stroke:#A80036;stroke-width:1.5;" width="130" x="391.5" y="542.1797"/><text fill="#000000" font-family="sans-serif" font-size="14" lengthAdjust="spacing" textLength="116" x="398.5" y="563.7129">&lt;&lt;C4:Container&gt;&gt;</text><text fill="#000000" font-family="sans-serif" font-size="14" lengthAdjust="spacing" textLength="78" x="417.5" y="581.3223">Visualização</text><rect fill="#FEFECE" filter="url(#f1c0wx6l48i29p)" height="49.2188" style="stroke:#A80036;stroke-width:1.5;" width="130" x="626.5" y="35.3906"/><text fill="#000000" font-family="sans-serif" font-size="14" lengthAdjust="spacing" textLength="116" x="633.5" y="56.9238">&lt;&lt;C4:Container&gt;&gt;</text><text fill="#000000" font-family="sans-serif" font-size="14" lengthAdjust="spacing" textLength="76" x="653.5" y="74.5332">Rede Social</text><rect fill="#FEFECE" filter="url(#f1c0wx6l48i29p)" height="49.2188" style="stroke:#A80036;stroke-width:1.5;" width="130" x="626.5" y="542.1797"/><text fill="#000000" font-family="sans-serif" font-size="14" lengthAdjust="spacing" textLength="116" x="633.5" y="563.7129">&lt;&lt;C4:Container&gt;&gt;</text><text fill="#000000" font-family="sans-serif" font-size="14" lengthAdjust="spacing" textLength="76" x="653.5" y="581.3223">Rede Social</text><rect fill="#FFFFFF" filter="url(#f1c0wx6l48i29p)" height="425.5703" style="stroke:#A80036;stroke-width:1.0;" width="10" x="65.5" y="99.6094"/><rect fill="#FFFFFF" filter="url(#f1c0wx6l48i29p)" height="91.0547" style="stroke:#A80036;stroke-width:1.0;" width="10" x="453.5" y="121.9609"/><rect fill="#FFFFFF" filter="url(#f1c0wx6l48i29p)" height="73.7031" style="stroke:#A80036;stroke-width:1.0;" width="10" x="453.5" y="243.3672"/><rect fill="#FFFFFF" filter="url(#f1c0wx6l48i29p)" height="177.7578" style="stroke:#A80036;stroke-width:1.0;" width="10" x="453.5" y="347.4219"/><rect fill="#FFFFFF" filter="url(#f1c0wx6l48i29p)" height="30.3516" style="stroke:#A80036;stroke-width:1.0;" width="10" x="688.5" y="152.3125"/><rect fill="#FFFFFF" filter="url(#f1c0wx6l48i29p)" height="117.0547" style="stroke:#A80036;stroke-width:1.0;" width="10" x="688.5" y="377.7734"/><polygon fill="#A80036" points="441.5,117.9609,451.5,121.9609,441.5,125.9609,445.5,121.9609" style="stroke:#A80036;stroke-width:1.0;"/><line style="stroke:#A80036;stroke-width:1.0;" x1="75.5" x2="447.5" y1="121.9609" y2="121.9609"/><text fill="#000000" font-family="sans-serif" font-size="13" font-weight="bold" lengthAdjust="spacing" textLength="7" x="82.5" y="117.1045">1</text><text fill="#000000" font-family="sans-serif" font-size="13" lengthAdjust="spacing" textLength="348" x="93.5" y="117.1045">solicita visualização da informação do seu perfil de utilizador</text><polygon fill="#A80036" points="676.5,148.3125,686.5,152.3125,676.5,156.3125,680.5,152.3125" style="stroke:#A80036;stroke-width:1.0;"/><line style="stroke:#A80036;stroke-width:1.0;" x1="463.5" x2="682.5" y1="152.3125" y2="152.3125"/><text fill="#000000" font-family="sans-serif" font-size="13" font-weight="bold" lengthAdjust="spacing" textLength="7" x="470.5" y="147.4561">2</text><text fill="#000000" font-family="sans-serif" font-size="13" lengthAdjust="spacing" textLength="136" x="481.5" y="147.4561">GET jogador/{utilizador}</text><polygon fill="#A80036" points="474.5,178.6641,464.5,182.6641,474.5,186.6641,470.5,182.6641" style="stroke:#A80036;stroke-width:1.0;"/><line style="stroke:#A80036;stroke-width:1.0;stroke-dasharray:2.0,2.0;" x1="468.5" x2="692.5" y1="182.6641" y2="182.6641"/><text fill="#000000" font-family="sans-serif" font-size="13" font-weight="bold" lengthAdjust="spacing" textLength="7" x="480.5" y="177.8076">3</text><text fill="#000000" font-family="sans-serif" font-size="13" lengthAdjust="spacing" textLength="88" x="491.5" y="177.8076">jogador (JSON)</text><polygon fill="#A80036" points="86.5,209.0156,76.5,213.0156,86.5,217.0156,82.5,213.0156" style="stroke:#A80036;stroke-width:1.0;"/><line style="stroke:#A80036;stroke-width:1.0;stroke-dasharray:2.0,2.0;" x1="80.5" x2="457.5" y1="213.0156" y2="213.0156"/><text fill="#000000" font-family="sans-serif" font-size="13" font-weight="bold" lengthAdjust="spacing" textLength="7" x="92.5" y="208.1592">4</text><text fill="#000000" font-family="sans-serif" font-size="13" lengthAdjust="spacing" textLength="118" x="103.5" y="208.1592">mostra perfil de user</text><polygon fill="#A80036" points="441.5,239.3672,451.5,243.3672,441.5,247.3672,445.5,243.3672" style="stroke:#A80036;stroke-width:1.0;"/><line style="stroke:#A80036;stroke-width:1.0;" x1="75.5" x2="447.5" y1="243.3672" y2="243.3672"/><text fill="#000000" font-family="sans-serif" font-size="13" font-weight="bold" lengthAdjust="spacing" textLength="7" x="82.5" y="238.5107">5</text><text fill="#000000" font-family="sans-serif" font-size="13" lengthAdjust="spacing" textLength="120" x="93.5" y="238.5107">altera dados do perfil</text><line style="stroke:#A80036;stroke-width:1.0;" x1="463.5" x2="505.5" y1="273.7188" y2="273.7188"/><line style="stroke:#A80036;stroke-width:1.0;" x1="505.5" x2="505.5" y1="273.7188" y2="286.7188"/><line style="stroke:#A80036;stroke-width:1.0;" x1="464.5" x2="505.5" y1="286.7188" y2="286.7188"/><polygon fill="#A80036" points="474.5,282.7188,464.5,286.7188,474.5,290.7188,470.5,286.7188" style="stroke:#A80036;stroke-width:1.0;"/><text fill="#000000" font-family="sans-serif" font-size="13" font-weight="bold" lengthAdjust="spacing" textLength="7" x="470.5" y="268.8623">6</text><text fill="#000000" font-family="sans-serif" font-size="13" lengthAdjust="spacing" textLength="200" x="481.5" y="268.8623">localDataValidation(dados,jogador)</text><polygon fill="#A80036" points="86.5,313.0703,76.5,317.0703,86.5,321.0703,82.5,317.0703" style="stroke:#A80036;stroke-width:1.0;"/><line style="stroke:#A80036;stroke-width:1.0;stroke-dasharray:2.0,2.0;" x1="80.5" x2="457.5" y1="317.0703" y2="317.0703"/><text fill="#000000" font-family="sans-serif" font-size="13" font-weight="bold" lengthAdjust="spacing" textLength="7" x="92.5" y="312.2139">7</text><text fill="#000000" font-family="sans-serif" font-size="13" lengthAdjust="spacing" textLength="190" x="103.5" y="312.2139">solicita confirmação da alteração</text><polygon fill="#A80036" points="441.5,343.4219,451.5,347.4219,441.5,351.4219,445.5,347.4219" style="stroke:#A80036;stroke-width:1.0;"/><line style="stroke:#A80036;stroke-width:1.0;" x1="75.5" x2="447.5" y1="347.4219" y2="347.4219"/><text fill="#000000" font-family="sans-serif" font-size="13" font-weight="bold" lengthAdjust="spacing" textLength="7" x="82.5" y="342.5654">8</text><text fill="#000000" font-family="sans-serif" font-size="13" lengthAdjust="spacing" textLength="106" x="93.5" y="342.5654">confirma alteração</text><polygon fill="#A80036" points="676.5,373.7734,686.5,377.7734,676.5,381.7734,680.5,377.7734" style="stroke:#A80036;stroke-width:1.0;"/><line style="stroke:#A80036;stroke-width:1.0;" x1="463.5" x2="682.5" y1="377.7734" y2="377.7734"/><text fill="#000000" font-family="sans-serif" font-size="13" font-weight="bold" lengthAdjust="spacing" textLength="7" x="470.5" y="372.917">9</text><text fill="#000000" font-family="sans-serif" font-size="13" lengthAdjust="spacing" textLength="157" x="481.5" y="372.917">PUT jogador/{utilizador} dto</text><line style="stroke:#A80036;stroke-width:1.0;" x1="698.5" x2="740.5" y1="408.125" y2="408.125"/><line style="stroke:#A80036;stroke-width:1.0;" x1="740.5" x2="740.5" y1="408.125" y2="421.125"/><line style="stroke:#A80036;stroke-width:1.0;" x1="699.5" x2="740.5" y1="421.125" y2="421.125"/><polygon fill="#A80036" points="709.5,417.125,699.5,421.125,709.5,425.125,705.5,421.125" style="stroke:#A80036;stroke-width:1.0;"/><text fill="#000000" font-family="sans-serif" font-size="13" font-weight="bold" lengthAdjust="spacing" textLength="14" x="705.5" y="403.2686">10</text><text fill="#000000" font-family="sans-serif" font-size="13" lengthAdjust="spacing" textLength="207" x="723.5" y="403.2686">serverDataValidation(dados,jogador)</text><line style="stroke:#A80036;stroke-width:1.0;" x1="698.5" x2="740.5" y1="451.4766" y2="451.4766"/><line style="stroke:#A80036;stroke-width:1.0;" x1="740.5" x2="740.5" y1="451.4766" y2="464.4766"/><line style="stroke:#A80036;stroke-width:1.0;" x1="699.5" x2="740.5" y1="464.4766" y2="464.4766"/><polygon fill="#A80036" points="709.5,460.4766,699.5,464.4766,709.5,468.4766,705.5,464.4766" style="stroke:#A80036;stroke-width:1.0;"/><text fill="#000000" font-family="sans-serif" font-size="13" font-weight="bold" lengthAdjust="spacing" textLength="14" x="705.5" y="446.6201">11</text><text fill="#000000" font-family="sans-serif" font-size="13" lengthAdjust="spacing" textLength="142" x="723.5" y="446.6201">saveData(dados,jogador)</text><polygon fill="#A80036" points="474.5,490.8281,464.5,494.8281,474.5,498.8281,470.5,494.8281" style="stroke:#A80036;stroke-width:1.0;"/><line style="stroke:#A80036;stroke-width:1.0;stroke-dasharray:2.0,2.0;" x1="468.5" x2="692.5" y1="494.8281" y2="494.8281"/><text fill="#000000" font-family="sans-serif" font-size="13" font-weight="bold" lengthAdjust="spacing" textLength="14" x="480.5" y="489.9717">12</text><text fill="#000000" font-family="sans-serif" font-size="13" lengthAdjust="spacing" textLength="44" x="498.5" y="489.9717">202 OK</text><polygon fill="#A80036" points="81.5,521.1797,71.5,525.1797,81.5,529.1797,77.5,525.1797" style="stroke:#A80036;stroke-width:1.0;"/><line style="stroke:#A80036;stroke-width:1.0;stroke-dasharray:2.0,2.0;" x1="75.5" x2="457.5" y1="525.1797" y2="525.1797"/><text fill="#000000" font-family="sans-serif" font-size="13" font-weight="bold" lengthAdjust="spacing" textLength="14" x="87.5" y="520.3232">13</text><text fill="#000000" font-family="sans-serif" font-size="13" lengthAdjust="spacing" textLength="163" x="105.5" y="520.3232">confirma alteração de dados</text><!--MD5=[8fcdf49261c45ead064dffc335a92ce8]
@startuml
autonumber

actor "Utilizador Registado" as USER
participant "<<C4:Container>>\nVisualização" as SYSTEM
participant "<<C4:Container>>\nRede Social" as SYSTEM2

activate USER

USER -> SYSTEM: solicita visualização da informação do seu perfil de utilizador

activate SYSTEM

SYSTEM -> SYSTEM2 : GET jogador/{utilizador}

activate SYSTEM2

SYSTEM2 - -> SYSTEM : jogador (JSON)

deactivate SYSTEM2

SYSTEM - -> USER: mostra perfil de user

deactivate SYSTEM

USER -> SYSTEM: altera dados do perfil

activate SYSTEM

SYSTEM -> SYSTEM : localDataValidation(dados,jogador)

SYSTEM - -> USER: solicita confirmação da alteração

deactivate SYSTEM

USER -> SYSTEM: confirma alteração

activate SYSTEM

SYSTEM -> SYSTEM2 : PUT jogador/{utilizador} dto

activate SYSTEM2

SYSTEM2 -> SYSTEM2 : serverDataValidation(dados,jogador)

SYSTEM2 -> SYSTEM2 : saveData(dados,jogador)

SYSTEM2 - -> SYSTEM : 202 OK

deactivate SYSTEM2

SYSTEM - -> USER: confirma alteração de dados

deactivate SYSTEM

deactivate USER
@enduml

PlantUML version 1.2021.11(Sat Oct 02 14:26:11 BST 2021)
(GPL source distribution)
Java Runtime: OpenJDK Runtime Environment
JVM: Dynamic Code Evolution 64-Bit Server VM
Default Encoding: Cp1252
Language: pt
Country: PT
--></g></svg>